<?xml version="1.0" encoding="utf-8"?><svg xmlns="http://www.w3.org/2000/svg" xmlns:xlink="http://www.w3.org/1999/xlink"><symbol viewBox="0 0 1024 1024" id="icon-alarm2"><path d="M813.733 274.266C733.066 193.733 626 149.333 512 149.333s-221.067 44.4-301.733 124.933C129.734 354.933 85.334 461.999 85.334 575.999c0 109.733 41.2 213.2 116.267 292.8l-114.4 114.4 60.4 60.4 118.667-118.667c71.333 50.533 156.4 77.733 245.733 77.733s174.4-27.2 245.867-77.867l118.667 118.667 60.4-60.4-114.4-114.4c74.933-79.467 116.133-182.933 116.133-292.667 0-114-44.4-221.067-124.933-301.733zM170.667 576c0-188.267 153.067-341.333 341.333-341.333S853.333 387.734 853.333 576c0 188.267-153.067 341.333-341.333 341.333S170.667 764.266 170.667 576zm164.4-467.067c4-4 6.267-9.467 6.267-15.067s-2.267-11.067-6.267-15.067c-76.533-76.4-201.067-76.4-277.467 0-37.067 37.067-57.6 86.4-57.6 138.8s20.4 101.733 57.6 138.8c4 4 9.467 6.267 15.067 6.267s11.067-2.267 15.067-6.267l247.333-247.467zm-247.334 0c29.867-29.867 69.2-44.8 108.533-44.8 32.667 0 65.2 10.267 92.533 30.8l-215.067 215.2c-45.467-60.133-40.8-146.4 14-201.2zm878.8-30c-37.067-37.067-86.4-57.6-138.8-57.6s-101.733 20.4-138.8 57.6c-4 4-6.267 9.467-6.267 15.067s2.267 11.067 6.267 15.067L936.4 356.4c4 4 9.467 6.267 15.067 6.267s11.067-2.267 15.067-6.267c37.067-37.067 57.467-86.4 57.467-138.8.133-52.4-20.4-101.6-57.467-138.667zm-16.133 231.2L735.2 95.066c26.533-20.133 58.667-30.933 92.533-30.933 41.067 0 79.6 16 108.667 45.067 29.067 28.933 45.067 67.467 44.933 108.533 0 33.733-10.8 65.867-30.933 92.4zM508.133 572.266l-198.933-88.4-17.333 38.933 211.467 94c2.8 1.2 5.733 1.867 8.667 1.867 5.067 0 10.133-1.867 14.133-5.333l208-184.8-28.4-31.867-197.6 175.6z"/></symbol><symbol viewBox="0 0 1024 1024" id="icon-camera3"><path d="M938.667 234.666H785.734L682.667 131.599c-16.133-16-37.6-24.933-60.4-24.933H401.734c-22.8 0-44.267 8.933-60.4 24.933L238.267 234.666H85.334c-47.067 0-85.333 38.267-85.333 85.333v554.667c0 47.067 38.267 85.333 85.333 85.333h853.333c47.067 0 85.333-38.267 85.333-85.333V319.999c0-47.067-38.267-85.333-85.333-85.333zm0 640H85.334V319.999h152.933c22.8 0 44.267-8.933 60.4-24.933l103.067-103.067h220.667l103.067 103.067c16.133 16.133 37.6 24.933 60.4 24.933h152.8v554.667zM512 320c-141.2 0-256 114.8-256 256s114.8 256 256 256 256-114.8 256-256-114.8-256-256-256zm0 426.666c-94.133 0-170.667-76.533-170.667-170.667S417.866 405.332 512 405.332c94.133 0 170.667 76.533 170.667 170.667S606.134 746.666 512 746.666zM426.667 576H384c0 70.533 57.467 128 128 128v-42.667c-47.067 0-85.333-38.267-85.333-85.333zM128 362.666h85.333v42.667H128v-42.667z"/></symbol><symbol viewBox="0 0 1024 1024" id="icon-cart-full"><path d="M341.333 874.666c0 47.067 38.267 85.333 85.333 85.333s85.333-38.267 85.333-85.333-38.267-85.333-85.333-85.333-85.333 38.267-85.333 85.333zM426.667 832c23.467 0 42.667 19.2 42.667 42.667s-19.2 42.667-42.667 42.667S384 898.134 384 874.667 403.2 832 426.667 832zm298.666 42.666c0 47.067 38.267 85.333 85.333 85.333s85.333-38.267 85.333-85.333-38.267-85.333-85.333-85.333-85.333 38.267-85.333 85.333zM810.667 832c23.467 0 42.667 19.2 42.667 42.667s-19.2 42.667-42.667 42.667S768 898.134 768 874.667 787.2 832 810.667 832zm-30.8-213.334c36 0 68-22.533 80.267-56.133l117.6-268c5.733-13.2 4.533-28.4-3.333-40.533s-21.333-19.333-35.733-19.333h-97.867l-164.4-164.4c-8.267-8.267-21.867-8.267-30.133 0l-91.6 91.6-48.933-48.933c-8.267-8.267-21.867-8.267-30.133 0L353.869 234.667h-92.8l-40.4-80.8c-14.533-29.067-43.733-47.2-76.4-47.2H.002V192h144.267l187.867 375.6-97.333 97.333c-20.933 20.933-27.2 52.133-15.867 79.467s37.733 44.933 67.333 44.933h652.4V704H316.402l85.333-85.333h378.133zm-118.534-503.2l119.2 119.2h-238.4l119.2-119.2zm-170.666 42.667L524.534 192l-42.667 42.667h-67.6l76.4-76.533zm401.466 119.2L781.333 529.6c-.533 1.2-.933 2.4-1.333 3.6 0 .133 0 .133-.133.133H410.4l-128-256h609.733z"/></symbol><symbol viewBox="0 0 1024 1024" id="icon-chevron-right"><path d="M755.467 503.2L318.134 65.867l-60.4 60.4 407.2 407.067-407.067 407.2 60.4 60.4L755.6 563.601c16.533-16.8 16.533-43.733-.133-60.4z"/></symbol><symbol viewBox="0 0 1024 1024" id="icon-dropdown"><path d="M938.667 21.333H85.334C38.267 21.333.001 59.6.001 106.666v917.333c0 11.733 9.6 21.333 21.333 21.333h768c11.733 0 21.333-9.6 21.333-21.333V405.332h128c47.067 0 85.333-38.267 85.333-85.333V106.666c0-47.067-38.267-85.333-85.333-85.333zM85.333 106.666h512v213.333h-512V106.666zm682.667 896H42.667V405.333H768v597.333zM938.667 320H640V106.667h298.667V320c.133 0 0 0 0 0zm-149.334-94.134L704 140.533l-30.133 30.133 100.4 100.4c4.133 4.133 9.6 6.267 15.067 6.267s10.933-2.133 15.067-6.267l100.4-100.4-30.133-30.133-85.333 85.333zM128 490.666h384v42.667H128v-42.667zm426.667 0h128v42.667h-128v-42.667zM128 618.666h384v42.667H128v-42.667zm426.667 0h128v42.667h-128v-42.667zM128 746.666h384v42.667H128v-42.667zm426.667 0h128v42.667h-128v-42.667zM128 874.666h384v42.667H128v-42.667zm426.667 0h128v42.667h-128v-42.667zM170.667 192H512v42.667H170.667V192z"/></symbol><symbol viewBox="0 0 1024 1024" id="icon-envelope-open2"><path d="M946.133 400.666L896 364.266V85.333C896 73.6 886.4 64 874.667 64H149.334c-11.733 0-21.333 9.6-21.333 21.333v278.933l-50 36.267c-22.133 16-35.333 41.867-35.333 69.067v447.733c0 47.067 38.267 85.333 85.333 85.333h768c47.067 0 85.333-38.267 85.333-85.333v-447.6c0-27.333-13.2-53.2-35.2-69.067zm-355.066 181.6c-4-4-9.467-6.267-15.067-6.267H448c-5.6 0-11.067 2.267-15.067 6.267L402 613.199 170.667 474.266v-367.6h682.667v367.6L622.001 613.199l-30.933-30.933zm-220.134 62L128 887.199v-388.8l242.933 145.867zm85.867-25.6h110.267l298.667 298.667h-707.6l298.667-298.667zm196.267 25.6L896 498.399v388.667l-242.933-242.8zM256 192h512v42.667H256V192zm0 85.333h426.667V320H256v-42.667zm0 85.333h469.333v42.667H256v-42.667zM256 448h512v42.667H256V448z"/></symbol><symbol viewBox="0 0 1024 1024" id="icon-eye"><path d="M1012.8 504.533c-81.067-88.4-163.733-155.867-245.733-200.667-84.133-45.867-170-69.2-255.067-69.2s-170.933 23.333-255.067 69.2c-82 44.667-164.667 112.267-245.733 200.667-14.933 16.267-14.933 41.333 0 57.6C92.267 650.533 174.933 718 256.933 762.8c84.133 45.867 170 69.2 255.067 69.2s170.933-23.333 255.067-69.2c82-44.667 164.667-112.267 245.733-200.667 14.933-16.267 14.933-41.333 0-57.6zm-330.133-13.867c0 94.133-76.533 170.667-170.667 170.667S341.333 584.8 341.333 490.666c0-94.133 76.533-170.667 170.667-170.667 94.133 0 170.667 76.533 170.667 170.667zM512 746.666c-134.4 0-272.4-71.733-410.667-213.333 82.267-84.4 164.533-143.867 246-178.267-30.4 36.933-48.667 84.133-48.667 135.6 0 117.6 95.733 213.333 213.333 213.333s213.333-95.733 213.333-213.333c0-51.467-18.267-98.667-48.8-135.6 81.467 34.4 163.733 93.867 246.133 178.267-138.267 141.6-276.267 213.333-410.667 213.333z"/></symbol><symbol viewBox="0 0 1024 1024" id="icon-file-picture"><path d="M384 320c-47.067 0-85.333 38.267-85.333 85.333s38.267 85.333 85.333 85.333 85.333-38.267 85.333-85.333S431.066 320 384 320zm0 128c-23.467 0-42.667-19.2-42.667-42.667s19.2-42.667 42.667-42.667 42.667 19.2 42.667 42.667S407.467 448 384 448zM597.333 21.333h-384C166.266 21.333 128 59.6 128 106.666v853.333c0 47.067 38.267 85.333 85.333 85.333h597.333c47.067 0 85.333-38.267 85.333-85.333v-640c0-164.667-134-298.667-298.667-298.667zm209.067 256H640v-166.4c83.467 17.067 149.333 82.933 166.4 166.4zM213.333 814.266l183.2-183.2c16.533-16.533 43.733-16.533 60.4 0L496 670.133 526.133 640l-39.067-39.067c-33.333-33.2-87.467-33.2-120.667 0L213.332 754V106.667h384v192c0 11.733 9.6 21.333 21.333 21.333h192v263.2l-24.933-24.933c-33.333-33.2-87.467-33.2-120.667 0L263.332 960h-50V814.267zM810.667 960H323.6l371.6-371.6c16.533-16.533 43.733-16.533 60.4 0l55.067 55.067V960c.133 0 0 0 0 0z"/></symbol><symbol viewBox="0 0 1024 1024" id="icon-files-compare"><path d="M896.001 525.333V234.666c0-117.6-95.733-213.333-213.333-213.333H384.001c-47.067 0-85.333 38.267-85.333 85.333v85.333H128.001c-47.067 0-85.333 38.267-85.333 85.333v682.667c0 47.067 38.267 85.333 85.333 85.333h426.667c35.2 0 65.467-21.333 78.533-51.867 22.667 6 46.4 9.2 70.8 9.2 152.933 0 277.333-124.4 277.333-277.333 0-78.533-32.8-149.467-85.333-200zm-85.334-290.667h-128v-128c70.533 0 128 57.467 128 128zm-426.666-128h256v149.333c0 11.733 9.6 21.333 21.333 21.333h149.333v192c-32.8-13.733-68.933-21.333-106.667-21.333-22 0-43.467 2.533-64 7.467v-50.133C640 287.733 544.267 192 426.667 192H384v-85.333zm42.666 170.667c70.533 0 128 57.467 128 128h-128v-128zm128 682.667H128V277.333h256v149.333c0 11.733 9.6 21.333 21.333 21.333h149.333v43.733c-76.933 49.333-128 135.6-128 233.6s51.067 184.267 128 233.6v1.067zm149.334 0c-129.333 0-234.667-105.333-234.667-234.667s105.333-234.667 234.667-234.667 234.667 105.333 234.667 234.667S833.335 960 704.001 960zm42.666-392.8l-30.133 30.133 21.333 21.333H597.334v42.667h140.533l-21.333 21.333 30.133 30.133 57.733-57.733c8.267-8.267 8.267-21.867 0-30.133L746.667 567.2zm-55.2 200.8l-30.133-30.133-57.733 57.733c-8.267 8.267-8.267 21.867 0 30.133l57.733 57.733 30.133-30.133L670.134 832h140.533v-42.667H670.134L691.467 768z"/></symbol><symbol viewBox="0 0 1024 1024" id="icon-fire"><path d="M848.933 626.533C832.133 507.6 772 389.466 670 275.6 567.733 161.333 446.8 77.6 363.333 27.467c-14.8-8.933-33.467-8-47.333 2.267s-20.133 27.867-16 44.667c38.533 154.133-6.8 250.133-54.667 351.733-23.2 49.2-47.067 100-61.333 157.333-16.267 66-17.2 131.867-2.667 201.2l.4 1.6c22 88.533 77.2 163.067 155.333 210 53.733 32.267 114 48.933 175.2 48.933 27.733 0 55.6-3.333 83.2-10.267 44.667-11.067 85.333-30.533 120.933-57.733 34-26 62.533-58.267 84.933-96.133 43.333-73.733 60.267-164 47.6-254.533zM574.8 952.133c-66.4 16.533-135.2 6.267-193.733-28.933-58.4-35.067-99.733-90.8-116.4-156.8-26.133-125.867 12.8-208.4 57.733-304 25.333-53.867 51.6-109.467 66.133-175.067 9.867-44.4 13.2-89.333 10-135.6C535.733 246.933 733.6 419.6 764.4 638.4c20.933 149.2-58.8 281.2-189.6 313.733zm62.933-246.667C616 565.466 508 496.799 503.466 493.866c-6.533-4.133-14.8-4.267-21.6-.533S470.933 504.266 470.933 512c0 67.467-23.867 102.4-46.933 136.267-23.333 34.133-47.333 69.467-37.6 129.2 0 .267.133.533.133.8 6.4 31.467 25.333 58.533 53.2 76.133 21.2 13.333 46 20.4 71.6 20.4 7.467 0 15.067-.533 22.667-1.733h.267c33.467-5.733 62.267-23.733 81.067-50.533 21.2-30.133 28.933-70.4 22.667-116.4-.133-.4-.267-.533-.267-.667zM527.067 830.8c-46.8 7.333-90-19.2-98.8-60.667-6.8-42.667 8.933-65.733 30.8-97.733 19.6-28.8 43.2-63.2 51.333-118.267 6.533 6.133 13.867 13.467 21.2 22 34.667 40 56.133 85.733 63.867 135.733 10.667 76.933-28.267 111.867-68.4 118.933z"/></symbol><symbol viewBox="0 0 1024 1024" id="icon-folder-picture"><path d="M938.667 192H542.134l-72.8-72.8c-8-8-18.933-12.533-30.133-12.533H85.334C38.267 106.667.001 144.934.001 192v682.667C.001 921.734 38.268 960 85.334 960h853.333c47.067 0 85.333-38.267 85.333-85.333V277.334c0-47.067-38.267-85.333-85.333-85.333zm0 682.666H85.334V447.999c0-47.067 38.267-85.333 85.333-85.333h682.667c47.067 0 85.333 38.267 85.333 85.333v426.667c.133 0 0 0 0 0zm-85.334-597.333H170.666c-50.933 0-96.667 22.4-128 57.867V192c0-23.467 19.2-42.667 42.667-42.667H439.2l72.8 72.8c8 8 18.933 12.533 30.133 12.533h396.533c23.467 0 42.667 19.2 42.667 42.667V335.2c-31.333-35.467-77.067-57.867-128-57.867zm-106.666 128H277.334c-11.733 0-21.333 9.6-21.333 21.333v384c0 11.733 9.6 21.333 21.333 21.333h469.333c11.733 0 21.333-9.6 21.333-21.333v-384c0-11.733-9.6-21.333-21.333-21.333zm-448 42.667h426.667v220.533L700.401 643.6c-33.333-33.2-87.467-33.2-120.667 0L434.001 789.333H298.668V448zm195.6 341.333l115.6-115.6c16.533-16.533 43.733-16.533 60.4 0l55.067 55.067v60.533H494.267zm-24.934-234.667c0-35.333-28.667-64-64-64s-64 28.667-64 64 28.667 64 64 64 64-28.667 64-64zm-85.333 0c0-11.733 9.6-21.333 21.333-21.333s21.333 9.6 21.333 21.333-9.6 21.333-21.333 21.333S384 566.399 384 554.666z"/></symbol><symbol viewBox="0 0 1024 1024" id="icon-fork-knife"><path d="M733.6 648.133c-52.667-39.733-106.4-80.4-158.8-123.867a1597.64 1597.64 0 0152.933-58.533l61.2 61.2c4.133 4.133 9.6 6.267 15.067 6.267s10.933-2.133 15.067-6.267L932.4 313.6c105.067-105.067 120.267-206.533 42.8-286-4-4.133-9.467-6.4-15.2-6.4-5.733-.133-11.2 2.267-15.2 6.267L587.2 385.334c-26.533 26.533-54.267 52.4-82.933 77.867-13.067-12-26-24.267-38.8-36.8 2.267-7.333 3.867-15.867 4-25.733.4-44.8-30.4-98.533-91.6-159.733L192 55.202l-30.133 30.133L347.6 271.068c9.333 9.333 9.333 24.533 0 33.867-4.533 4.533-10.533 7.067-16.933 7.067s-12.4-2.533-16.933-7.067L106.667 97.868l-30.133 30.133 207.067 207.067c4.533 4.533 7.067 10.533 7.067 16.933s-2.533 12.4-7.067 16.933c-9.333 9.333-24.533 9.333-33.867 0L64.001 183.201l-30.133 30.133 185.733 185.733c60.8 60.8 114.267 91.6 158.933 91.6h.933c9.733-.133 18.267-1.6 25.733-4 11.067 11.2 21.733 22.533 32.4 34-45.6 38.267-92.267 75.6-138.267 112.4C201.733 711.2 109.6 784.8 31.333 863.2c-41.467 41.467-41.467 109.067 0 150.933 20.8 20.8 48 31.067 75.333 31.067s54.667-10.4 75.467-31.2c78.8-78.8 149.6-174 224.533-274.8 33.6-45.067 67.6-90.8 102.667-135.333 41.067 50 79.6 100.933 117.467 151.067 70.133 92.8 136.267 180.4 215.067 259.2 20.8 20.8 48.133 31.2 75.467 31.2s54.667-10.4 75.467-31.2c41.6-41.6 41.6-109.2 0-150.8-78.8-78.933-166.4-145.067-259.2-215.2zM958.8 74c42.933 58.533 24 128.933-56.533 209.467L704 481.867l-76.533-76.533L958.8 74.001zM378.933 448.133C362.4 448.266 336 441.066 297.2 411.2c6-3.067 11.6-7.067 16.533-12.133 12.4-12.4 18.8-28.4 19.467-44.533 16.267-.667 32.267-7.067 44.533-19.467 4.933-4.933 9.067-10.533 12.133-16.533 29.867 38.8 37.067 65.2 36.933 81.733-.133 18.133-9.467 27.067-13.867 31.333l-1.333 1.333-1.333 1.333c-4.267 4.4-13.2 13.6-31.333 13.867zM121.867 953.6c-8.4 8.4-22 8.4-30.133.133-8.4-8.4-8.4-22-.133-30.267 60-60 129.6-118.133 204-178.133-57.733 76.933-114 148.533-173.733 208.267zm810.533.133c-8.267 8.267-21.867 8.267-30.133 0-59.867-59.867-113.2-126.667-167.2-197.333 70.667 54 137.467 107.333 197.333 167.2 8.4 8.267 8.4 21.867 0 30.133z"/></symbol><symbol viewBox="0 0 1024 1024" id="icon-grid"><path d="M938.667 21.333H85.334C38.267 21.333.001 59.6.001 106.666v853.333c0 47.067 38.267 85.333 85.333 85.333h853.333c47.067 0 85.333-38.267 85.333-85.333V106.666c0-47.067-38.267-85.333-85.333-85.333zm0 341.333h-256v-256h256v256zM384 661.333v-256h256v256H384zM640 704v256H384V704h256zm-298.667-42.667h-256v-256h256v256zM384 362.666v-256h256v256H384zm298.667 42.667h256v256h-256v-256zM341.333 106.666v256h-256v-256h256zM85.333 704h256v256h-256V704zm853.334 256h-256V704h256v256z"/></symbol><symbol viewBox="0 0 1024 1024" id="icon-handwriting"><path d="M143.067 463.066l302.267-302.267c31.867-31.867 31.867-83.6 0-115.467s-83.6-31.867-115.467 0L27.6 347.599c-2.933 2.933-5.067 6.8-5.867 10.933L.4 465.199c-1.333 6.933.8 14.267 5.867 19.333 4 4 9.467 6.267 15.067 6.267 1.333 0 2.8-.133 4.133-.4l106.667-21.333c4.133-.933 8-3.067 10.933-6zM415.2 75.466c15.2 15.2 15.2 40 0 55.2l-9.867 9.867-55.2-55.2L360 75.466c15.2-15.2 40-15.2 55.2 0zM48.533 442.133L62.266 373.2l257.733-257.733 55.2 55.2L117.466 428.4l-68.933 13.733zm909.2 396.4C871.066 943.333 790.4 983.2 741.866 945.2c-48-37.6-69.067-140.533-53.867-262.133 2.4-19.2 5.6-38.533 9.6-58 111.333-6.133 196.267-6.267 198.267-6.267v-85.333c-7.6 0-78.8.133-175.467 4.8 34.4-108.533 91.6-218.8 167.067-320.8 11.2-15.067 11.2-35.6.133-50.667s-30.667-21.2-48.4-15.067c-212.4 73.867-350.133 246.4-464.933 421.6-68.667 12.267-131.467 28.133-178.267 48.933l34.667 78c22.533-10 49.6-18.8 79.733-26.4-3.067 5.067-6.267 10-9.333 14.933-70.667 113.2-137.333 220.133-212.267 287.467l57.067 63.467c83.867-75.333 153.6-187.2 227.6-305.733 17.067-27.2 34.4-55.067 52.133-82.8 59.733-9.2 123.6-15.733 184.267-20.4-2.533 14-4.533 27.867-6.267 41.6-9.333 74.267-6.933 144 6.8 201.733 14.533 61.333 42 109.067 79.2 138.267 27.467 21.467 59.733 32.4 94.267 32.4 20.933 0 42.8-4 64.933-12.133 56.667-20.8 115.467-67.867 174.933-139.733l-66-54.4zM488.667 556.666c68.667-97.6 146.8-189.6 243.067-255.333C687.067 380.8 652.667 462.666 629.867 543.6c-45.467 3.2-93.467 7.467-141.2 13.067z"/></symbol><symbol viewBox="0 0 1024 1024" id="icon-lamp-bright"><path d="M723.2 110.133c-56.4-57.067-131.067-88.533-210.267-88.8h-.8c-79.6 0-154.4 30.933-210.933 87.2-56.667 56.533-87.867 131.6-87.867 211.467 0 132.933 46.267 191.333 83.6 238.267 25.733 32.533 44.4 56 44.4 103.067v128c0 47.067 38.267 85.333 85.333 85.333h170.667c47.067 0 85.333-38.267 85.333-85.333v-128c0-46.933 18.667-70.533 44.4-102.933 36.667-46.133 82.4-103.467 83.6-232.933.4-40.8-7.333-80.667-22.933-118.267-15.2-36.4-36.8-69.067-64.533-97.067zm2.133 214.533c-.933 100-32.133 139.2-65.067 180.533-29.467 37.2-62.933 79.333-62.933 156v128H426.666v-128c0-76.667-33.467-118.933-62.933-156.133-33.467-42-65.067-81.867-65.067-185.067 0-57.067 22.267-110.667 62.8-150.933 40.267-40.267 93.733-62.4 150.533-62.4h.667c56.267.133 109.467 22.667 149.733 63.467 41.2 41.6 63.467 96.4 62.933 154.533zM384 917.333h256V960H384v-42.667zm85.333 85.333h85.333v42.667h-85.333v-42.667zM896 320h128v42.667H896V320zm-50.009-201.523l123.546-61.773 19.081 38.161-123.546 61.773-19.081-38.161zm.001 445.734l19.081-38.161 123.546 61.773-19.081 38.161-123.546-61.773zM0 320h128v42.667H0V320zM35.349 94.862L54.43 56.701l123.546 61.773-19.081 38.161L35.349 94.862zm-.012 492.935l123.546-61.773 19.081 38.161-123.546 61.773-19.081-38.161z"/></symbol><symbol viewBox="0 0 1024 1024" id="icon-library"><path d="M886.267 234.666L533.6 27.199a42.487 42.487 0 00-43.2 0L137.733 234.666H0v85.333h149.333c7.6 0 15.067-2 21.6-5.867L512 113.465l341.067 200.667c6.533 3.867 14 5.867 21.6 5.867H1024v-85.333H886.267zM0 362.666h1024v42.667H0v-42.667zM42.667 832v42.667h170.667V832h-42.667V490.667h42.667V448H42.667v42.667h42.667V832zm256 0v42.667h170.667V832h-42.667V490.667h42.667V448H298.667v42.667h42.667V832zm256 0v42.667h170.667V832h-42.667V490.667h42.667V448H554.667v42.667h42.667V832zm256 0v42.667h170.667V832h-42.667V490.667h42.667V448H810.667v42.667h42.667V832zM0 917.333h1024V960H0v-42.667zm0 85.333h1024v42.667H0v-42.667z"/></symbol><symbol viewBox="0 0 1024 1024" id="icon-link"><path d="M512 672c0 36.933-14.4 71.733-40.533 98l-64.133 64.133c-54 54-142 54-196 0s-54-142 0-196L275.467 574c26.133-26.133 60.933-40.533 98-40.533H384v-85.333h-10.533c-59.867 0-116 23.333-158.4 65.6l-64.133 64.133c-87.333 87.333-87.333 229.333 0 316.667 43.6 43.6 100.933 65.467 158.4 65.467 57.333 0 114.667-21.867 158.4-65.467l64.133-64.133c42.133-42.4 65.467-98.667 65.467-158.4v-10.667h-85.333v10.667zm361.067-499.734c-87.333-87.333-229.333-87.333-316.667 0l-64.133 64.133c-42.267 42.267-65.6 98.533-65.6 158.267v10.667H512v-10.667c0-36.933 14.4-71.733 40.533-98l64.133-64.133c54-54 142-54 196 0s54 142 0 196l-64.133 64.133c-26.133 26.133-60.933 40.533-98 40.533H640v85.333h10.533c59.867 0 116-23.333 158.4-65.6l64.133-64.133c87.333-87.2 87.333-229.2 0-316.533zM343.138 641.849L620.51 364.477l60.339 60.339-277.372 277.372-60.339-60.339z"/></symbol><symbol viewBox="0 0 1024 1024" id="icon-lock"><path d="M768 448v-85.333c0-68.4-26.667-132.667-74.933-181.067S580.4 106.667 512 106.667 379.333 133.334 330.933 181.6 256 294.267 256 362.667V448c-47.067 0-85.333 38.267-85.333 85.333v341.333c0 47.067 38.267 85.333 85.333 85.333h512c47.067 0 85.333-38.267 85.333-85.333V533.333C853.333 486.266 815.066 448 768 448zm-426.667-85.334c0-94.133 76.533-170.667 170.667-170.667s170.667 76.533 170.667 170.667v85.333H341.334v-85.333zm426.667 512H256V533.333h512v341.333c.133 0 0 0 0 0zM384 661.333c-23.467 0-42.667 19.2-42.667 42.667s19.2 42.667 42.667 42.667 42.667-19.2 42.667-42.667-19.2-42.667-42.667-42.667zM384 704zm128-42.667c-23.467 0-42.667 19.2-42.667 42.667s19.2 42.667 42.667 42.667c23.467 0 42.667-19.2 42.667-42.667s-19.2-42.667-42.667-42.667zM512 704zm128-42.667c-23.467 0-42.667 19.2-42.667 42.667s19.2 42.667 42.667 42.667 42.667-19.2 42.667-42.667-19.2-42.667-42.667-42.667zM640 704z"/></symbol><symbol viewBox="0 0 1024 1024" id="icon-magnifier-check"><path d="M930.267 115.066c-60.4-60.4-140.8-93.733-226.267-93.733s-165.867 33.333-226.267 93.733c-60.4 60.4-93.733 140.8-93.733 226.267C384 412.4 407.067 480 449.6 535.466l-47.867 47.867c-38.267-14.933-83.6-7.067-114.4 23.733L31.066 863.199c-41.467 41.6-41.467 109.333.133 150.933 20.8 20.667 48.133 31.067 75.467 31.067s54.667-10.4 75.333-31.2l256.133-256.133c30.667-30.8 38.667-76 23.733-114.133l48-48c55.467 42.533 123.067 65.6 194.133 65.6 85.467 0 165.867-33.333 226.267-93.733s93.733-140.8 93.733-226.267-33.333-165.867-93.733-226.267zM377.733 697.733l-256 256c-8.267 8.267-21.867 8.267-30.133 0s-8.267-21.867 0-30.133l256-256c4.133-4.133 9.6-6.267 15.067-6.267s10.933 2.133 15.067 6.267c8.267 8.267 8.267 21.733 0 30.133zM704 576c-129.333 0-234.667-105.333-234.667-234.667S574.666 106.666 704 106.666s234.667 105.333 234.667 234.667S833.334 576 704 576zm-42.667-179.467L576 311.2l-30.133 30.133 100.4 100.4c4.133 4.133 9.6 6.267 15.067 6.267s10.933-2.133 15.067-6.267L862.134 256l-30.133-30.133-170.667 170.667z"/></symbol><symbol viewBox="0 0 1024 1024" id="icon-mailbox-full"><path d="M789.333 234.666H384v-42.667h64c11.733 0 21.333-9.6 21.333-21.333v-128c0-11.733-9.6-21.333-21.333-21.333H277.333c-11.733 0-21.333 9.6-21.333 21.333v192H124.4c-8.8-24.8-32.533-42.667-60.4-42.667-35.333 0-64 28.667-64 64v597.333c0 11.733 9.6 21.333 21.333 21.333h85.333c11.733 0 21.333-9.6 21.333-21.333v-21.333h256v192c0 11.733 9.6 21.333 21.333 21.333h213.333c11.733 0 21.333-9.6 21.333-21.333v-192h298.667c47.067 0 85.333-38.267 85.333-85.333V469.333c0-129.333-105.333-234.667-234.667-234.667zM85.333 832H42.666V256c0-11.733 9.6-21.333 21.333-21.333s21.333 9.6 21.333 21.333v576zM384 490.666v128H256v-128h128zM426.667 64v85.333h-64c-11.733 0-21.333 9.6-21.333 21.333v277.333h-42.667v-384h128zm128 938.666h-85.333V831.999h85.333v170.667zm384-256H128V319.999h128v128h-21.333c-11.733 0-21.333 9.6-21.333 21.333v170.667c0 11.733 9.6 21.333 21.333 21.333h170.667c11.733 0 21.333-9.6 21.333-21.333V469.332c0-11.733-9.6-21.333-21.333-21.333h-21.333v-128h405.333c82.4 0 149.333 66.933 149.333 149.333v277.333z"/></symbol><symbol viewBox="0 0 1024 1024" id="icon-map-marker"><path d="M753.333 121.333c-64.4-64.533-150.133-100-241.333-100s-176.933 35.467-241.333 100c-64.533 64.533-100 150.133-100 241.333 0 113.867 52.133 261.067 155.2 437.467C401.067 929.066 475.2 1024.8 478.4 1028.8c8.133 10.4 20.533 16.533 33.733 16.533s25.6-6.133 33.733-16.533c3.067-4 77.333-99.733 152.533-228.667 102.8-176.4 154.933-323.6 154.933-437.467 0-91.2-35.467-176.933-100-241.333zM512 930.666c-76.4-107.2-256-379.333-256-568 0-141.2 114.8-256 256-256s256 114.8 256 256c0 188.667-179.6 460.8-256 568zM512 192c-94.133 0-170.667 76.533-170.667 170.667S417.866 533.334 512 533.334c94.133 0 170.667-76.533 170.667-170.667S606.134 192 512 192zm0 298.666c-70.533 0-128-57.467-128-128s57.467-128 128-128 128 57.467 128 128-57.467 128-128 128z"/></symbol><symbol viewBox="0 0 1024 1024" id="icon-menu"><path d="M85.333 234.666h853.333v85.333H85.333v-85.333zm0 256h853.333v85.333H85.333v-85.333zm0 256h853.333v85.333H85.333v-85.333z"/></symbol><symbol viewBox="0 0 1024 1024" id="icon-menu2"><path d="M512 405.333c-70.533 0-128 57.467-128 128s57.467 128 128 128 128-57.467 128-128-57.467-128-128-128zM512 576c-23.467 0-42.667-19.2-42.667-42.667s19.2-42.667 42.667-42.667c23.467 0 42.667 19.2 42.667 42.667S535.467 576 512 576zm0 170.666c-70.533 0-128 57.467-128 128s57.467 128 128 128 128-57.467 128-128-57.467-128-128-128zm0 170.667c-23.467 0-42.667-19.2-42.667-42.667s19.2-42.667 42.667-42.667c23.467 0 42.667 19.2 42.667 42.667s-19.2 42.667-42.667 42.667zM512 320c70.533 0 128-57.467 128-128S582.533 64 512 64s-128 57.467-128 128 57.467 128 128 128zm0-170.667c23.467 0 42.667 19.2 42.667 42.667s-19.2 42.667-42.667 42.667c-23.467 0-42.667-19.2-42.667-42.667s19.2-42.667 42.667-42.667z"/></symbol><symbol viewBox="0 0 1024 1024" id="icon-money-pouch"><path d="M512 533.333h-42.667v85.333H448c-35.333 0-64 28.667-64 64s28.667 64 64 64h85.333c11.733 0 21.333 9.6 21.333 21.333s-9.6 21.333-21.333 21.333H384v42.667h85.333v85.333H512v-85.333h21.333c35.333 0 64-28.667 64-64s-28.667-64-64-64H448c-11.733 0-21.333-9.6-21.333-21.333s9.6-21.333 21.333-21.333h149.333v-42.667H512v-85.333zm376.933-293.2c-41.067-37.067-89.2-53.467-139.2-47.2-49.733 6.267-94.267 33.733-124.8 64.533-6.8-8-15.467-14.4-25.333-18.267 4.4-16.933 15.067-37.067 30.8-58.133 18.667-24.933 37.867-42.533 38-42.667 9.733-8.667 14.8-21.467 14-34.4a42.301 42.301 0 00-18.267-32.267c-48.667-33.733-85.867-49.067-120.8-49.733-35.467-.667-60.8 14.533-81.2 26.8-27.333 16.4-51.067 30.533-111.333 16.533-18.533-4.267-37.733 4.133-46.933 20.8-9.333 16.667-6.4 37.467 7.067 50.933 25.467 25.6 59.867 70.267 70 102.667-23.2 9.333-39.6 32.267-39.6 58.933 0 24 13.333 44.933 32.933 55.867-24.4 48.667-64.133 99.867-102.667 149.6-70.667 91.333-143.6 185.6-143.6 285.2 0 39.067 9.2 75.333 27.2 108 17.6 31.867 43.333 59.467 76.533 82 63.6 43.2 153.2 66 258.933 66s195.333-22.8 258.933-66c33.067-22.533 58.8-50 76.533-82 18-32.667 27.2-68.933 27.2-108 0-99.6-72.933-193.867-143.6-285.067-38.533-49.867-78.267-101.067-102.667-149.6 14-7.867 24.8-20.667 29.867-36.133 65.2-3.867 108.667 20.533 133.067 74.4l8.8 19.467 38.933-17.6-8.8-19.467c-20.133-44.8-51.6-74.933-93.467-89.6-14.667-5.2-30.4-8.4-47.333-9.6 23.333-19.733 54.133-36.4 87.067-40.533 37.867-4.8 73.333 7.467 105.333 36.4l15.867 14.267 28.667-31.6-16.133-14.533zM576 320H405.333C393.6 320 384 310.4 384 298.667s9.6-21.333 21.333-21.333H576c11.733 0 21.333 9.6 21.333 21.333 0 11.733-9.6 21.333-21.333 21.333zm-69.867-198.134c16.667-10 25.2-14.8 35.733-14.667 8.267.133 18.533 3.2 30.933 8.933-24.4 29.867-52.133 72.667-59.2 118.533h-46.267c-4.267-24.933-16-52.4-34.8-81.867 32.267-6.133 54.933-19.733 73.6-30.933zM768 789.333C768 894.666 661.733 960 490.667 960s-277.333-65.333-277.333-170.667c0-70.4 63.867-152.933 125.733-232.8C387.6 493.866 437.6 429.2 464.134 362.666h53.067c26.533 66.533 76.667 131.2 125.067 193.867 61.867 79.867 125.733 162.4 125.733 232.8z"/></symbol><symbol viewBox="0 0 1024 1024" id="icon-mouse-click-both"><path d="M725.333 192h-42.667V21.333h42.667V192zm128 128v42.667H1024V320H853.333zm64-222.134L801.866 213.333l30.133 30.133 115.467-115.467-30.133-30.133zm-576 94.134h-42.667V21.333h42.667V192zM0 362.666h170.667v-42.667H0v42.667zm106.667-264.8l-30.133 30.133 115.467 115.467 30.133-30.133L106.667 97.866zM576 234.666H448.667c-62.533 0-121.467 24.4-165.733 68.533-44.267 44.267-68.8 103.067-68.933 165.6l-.667 277.733v.133c0 79.6 31.067 154.533 87.333 210.933s131.067 87.467 210.8 87.733H512c78.8 0 153.2-31.067 209.733-87.467 27.733-27.733 49.6-60 64.933-96 15.867-37.333 24-76.8 24-117.333v-275.2c0-129.333-105.333-234.667-234.667-234.667zm149.333 509.867c0 57.467-22.667 111.733-63.867 152.933-40.4 40.267-93.467 62.533-149.467 62.533h-.4c-117.333-.267-212.933-95.867-212.933-213.333l.667-277.6c.267-82.133 67.2-149.067 149.333-149.067h127.333c82.4 0 149.333 66.933 149.333 149.333v275.2zM512 362.666c-47.067 0-85.333 38.267-85.333 85.333v85.333c0 47.067 38.267 85.333 85.333 85.333s85.333-38.267 85.333-85.333v-85.333c0-47.067-38.267-85.333-85.333-85.333zm42.667 170.667C554.667 556.8 535.467 576 512 576s-42.667-19.2-42.667-42.667V448c0-23.467 19.2-42.667 42.667-42.667s42.667 19.2 42.667 42.667v85.333z"/></symbol><symbol viewBox="0 0 512 512" id="icon-mozart"><path d="M476.262 338.401V50.742c0-33.328-31.776-57.695-64.01-48.95L193.56 61.161c-33.638 9.132-57.133 39.853-57.133 74.71V364.11a141.126 141.126 0 00-20.085 3.637c-54.398 13.938-89.142 55.576-79.095 94.789C44.946 492.585 76.665 512 118.056 512c60.678 0 118.948-42.17 114.703-90.452V186.056l147.172-39.95v134.856a141.126 141.126 0 00-20.085 3.637c-53.887 13.806-89.144 55.584-79.095 94.788 7.697 30.047 39.417 49.462 80.808 49.464h.007c60.547 0 118.944-42.087 114.696-90.45zm-114.697 56.908h-.004c-24.792-.001-44.661-9.971-48.318-24.247-4.968-19.388 19.271-44.832 54.928-53.97 9.44-2.417 18.96-3.531 28.116-3.31 9.538.195 17.187-7.424 17.187-16.766V124.174a16.77 16.77 0 00-21.165-16.187l-180.715 49.056a16.774 16.774 0 00-12.378 16.187c0 263.771-.048 249.563.093 250.882 2.464 23.322-34.808 54.344-81.252 54.344-24.79 0-44.659-9.97-48.317-24.246-4.537-17.708 16.906-44.228 54.928-53.97 9.075-2.325 18.548-3.541 28.115-3.311 9.347.252 17.187-7.293 17.187-16.766V135.871c0-19.754 13.313-37.163 32.377-42.339L421.04 34.166c10.748-2.924 21.679 5.146 21.679 16.577 0 305.388-.051 288.866.093 290.223 2.464 23.341-34.842 54.343-81.247 54.343z"/></symbol><symbol viewBox="0 0 1024 1024" id="icon-newsletters"><path d="M256 192h128v42.667H256V192zm0 85.333h128V320H256v-42.667zm0 256h341.333V576H256v-42.667zm0 85.333h298.667v42.667H256v-42.667zm0-256h128v42.667H256v-42.667zM576 192H448c-11.733 0-21.333 9.6-21.333 21.333V384c0 11.733 9.6 21.333 21.333 21.333h128c11.733 0 21.333-9.6 21.333-21.333V213.333c0-11.733-9.6-21.333-21.333-21.333zm-21.333 170.666h-85.333v-128h85.333v128zM256 448h341.333v42.667H256V448zm597.333-213.334c0-47.067-38.267-85.333-85.333-85.333v-42.667c0-47.067-38.267-85.333-85.333-85.333h-512c-47.067 0-85.333 38.267-85.333 85.333v682.667c0 47.067 38.267 85.333 85.333 85.333h42.667c0 47.067 38.267 85.333 85.333 85.333 0 47.067 38.267 85.333 85.333 85.333h469.333c47.067 0 85.333-38.267 85.333-85.333v-640c0-47.067-38.267-85.333-85.333-85.333zM170.667 789.333V106.666h512l.133 682.667H170.667zM256 874.666h426.667c47.067 0 85.333-38.267 85.333-85.333V192c23.467 0 42.667 19.2 42.667 42.667v640c0 23.467-19.2 42.667-42.667 42.667H298.667c-23.467 0-42.667-19.2-42.667-42.667zM896 960c0 23.467-19.2 42.667-42.667 42.667H384c-23.467 0-42.667-19.2-42.667-42.667H768c47.067 0 85.333-38.267 85.333-85.333V277.334c23.467 0 42.667 19.2 42.667 42.667v640z"/></symbol><symbol viewBox="0 0 1024 1024" id="icon-paper"><path d="M810.667 21.333H213.334c-47.067 0-85.333 38.267-85.333 85.333v853.333c0 47.067 38.267 85.333 85.333 85.333h597.333c47.067 0 85.333-38.267 85.333-85.333V106.666c0-47.067-38.267-85.333-85.333-85.333zm0 938.667H213.334V106.667h597.333V960zm-512-768h426.667v42.667H298.667V192zm0 85.333h170.667V320H298.667v-42.667zm0 170.667h170.667v42.667H298.667V448zm0 85.333h170.667V576H298.667v-42.667zm0-170.667h170.667v42.667H298.667v-42.667zm0 298.667h426.667V704H298.667v-42.667zm0 85.333H640v42.667H298.667v-42.667zm0 85.334h426.667v42.667H298.667V832zm256-554.667h170.667V320H554.667v-42.667zm0 170.667h170.667v42.667H554.667V448zm0 85.333h170.667V576H554.667v-42.667zm0-170.667h170.667v42.667H554.667v-42.667z"/></symbol><symbol viewBox="0 0 1024 1024" id="icon-pen-drawing"><path d="M1011.467 375.2L840.8 204.533c-14.533-14.533-37.2-16.667-54.133-5.067-59.867 40.667-159.733 97.067-244.267 122.4-16.533 4.933-28.533 19.333-30.267 36.533-10 98.267-60.133 283.733-123.733 412-4.533 9.2-5.6 19.333-3.333 28.8-34.933 32.8-82.4 56.8-134.667 68.133-52 11.2-103.867 8.533-142.267-7.333-29.867-12.4-65.467-38.533-65.467-93.2 0-64 53.733-153.067 105.733-239.067 70.533-116.8 137.067-227.067 94-303.333-14.267-25.333-40-44.4-76.4-56.667-36.4-12.4-83.733-18.4-144.667-18.4H-.001v42.667h21.333c102.133 0 164 18 184 53.333 30.8 54.667-32.267 159.2-93.467 260.267C56.932 596.799-.002 690.932-.002 766.799c0 60.933 32.667 108.133 91.867 132.667 28.133 11.733 60.933 17.6 95.733 17.6 23.2 0 47.467-2.667 71.867-8 59.733-12.933 114.533-40.8 154.933-78.8 4 1.2 8.133 1.733 12.267 1.733 6.4 0 12.933-1.467 18.933-4.4 128.267-63.733 313.733-113.867 412-123.733 17.2-1.733 31.6-13.733 36.533-30.267 25.333-84.533 81.733-184.4 122.4-244.267 11.6-16.933 9.467-39.733-5.067-54.133zM821.2 622.4c-52.267 7.6-117.867 22.4-184.8 42.133-27.333 8-54.267 16.667-80.267 25.6L719.2 527.066c8.4 4 17.733 6.267 27.6 6.267 35.333 0 64-28.667 64-64s-28.667-64-64-64-64 28.667-64 64c0 9.867 2.267 19.2 6.267 27.6l-163.2 162.933c9.067-26 17.6-52.933 25.6-80.267 19.6-66.933 34.533-132.533 42.133-184.8 73.733-26 153.067-68.667 211.333-105.467l121.733 121.733c-36.8 58.267-79.467 137.6-105.467 211.333zm-95.867-153.067c0-11.733 9.6-21.333 21.333-21.333s21.333 9.6 21.333 21.333-9.6 21.333-21.333 21.333-21.333-9.6-21.333-21.333z"/></symbol><symbol viewBox="0 0 1024 1024" id="icon-photo-album"><path d="M853.333 234.666c0-47.067-38.267-85.333-85.333-85.333C768 102.266 729.733 64 682.667 64H341.334c-47.067 0-85.333 38.267-85.333 85.333-47.067 0-85.333 38.267-85.333 85.333-47.067 0-85.333 38.267-85.333 85.333v597.333c0 47.067 38.267 85.333 85.333 85.333h682.667c47.067 0 85.333-38.267 85.333-85.333V319.999c0-47.067-38.267-85.333-85.333-85.333zm-512-128h341.333c23.467 0 42.667 19.2 42.667 42.667H298.666c0-23.467 19.2-42.667 42.667-42.667zM256 192h512c23.467 0 42.667 19.2 42.667 42.667H213.334c0-23.467 19.2-42.667 42.667-42.667zm597.333 725.333H170.666V320h682.667v597.333c.133 0 0 0 0 0zm-106.666-512H277.334c-11.733 0-21.333 9.6-21.333 21.333v384c0 11.733 9.6 21.333 21.333 21.333h469.333c11.733 0 21.333-9.6 21.333-21.333v-384c0-11.733-9.6-21.333-21.333-21.333zm-448 42.667h426.667v220.533L700.401 643.6c-33.333-33.2-87.467-33.2-120.667 0L434.001 789.333H298.668V448zm195.6 341.333l115.6-115.6c16.533-16.533 43.733-16.533 60.4 0l55.067 55.067v60.533H494.267zm-24.934-234.667c0-35.333-28.667-64-64-64s-64 28.667-64 64 28.667 64 64 64 64-28.667 64-64zm-85.333 0c0-11.733 9.6-21.333 21.333-21.333s21.333 9.6 21.333 21.333-9.6 21.333-21.333 21.333S384 566.399 384 554.666z"/></symbol><symbol viewBox="0 0 1024 1024" id="icon-picture2"><path d="M938.667 21.333H85.334C38.267 21.333.001 59.6.001 106.666v853.333c0 47.067 38.267 85.333 85.333 85.333h853.333c47.067 0 85.333-38.267 85.333-85.333V106.666c0-47.067-38.267-85.333-85.333-85.333zm0 938.667H85.334l-.133-853.333h853.466V960zM149.333 746.666h725.333c11.733 0 21.333-9.6 21.333-21.333V170.666c0-11.733-9.6-21.333-21.333-21.333H149.333c-11.733 0-21.333 9.6-21.333 21.333v554.667c0 11.733 9.6 21.333 21.333 21.333zM451.6 704l286.267-286.267c16.533-16.533 43.733-16.533 60.4 0l55.067 55.067V704H451.601zm401.733-512v220.533L828.4 387.6c-33.333-33.2-87.467-33.2-120.667 0L391.333 704H195.6l200.933-200.933c16.533-16.533 43.733-16.533 60.4 0L496 542.134l30.133-30.133-39.067-39.067c-33.333-33.2-87.467-33.2-120.667 0L170.666 668.667V192h682.667zM298.667 405.333C345.734 405.333 384 367.066 384 320s-38.267-85.333-85.333-85.333-85.333 38.267-85.333 85.333 38.267 85.333 85.333 85.333zm0-128c23.467 0 42.667 19.2 42.667 42.667s-19.2 42.667-42.667 42.667S256 343.467 256 320s19.2-42.667 42.667-42.667zM341.333 832h341.333v42.667H341.333V832z"/></symbol><symbol viewBox="0 0 1024 1024" id="icon-pushpin"><path d="M1011.467 247.2L798.134 33.867c-12.933-12.933-32.8-16.267-49.2-8l-85.333 42.667c-14.533 7.2-23.6 22-23.6 38.133v61.2L467.468 271.334l-64.4-32.133c-16.4-8.267-36.267-4.933-49.2 8l-85.333 85.333c-16.667 16.667-16.667 43.733 0 60.4l135.733 135.733L5.601 966.934c-3.6 4-5.6 9.067-5.6 14.4v42.667c0 11.733 9.6 21.333 21.333 21.333h42.667c5.333 0 10.4-2 14.4-5.6l438.533-398.667L652.667 776.8c8.267 8.267 19.2 12.533 30.133 12.533s21.867-4.133 30.133-12.533l85.333-85.333c12.933-12.933 16.267-32.8 8-49.2l-32.133-64.4 103.333-172.533h61.2c16.133 0 30.933-9.067 38.133-23.6l42.667-85.333c8.267-16.4 5.067-36.267-8-49.2zM55.733 1002.666H42.666v-13.067l391.733-430.933 52.267 52.267-430.933 391.733zM912.267 320h-58.933c-14.933 0-28.933 7.867-36.533 20.667L688.801 554c-7.467 12.533-8.133 28-1.6 41.067l28.933 57.867-33.467 33.333-323.6-323.6 33.467-33.467 57.867 28.933c13.067 6.533 28.533 5.867 41.067-1.6l213.333-128c12.8-7.733 20.667-21.6 20.667-36.533v-58.933L759.735 116l169.867 169.867L912.269 320zm-363.819 61.795l156.98-116.027 25.361 34.313-156.98 116.027-25.361-34.313z"/></symbol><symbol viewBox="0 0 1024 1024" id="icon-search"><path d="M930.267 115.066c-60.4-60.4-140.8-93.733-226.267-93.733s-165.867 33.333-226.267 93.733c-60.4 60.4-93.733 140.8-93.733 226.267C384 412.4 407.067 480 449.6 535.466l-48 48c-38.267-14.933-83.6-7.067-114.4 23.733l-256.133 256c-41.467 41.6-41.467 109.333.133 150.933 20.8 20.667 48.133 31.067 75.467 31.067s54.667-10.4 75.333-31.2l256.133-256.133c30.667-30.8 38.667-76 23.733-114.133l48-48c55.467 42.533 123.067 65.6 194.133 65.6 85.467 0 165.867-33.333 226.267-93.733s93.733-140.8 93.733-226.267-33.333-165.867-93.733-226.267zM377.733 697.733l-256 256c-8.267 8.267-21.867 8.267-30.133 0s-8.267-21.867 0-30.133l256-256c4.133-4.133 9.6-6.267 15.067-6.267s10.933 2.133 15.067 6.267c8.267 8.267 8.267 21.733 0 30.133zM704 576c-129.333 0-234.667-105.333-234.667-234.667S574.666 106.666 704 106.666s234.667 105.333 234.667 234.667S833.334 576 704 576zm149.333-256v21.333c0 82.4-66.933 149.333-149.333 149.333h-21.333v42.667H704c105.867 0 192-86.133 192-192V320h-42.667z"/></symbol><symbol viewBox="0 0 1024 1024" id="icon-send-backward"><path d="M938.667 362.666h-384c-47.067 0-85.333 38.267-85.333 85.333v170.667c0 47.067 38.267 85.333 85.333 85.333h384c47.067 0 85.333-38.267 85.333-85.333V447.999c0-47.067-38.267-85.333-85.333-85.333zm0 256h-384V447.999h384v170.667zm64 170.667h-512c-11.733 0-21.333 9.6-21.333 21.333v213.333c0 11.733 9.6 21.333 21.333 21.333h512c11.733 0 21.333-9.6 21.333-21.333V810.666c0-11.733-9.6-21.333-21.333-21.333zm-21.334 213.333H512V831.999h469.333v170.667zm21.334-981.333h-512c-11.733 0-21.333 9.6-21.333 21.333v213.333c0 11.733 9.6 21.333 21.333 21.333h512c11.733 0 21.333-9.6 21.333-21.333V42.666c0-11.733-9.6-21.333-21.333-21.333zm-21.334 213.333H512V63.999h469.333v170.667zm-768 238.267v-451.6H128v451.6l-65.867-65.867-60.267 60.4 138.667 138.667c8.267 8.267 19.2 12.533 30.133 12.533s21.867-4.133 30.133-12.533l138.667-138.667-60.4-60.4-65.733 65.867z"/></symbol><symbol viewBox="0 0 1024 1024" id="icon-signal"><path d="M938.667 192h-85.333c-23.6 0-42.667 19.067-42.667 42.667V1024c0 11.733 9.6 21.333 21.333 21.333h128c11.733 0 21.333-9.6 21.333-21.333V234.667c0-23.6-19.067-42.667-42.667-42.667zm-85.334 810.666V277.333H896v725.333h-42.667zM682.667 533.333h-85.333c-23.6 0-42.667 19.067-42.667 42.667v448c0 11.733 9.6 21.333 21.333 21.333h128c11.733 0 21.333-9.6 21.333-21.333V576c0-23.6-19.067-42.667-42.667-42.667zm-85.334 469.333v-384H640v384h-42.667zm-170.666-256h-85.333c-23.6 0-42.667 19.067-42.667 42.667V1024c0 11.733 9.6 21.333 21.333 21.333h128c11.733 0 21.333-9.6 21.333-21.333V789.333c0-23.6-19.067-42.667-42.667-42.667zm-85.334 256V831.999H384v170.667h-42.667zm-170.666-128H85.334c-23.6 0-42.667 19.067-42.667 42.667V1024c0 11.733 9.6 21.333 21.333 21.333h128c11.733 0 21.333-9.6 21.333-21.333V917.333c0-23.6-19.067-42.667-42.667-42.667zm-85.334 128v-42.667H128v42.667H85.333z"/></symbol><symbol viewBox="0 0 1024 1024" id="icon-spinner4"><path d="M983.733 334C958 273.067 921.066 218.267 874 171.2S772.267 87.333 711.2 61.467C648.133 34.934 581.067 21.334 512 21.334s-136.133 13.6-199.333 40.267c-60.933 25.733-115.733 62.667-162.8 109.733S66 273.067 40.134 334.134C13.601 397.201.001 464.267.001 533.334s13.6 136.133 40.267 199.333c25.733 60.933 62.667 115.733 109.733 162.8s101.733 83.867 162.8 109.733c63.2 26.667 130.133 40.267 199.333 40.267 69.067 0 136.133-13.6 199.333-40.267 60.933-25.733 115.733-62.667 162.8-109.733S958.134 793.734 984 732.667c26.667-63.2 40.267-130.133 40.267-199.333-.267-69.067-13.867-136.133-40.533-199.333zM512 1002.666c-258.8 0-469.333-210.533-469.333-469.333S253.2 64 512 64c258.8 0 469.333 210.533 469.333 469.333S770.8 1002.666 512 1002.666zM512 192v-85.333c-114 0-221.2 44.4-301.733 124.933S85.334 419.333 85.334 533.333h85.333C170.667 345.066 323.734 192 512 192zm0 42.666c-79.733 0-154.8 31.067-211.2 87.467s-87.467 131.467-87.467 211.2c0 79.733 31.067 154.8 87.467 211.2S432.267 832 512 832c79.733 0 154.8-31.067 211.2-87.467s87.467-131.467 87.467-211.2c0-79.733-31.067-154.8-87.467-211.2S591.733 234.666 512 234.666zm0 554.667c-141.2 0-256-114.8-256-256s114.8-256 256-256 256 114.8 256 256-114.8 256-256 256z"/></symbol><symbol viewBox="0 0 1024 1024" id="icon-star"><path d="M1022.667 437.333a42.508 42.508 0 00-33.333-31.2l-308.133-59.067-130-300c-6.8-15.6-22.133-25.733-39.2-25.733s-32.4 10.133-39.2 25.733l-130 300-308.133 59.067c-16.267 3.067-29.2 15.2-33.333 31.2s1.333 32.933 14 43.467l235.467 196.133-78.8 315.333c-4.133 16.533 2 34 15.6 44.4 13.6 10.267 32.133 11.467 46.933 3.067L512.002 881.2l277.467 158.533c6.533 3.733 13.867 5.6 21.2 5.6 9.067 0 18.133-2.933 25.733-8.667 13.6-10.267 19.733-27.733 15.6-44.4l-78.8-315.333L1008.669 480.8c12.667-10.533 18.133-27.467 14-43.467zM698 628.533c-12.533 10.533-18 27.2-14.133 43.067l61.2 244.4L533.2 794.933c-6.533-3.733-13.867-5.6-21.2-5.6s-14.667 1.867-21.2 5.6L278.933 916 340 671.733c4-15.867-1.467-32.667-14.133-43.067L139.2 472.933l241.733-46.4A42.6 42.6 0 00412 401.6l100-230.267 99.867 230.4a42.599 42.599 0 0031.067 24.933l241.733 46.4L698 628.533z"/></symbol><symbol viewBox="0 0 1024 1024" id="icon-stop2"><path d="M1011.467 308.8L736.534 33.867c-8-8-18.8-12.533-30.133-12.533h-388.8c-11.333 0-22.133 4.533-30.133 12.533L12.535 308.8c-8 8-12.533 18.8-12.533 30.133v388.8c0 11.333 4.533 22.133 12.533 30.133l274.933 274.933c8 8 18.8 12.533 30.133 12.533h388.8c11.333 0 22.133-4.533 30.133-12.533l274.933-274.933c8-8 12.533-18.8 12.533-30.133v-388.8c0-11.333-4.533-22.133-12.533-30.133zm-72.8 401.2l-250 250H335.334l-250-250V356.667l250-250h353.467l249.867 250V710zm-256-367.734c0-17.467-7.2-34.4-19.733-46.667-12.4-12.133-28.667-18.667-45.733-18.267-7.733.133-15.2 1.733-22.267 4.4-7.333-27.067-32.133-47.067-61.6-47.067s-54.4 20-61.733 47.2c-7.333-2.933-15.2-4.533-23.6-4.533-35.333 0-64 28.667-64 64v24.933c-6.4-2.267-13.067-3.467-20-3.6-17.067-.4-33.333 6.133-45.733 18.267-12.533 12.267-19.733 29.2-19.733 46.667v148.4c0 75.467 13.467 139.067 38.8 183.867 26.4 46.533 65.6 72.133 110.533 72.133h142.133c51.867 0 98.933-28.533 122.933-74.533l90-172.533c.133-.267.267-.4.4-.667 5.333-10.267 7.733-21.733 7.067-33.333-1.867-32-27.333-57.867-59.333-60-21.733-1.467-42.667 8-55.733 25.467l-12.667 16.933V342.266zm46.933 199.6c4.4-5.867 11.333-8.933 18.667-8.533 10.4.667 19.067 9.467 19.733 20 .267 3.733-.533 7.333-2.133 10.667-.133.133-.133.267-.267.4l-90.267 173.2c-16.667 32-49.2 51.733-85.2 51.733H448c-37.067 0-60.4-27.467-73.467-50.533-21.733-38.4-33.2-94.667-33.2-162.8V427.6c0-6 2.533-11.867 6.8-16.267 4.133-4 9.467-6.267 14.933-6.133 11.733.267 20.8 9.6 20.8 21.333v149.333h42.667V341.333c0-11.733 9.6-21.333 21.333-21.333s21.333 9.6 21.333 21.333v192h42.667V298.666c0-11.733 9.6-21.333 21.333-21.333s21.333 9.6 21.333 21.333v234.667h42.667v-192c0-11.733 9.2-21.067 20.8-21.333 5.6-.133 10.8 2 14.933 6.133 4.4 4.267 6.8 10.133 6.8 16.267v254.933c0 9.2 5.867 17.333 14.533 20.267s18.267-.133 23.867-7.467l51.467-68.267z"/></symbol><symbol viewBox="0 0 1024 1024" id="icon-stopwatch"><path d="M868 383.2c1.067-.933 2-1.867 3.067-2.933 33.333-33.333 33.333-87.467 0-120.667-16.133-16-37.6-24.933-60.4-24.933s-44.267 8.933-60.4 24.933c-.933.933-2 2-2.933 3.067-57.6-38.267-123.333-61.733-192.8-68.533v-44.8h21.333c35.333 0 64-28.667 64-64s-28.533-64-63.867-64H448c-35.333 0-64 28.667-64 64s28.667 64 64 64h21.333v44.8c-97.867 9.6-188.533 52.4-259.067 122.933-80.533 80.533-124.933 187.6-124.933 301.6s44.4 221.067 124.933 301.733c80.667 80.533 187.733 124.933 301.733 124.933s221.067-44.4 301.733-124.933c80.533-80.667 124.933-187.733 124.933-301.733 0-85.067-24.667-166.267-70.667-235.467zM426.667 85.333C426.667 73.6 436.267 64 448 64h128c11.733 0 21.333 9.6 21.333 21.333s-9.6 21.333-21.333 21.333H448c-11.733 0-21.333-9.6-21.333-21.333zm384 192c11.333 0 22.133 4.4 30.133 12.533 16.133 16.133 16.667 42 1.467 58.8-8.933-10.933-18.533-21.467-28.667-31.6s-20.667-19.733-31.6-28.667c8-7.2 18-11.067 28.667-11.067zM512 960c-188.267 0-341.333-153.067-341.333-341.333S323.734 277.334 512 277.334c188.267 0 341.333 153.067 341.333 341.333S700.266 960 512 960zm84-356.934l-42-247.733v-.4c-3.733-20.267-21.467-35.067-42-35.067s-38.133 14.533-41.867 34.667L428 603.066a90.24 90.24 0 00-1.333 15.6c0 47.067 38.267 85.333 85.333 85.333s85.333-38.267 85.333-85.333c0-4.933-.533-10.133-1.333-15.6zm-84 58.267c-23.467 0-42.667-19.2-42.667-42.667 0-2.667.267-5.467.8-8.4l41.733-247.6v.133l41.867 246.933h-.133c.667 3.2.933 6.267.933 8.933.133 23.467-19.067 42.667-42.533 42.667z"/></symbol><symbol viewBox="0 0 1024 1024" id="icon-text-color"><path d="M85.333 1002.666h853.333v42.667H85.333v-42.667zm242-426.666h369.2l128.533 284.267 77.733-35.2-352-778.667c-6.8-15.2-22-25.067-38.8-25.067s-32 9.867-38.933 25.067l-352 778.667 77.733 35.2L327.332 576zM512 167.6l146 323.067H366L512 167.6z"/></symbol><symbol viewBox="0 0 1024 1024" id="icon-toggle-on2"><path d="M810.667 320H507.734c-56.133-55.067-130.267-85.333-209.067-85.333-79.733 0-154.8 31.067-211.2 87.467S0 453.601 0 533.334c0 79.733 31.067 154.8 87.467 211.2s131.467 87.467 211.2 87.467c78.8 0 152.933-30.267 209.067-85.333h302.933c117.6 0 213.333-95.733 213.333-213.333s-95.733-213.333-213.333-213.333zm-512 426.666c-117.6 0-213.333-95.733-213.333-213.333S181.067 320 298.667 320 512 415.733 512 533.333s-95.733 213.333-213.333 213.333zm512-42.666h-266.8c34.8-49.733 53.467-108.8 53.467-170.667S578.667 412.4 543.867 362.666h266.8c94.133 0 170.667 76.533 170.667 170.667S904.801 704 810.667 704zM128 533.333h42.667c0-70.533 57.467-128 128-128v-42.667C204.534 362.666 128 439.199 128 533.333z"/></symbol><symbol viewBox="0 0 1024 1024" id="icon-ul2"><path d="M298.667 234.666h682.667v85.333H298.667v-85.333zm0 256h682.667v85.333H298.667v-85.333zm0 256h682.667v85.333H298.667v-85.333zM128 192c-47.067 0-85.333 38.267-85.333 85.333S80.934 362.666 128 362.666s85.333-38.267 85.333-85.333S175.066 192 128 192zm0 128c-23.467 0-42.667-19.2-42.667-42.667s19.2-42.667 42.667-42.667 42.667 19.2 42.667 42.667S151.467 320 128 320zm0 128c-47.067 0-85.333 38.267-85.333 85.333S80.934 618.666 128 618.666s85.333-38.267 85.333-85.333C213.333 486.266 175.066 448 128 448zm0 128c-23.467 0-42.667-19.2-42.667-42.667s19.2-42.667 42.667-42.667 42.667 19.2 42.667 42.667C170.667 556.8 151.467 576 128 576zm0 128c-47.067 0-85.333 38.267-85.333 85.333S80.934 874.666 128 874.666s85.333-38.267 85.333-85.333S175.066 704 128 704zm0 128c-23.467 0-42.667-19.2-42.667-42.667s19.2-42.667 42.667-42.667 42.667 19.2 42.667 42.667S151.467 832 128 832z"/></symbol><symbol viewBox="0 0 1024 1024" id="icon-user"><path d="M512 618.666c141.2 0 256-114.8 256-256s-114.8-256-256-256-256 114.8-256 256 114.8 256 256 256zM512 192c94.133 0 170.667 76.533 170.667 170.667S606.134 533.334 512 533.334c-94.133 0-170.667-76.533-170.667-170.667S417.866 192 512 192zm328.933 557.6C782 690.133 674.4 661.333 512 661.333s-270 28.8-328.933 88.267C128 805.067 128 872.667 128 917.333v21.333c0 11.733 9.6 21.333 21.333 21.333h725.333c11.733 0 21.333-9.6 21.333-21.333v-21.333c0-44.667 0-112.267-55.067-167.733zm-627.6 167.733c0-37.867 0-77.2 30.267-107.6 18-18.133 45.733-32.533 82.667-42.933C373.467 753.467 436 746.667 512 746.667s138.533 6.8 185.733 20.133c36.933 10.4 64.667 24.8 82.667 42.933 30.267 30.4 30.267 69.733 30.267 107.6H213.334z"/></symbol><symbol viewBox="0 0 1024 1024" id="icon-warning-circle"><path d="M983.733 334C958 273.067 921.066 218.267 874 171.333 826.933 124.266 772.267 87.466 711.333 61.6 648.133 34.933 581.066 21.333 512 21.333S375.867 34.933 312.667 61.6C251.734 87.333 196.934 124.267 150 171.333 102.933 218.4 66.133 273.066 40.267 334 13.6 397.2 0 464.267 0 533.333s13.6 136.133 40.267 199.333C66 793.599 102.934 848.399 150 895.333c47.067 47.067 101.733 83.867 162.667 109.733 63.2 26.667 130.267 40.267 199.333 40.267s136.133-13.6 199.333-40.267C772.266 979.333 827.066 942.399 874 895.333c47.067-47.067 83.867-101.733 109.733-162.667C1010.4 669.466 1024 602.399 1024 533.333S1010.4 397.2 983.733 334zM512 960C276.8 960 85.333 768.533 85.333 533.333S276.8 106.666 512 106.666c235.2 0 426.667 191.467 426.667 426.667S747.2 960 512 960zm0-810.667c-102.533 0-199.067 40-271.467 112.533S128 430.799 128 533.333 168 732.4 240.533 804.8c72.4 72.533 168.933 112.533 271.467 112.533s199.067-40 271.467-112.533C856 732.4 896 635.867 896 533.333s-40-199.067-112.533-271.467C711.067 189.333 614.534 149.333 512 149.333zm0 725.333c-188.267 0-341.333-153.067-341.333-341.333S323.734 192 512 192c188.267 0 341.333 153.067 341.333 341.333S700.266 874.666 512 874.666zm-42.667-597.333h85.333v341.333h-85.333V277.333zm0 426.667h85.333v85.333h-85.333V704z"/></symbol><symbol viewBox="0 0 1024 1024" id="icon-window-tab"><path d="M938.667 64H85.334C38.267 64 .001 102.267.001 149.333v768c0 47.067 38.267 85.333 85.333 85.333h853.333c47.067 0 85.333-38.267 85.333-85.333v-768C1024 102.266 985.733 64 938.667 64zm0 85.333V320H890l-37.867-113.467A21.39 21.39 0 00831.866 192H575.999c-9.2 0-17.333 5.867-20.267 14.533L517.999 320H85.332V149.333h853.333zm0 213.333v469.333H85.334V362.666h448c9.2 0 17.333-5.867 20.267-14.533l37.867-113.467h225.2l37.867 113.467a21.39 21.39 0 0020.267 14.533h63.867zm0 554.667H85.334v-42.667h853.467l-.133 42.667c.133 0 0 0 0 0zM213.333 234.666c0 23.564-19.103 42.667-42.667 42.667s-42.667-19.103-42.667-42.667 19.103-42.667 42.667-42.667 42.667 19.103 42.667 42.667zm128 0c0 23.564-19.103 42.667-42.667 42.667s-42.667-19.103-42.667-42.667 19.103-42.667 42.667-42.667 42.667 19.103 42.667 42.667zm128 0c0 23.564-19.103 42.667-42.667 42.667s-42.667-19.103-42.667-42.667 19.103-42.667 42.667-42.667 42.667 19.103 42.667 42.667z"/></symbol></svg>