<svg xmlns="http://www.w3.org/2000/svg" xmlns:xlink="http://www.w3.org/1999/xlink" width="500" zoomAndPan="magnify" viewBox="0 0 375 374.999991" height="500" preserveAspectRatio="xMidYMid meet" version="1.0"><defs><clipPath id="6dd552a9ab"><path d="M 73 14 L 302 14 L 302 361.222656 L 73 361.222656 Z M 73 14 " clip-rule="nonzero"/></clipPath></defs><path fill="#ff172a" d="M 232.019531 255.402344 L 245.035156 246.769531 L 256.191406 273.894531 L 252.257812 340.269531 L 230.195312 281.382812 L 232.019531 255.402344 " fill-opacity="1" fill-rule="nonzero"/><path fill="#000000" d="M 231.128906 281.246094 L 251.597656 335.871094 L 255.257812 274.050781 L 244.609375 248.160156 L 232.90625 255.921875 Z M 252.921875 344.671875 L 229.261719 281.519531 L 231.128906 254.886719 L 245.464844 245.382812 L 257.125 273.738281 L 257.109375 273.949219 L 252.921875 344.671875 " fill-opacity="1" fill-rule="nonzero"/><path fill="#ffb073" d="M 147.398438 182.074219 L 145.035156 200.574219 C 145.035156 200.574219 164.664062 225.8125 176.910156 232.039062 C 189.152344 238.265625 200.808594 237.941406 200.808594 237.941406 L 169.832031 189.296875 L 160.808594 174.859375 L 147.398438 182.074219 " fill-opacity="1" fill-rule="nonzero"/><path fill="#000000" d="M 145.996094 200.308594 C 148.257812 203.167969 166.121094 225.515625 177.328125 231.214844 C 186.378906 235.820312 195.191406 236.777344 198.925781 236.972656 C 198.984375 236.976562 199.042969 236.980469 199.101562 236.984375 L 169.054688 189.792969 L 160.484375 176.082031 L 148.25 182.660156 Z M 198.652344 238.816406 C 194.667969 238.609375 185.800781 237.59375 176.492188 232.859375 C 164.203125 226.613281 145.113281 202.175781 144.304688 201.140625 L 144.070312 200.835938 L 146.542969 181.484375 L 161.132812 173.636719 L 170.613281 188.808594 L 202.460938 238.820312 L 200.832031 238.863281 C 200.714844 238.867188 199.9375 238.882812 198.652344 238.816406 " fill-opacity="1" fill-rule="nonzero"/><path fill="#e2e2e2" d="M 276.773438 173.933594 C 276.773438 173.933594 280.660156 179.722656 285.914062 177.203125 C 291.164062 174.683594 299.277344 170.917969 297.488281 160.582031 C 295.699219 150.246094 292.691406 136.585938 289.441406 136.414062 C 286.191406 136.242188 290.878906 126.710938 290.878906 126.710938 C 290.878906 126.710938 293.707031 117.082031 287.988281 110.730469 C 282.269531 104.378906 288.742188 96.335938 284.09375 87.246094 C 279.449219 78.15625 277.554688 51.984375 270.835938 46.976562 C 264.113281 41.96875 254.136719 19.097656 200.648438 18.167969 C 147.160156 17.234375 120.734375 50.773438 120.734375 50.773438 C 120.734375 50.773438 97.117188 75.148438 93.910156 118.75 C 93.910156 118.75 85.429688 120.632812 83.652344 127.992188 C 81.871094 135.347656 80.039062 143.632812 94.238281 148.101562 C 94.238281 148.101562 74.941406 161.058594 77.023438 174.671875 C 79.105469 188.285156 86.609375 196.125 92.132812 197.34375 C 97.65625 198.5625 116.589844 192.566406 116.589844 192.566406 L 118.773438 213.171875 L 115.976562 248.875 L 138.171875 207.199219 L 140.027344 207.296875 L 143.203125 200.011719 L 149.570312 184.980469 L 196.417969 134.8125 L 276.773438 173.933594 " fill-opacity="1" fill-rule="nonzero"/><path fill="#000000" d="M 117.386719 191.347656 L 119.699219 213.15625 L 119.691406 213.242188 L 117.242188 244.539062 L 137.632812 206.246094 L 139.4375 206.339844 L 142.355469 199.644531 L 148.789062 184.46875 L 148.898438 184.351562 L 196.210938 133.683594 L 277.398438 173.210938 L 277.539062 173.417969 C 277.679688 173.625 281.050781 178.515625 285.515625 176.371094 L 285.683594 176.289062 C 290.980469 173.75 298.230469 170.277344 296.578125 160.738281 C 293.40625 142.394531 290.570312 137.398438 289.390625 137.335938 C 288.671875 137.296875 288.085938 136.953125 287.742188 136.363281 C 286.429688 134.125 289.09375 128.261719 290.011719 126.382812 C 290.242188 125.523438 292.355469 116.957031 287.304688 111.347656 C 284.070312 107.757812 284.402344 103.75 284.753906 99.503906 C 285.066406 95.722656 285.390625 91.808594 283.273438 87.664062 C 281.328125 83.859375 279.894531 77.335938 278.378906 70.433594 C 276.324219 61.078125 273.992188 50.480469 270.285156 47.714844 C 269.074219 46.816406 267.832031 45.445312 266.261719 43.707031 C 258.710938 35.371094 244.671875 19.847656 200.632812 19.089844 C 148.207031 18.175781 121.722656 51.015625 121.460938 51.34375 L 121.398438 51.417969 C 121.164062 51.660156 97.972656 76.085938 94.828125 118.816406 L 94.777344 119.5 L 94.109375 119.648438 C 94.03125 119.667969 86.167969 121.511719 84.546875 128.207031 C 82.792969 135.460938 80.976562 142.960938 94.515625 147.21875 L 96.34375 147.796875 L 94.753906 148.867188 C 94.566406 148.992188 75.964844 161.660156 77.933594 174.53125 C 79.863281 187.125 86.789062 195.21875 92.332031 196.445312 C 96.660156 197.402344 111.109375 193.335938 116.308594 191.6875 Z M 114.710938 253.214844 L 117.84375 213.183594 L 115.789062 193.78125 C 111.636719 195.050781 96.914062 199.34375 91.933594 198.246094 C 85.636719 196.855469 78.183594 188.359375 76.109375 174.8125 C 74.289062 162.90625 87.660156 151.8125 92.242188 148.390625 C 78.957031 143.457031 81.140625 134.433594 82.753906 127.773438 C 84.367188 121.113281 90.898438 118.660156 93.039062 118.027344 C 96.363281 75.730469 119.042969 51.222656 120.042969 50.167969 C 121.09375 48.871094 148.132812 16.328125 200.664062 17.242188 C 245.484375 18.019531 259.890625 33.929688 267.628906 42.46875 C 269.132812 44.132812 270.320312 45.441406 271.386719 46.238281 C 275.648438 49.410156 277.953125 59.898438 280.179688 70.035156 C 281.667969 76.824219 283.078125 83.230469 284.914062 86.824219 C 287.273438 91.441406 286.914062 95.804688 286.59375 99.65625 C 286.261719 103.660156 285.976562 107.117188 288.675781 110.113281 C 294.667969 116.769531 291.882812 126.558594 291.761719 126.972656 L 291.707031 127.117188 C 290.109375 130.367188 288.773438 134.480469 289.332031 135.429688 C 289.351562 135.464844 289.363281 135.488281 289.488281 135.492188 C 290.757812 135.558594 294.125 135.734375 298.398438 160.421875 C 300.285156 171.335938 291.644531 175.480469 286.480469 177.953125 L 286.3125 178.035156 C 281.734375 180.234375 277.757812 176.898438 276.15625 174.65625 L 196.628906 135.941406 L 150.359375 185.488281 L 144.050781 200.371094 L 140.617188 208.25 L 138.707031 208.152344 L 114.710938 253.214844 " fill-opacity="1" fill-rule="nonzero"/><path fill="#ffffff" d="M 145.742188 195.953125 L 140.859375 209.203125 C 140.859375 209.203125 155.136719 229.96875 169.925781 240.984375 C 184.710938 252 227.355469 273.320312 227.355469 273.320312 L 230.195312 281.382812 L 242.667969 247.578125 C 242.667969 247.578125 188.058594 250.3125 145.742188 195.953125 " fill-opacity="1" fill-rule="nonzero"/><path fill="#000000" d="M 141.890625 209.066406 C 143.933594 211.964844 157.089844 230.273438 170.476562 240.246094 C 185.027344 251.085938 227.34375 272.28125 227.769531 272.492188 L 228.105469 272.660156 L 230.214844 278.660156 L 241.335938 248.519531 C 237.375 248.507812 225.257812 248.019531 209.789062 243.027344 C 192.652344 237.5 167.800781 225.175781 146.035156 197.820312 Z M 230.175781 284.101562 L 226.613281 273.976562 C 222.574219 271.945312 183.363281 252.148438 169.371094 241.722656 C 154.632812 230.746094 140.242188 209.933594 140.097656 209.726562 L 139.828125 209.332031 L 145.449219 194.078125 L 146.46875 195.386719 C 168.160156 223.25 193.140625 235.703125 210.273438 241.246094 C 228.855469 247.257812 242.488281 246.667969 242.621094 246.65625 L 244.015625 246.589844 L 230.175781 284.101562 " fill-opacity="1" fill-rule="nonzero"/><path fill="#ff172a" d="M 101.886719 269.09375 L 138.171875 207.199219 C 138.171875 207.199219 177.210938 253.007812 227.355469 273.320312 L 257.421875 357.300781 C 257.421875 357.300781 129.773438 350.167969 101.886719 269.09375 " fill-opacity="1" fill-rule="nonzero"/><path fill="#000000" d="M 102.898438 269.191406 C 117.304688 310.441406 158.386719 331.9375 190.367188 342.710938 C 221.109375 353.070312 249.546875 355.773438 256.074219 356.28125 L 226.628906 274.019531 C 181.070312 255.421875 144.308594 215.503906 138.320312 208.769531 Z M 258.757812 358.300781 L 257.367188 358.222656 C 257.046875 358.207031 224.925781 356.296875 189.816406 344.476562 C 157.324219 333.535156 115.542969 311.628906 101.011719 269.390625 L 100.875 268.992188 L 101.089844 268.625 L 138.03125 205.613281 L 138.871094 206.601562 C 139.261719 207.058594 178.351562 252.472656 227.703125 272.464844 L 228.085938 272.617188 L 228.226562 273.007812 L 258.757812 358.300781 " fill-opacity="1" fill-rule="nonzero"/><path fill="#ffb073" d="M 251.929688 88.050781 C 251.929688 88.050781 266.035156 79.472656 270.886719 81.589844 C 275.746094 83.707031 280.898438 103.839844 280.480469 111.890625 C 280.058594 119.9375 275.546875 158.8125 277.859375 162.039062 C 280.175781 165.265625 270.121094 203.226562 265.890625 212.941406 C 261.660156 222.652344 249.613281 239.40625 249.484375 241.882812 C 249.351562 244.359375 238.375 252.476562 229.742188 251.40625 C 221.109375 250.332031 194.101562 244.574219 184.0625 234.738281 C 174.023438 224.902344 163.496094 212.554688 161.277344 207.476562 C 159.058594 202.390625 155.140625 182.324219 155.140625 182.324219 C 155.140625 182.324219 149.378906 185.746094 144.457031 184.867188 C 139.539062 183.988281 133.34375 171.871094 133.34375 171.871094 C 133.34375 171.871094 126.445312 161.363281 127.136719 159.953125 C 127.832031 158.546875 148.09375 150.914062 148.09375 150.914062 L 167.792969 130.214844 C 167.792969 130.214844 179.617188 117.796875 178.507812 115.253906 C 177.398438 112.710938 177.390625 89.121094 176.378906 84.722656 C 175.367188 80.324219 174.96875 64.160156 192.953125 64.480469 C 210.9375 64.800781 227.523438 79.945312 229.96875 80.691406 C 232.414062 81.441406 241.96875 93.058594 251.929688 88.050781 " fill-opacity="1" fill-rule="nonzero"/><path fill="#000000" d="M 265.046875 212.570312 C 262.824219 217.671875 258.316406 224.898438 254.699219 230.707031 C 250.714844 237.101562 248.628906 240.496094 248.5625 241.832031 C 248.546875 242.046875 248.046875 243.019531 246.0625 244.640625 C 242.03125 247.929688 235.25 251.152344 229.855469 250.488281 C 219.667969 249.222656 194.15625 243.335938 184.707031 234.078125 C 174.289062 223.875 164.160156 211.773438 162.121094 207.105469 C 159.972656 202.171875 156.085938 182.34375 156.046875 182.144531 L 155.796875 180.859375 L 154.671875 181.53125 C 154.617188 181.5625 149.152344 184.757812 144.617188 183.960938 C 140.957031 183.304688 135.832031 174.707031 134.164062 171.449219 L 134.113281 171.363281 C 131.261719 167.019531 128.21875 161.734375 128.019531 160.367188 C 128.53125 159.980469 130.023438 159.25 132.105469 158.332031 C 131.710938 160.296875 133.074219 162.964844 134.046875 164.378906 C 135.097656 165.902344 136.609375 167.554688 138.535156 167.886719 C 138.992188 167.964844 139.457031 167.910156 139.917969 167.910156 C 141.40625 167.570312 142.886719 167.726562 144.355469 168.375 C 144.84375 168.738281 145.347656 169.078125 145.867188 169.398438 C 147.929688 170.375 150.125 169.824219 150.199219 167.277344 C 150.230469 166.210938 150.003906 165.292969 149.136719 164.609375 C 148.425781 164.050781 147.507812 164.140625 146.707031 163.863281 C 142.34375 162.339844 144.066406 158.035156 146.269531 155.519531 C 146.441406 155.320312 146.207031 155.046875 145.992188 155.210938 C 142.777344 157.632812 141.039062 163.289062 145.898438 165.007812 C 146.460938 165.210938 147.523438 165.214844 147.894531 165.449219 C 150.441406 167.046875 147.308594 168.277344 145.683594 168.019531 C 144.882812 167.894531 143.972656 166.84375 143.066406 166.644531 C 140.480469 166.078125 137.832031 166.675781 135.710938 164.5 C 134.152344 162.902344 132.699219 159.851562 133.667969 157.65625 C 137.667969 155.941406 143.175781 153.75 148.417969 151.777344 L 148.613281 151.703125 L 168.460938 130.851562 C 173.035156 126.046875 180.53125 117.582031 179.355469 114.882812 C 178.84375 113.714844 178.535156 105.945312 178.289062 99.707031 C 178.027344 93.015625 177.777344 86.695312 177.277344 84.515625 C 176.746094 82.203125 176.226562 75.136719 180.160156 70.28125 C 182.867188 66.941406 187.164062 65.300781 192.9375 65.402344 C 206.707031 65.632812 219.683594 74.792969 225.925781 79.1875 C 228.074219 80.699219 229.050781 81.375 229.699219 81.574219 C 230.101562 81.699219 231.160156 82.546875 232.1875 83.371094 C 236.378906 86.726562 244.179688 92.980469 252.34375 88.871094 L 252.410156 88.835938 C 256.21875 86.523438 266.90625 80.859375 270.519531 82.433594 C 274.578125 84.203125 279.996094 103.484375 279.558594 111.84375 C 279.449219 113.917969 279.070312 118.007812 278.59375 123.1875 C 276.390625 147.003906 275.503906 160.335938 277.105469 162.570312 C 278.898438 165.484375 269.722656 201.835938 265.046875 212.570312 Z M 278.609375 161.5 C 277.101562 159.359375 279.351562 135.042969 280.429688 123.355469 C 280.910156 118.15625 281.289062 114.050781 281.398438 111.9375 C 281.808594 104.136719 276.75 83.136719 271.257812 80.742188 C 266.148438 78.515625 253.117188 86.25 251.484375 87.238281 C 244.390625 90.78125 237.476562 85.242188 233.339844 81.929688 C 231.917969 80.789062 230.980469 80.035156 230.238281 79.8125 C 229.84375 79.691406 228.457031 78.714844 226.988281 77.679688 C 220.597656 73.179688 207.292969 63.8125 192.96875 63.558594 C 186.601562 63.445312 181.808594 65.316406 178.726562 69.121094 C 174.484375 74.355469 174.746094 81.75 175.480469 84.929688 C 175.941406 86.941406 176.199219 93.46875 176.445312 99.777344 C 176.800781 108.710938 177.058594 114.234375 177.65625 115.605469 C 177.972656 117.011719 172.46875 123.96875 167.128906 129.578125 L 159.777344 137.300781 C 159.734375 137.300781 159.6875 137.300781 159.644531 137.328125 C 157.136719 138.90625 155.386719 140.640625 152.136719 139.957031 C 149.804688 139.46875 147.679688 137.480469 149.191406 134.976562 C 149.699219 134.136719 150.578125 133.066406 151.53125 132.761719 C 153.414062 132.160156 155.929688 133.007812 155.4375 135.398438 C 155.40625 135.550781 155.621094 135.695312 155.710938 135.527344 C 156.777344 133.449219 154.875 131.378906 152.667969 131.570312 C 150.171875 131.785156 147.542969 134.609375 147.632812 137.152344 C 147.769531 141.027344 152.757812 142.023438 156.421875 140.824219 L 147.570312 150.125 C 139.28125 153.25 129.550781 157.113281 126.949219 158.941406 C 124.816406 159.726562 122.703125 160.570312 120.574219 161.363281 C 116.875 162.738281 112.199219 165.351562 108.292969 165.910156 C 102.53125 166.734375 99.613281 161.535156 98.800781 156.554688 C 97.710938 149.855469 102.113281 147.226562 107.421875 144.804688 C 114.433594 141.605469 121.378906 137.941406 128.871094 136.003906 C 135.253906 134.355469 142.085938 133.351562 148.042969 130.414062 C 148.238281 130.320312 148.121094 130.03125 147.917969 130.066406 C 142.894531 130.976562 137.988281 132.710938 133.003906 133.851562 C 128.425781 134.894531 124.015625 136.042969 119.683594 137.863281 C 114.527344 140.03125 109.335938 142.285156 104.304688 144.71875 C 101.101562 146.265625 98.609375 147.953125 97.65625 151.542969 C 96.410156 156.246094 98.566406 166.246094 104.167969 167.542969 C 107.191406 168.238281 110.695312 166.324219 113.445312 165.3125 C 117.691406 163.75 122.007812 162.316406 126.246094 160.703125 C 126.527344 162.097656 127.839844 165.167969 132.546875 172.335938 C 133.304688 173.816406 139.132812 184.855469 144.296875 185.777344 C 148.199219 186.476562 152.480469 184.707031 154.480469 183.71875 C 155.375 188.195312 158.496094 203.402344 160.429688 207.84375 C 162.832031 213.347656 174.003906 226.175781 183.414062 235.398438 C 190.582031 242.421875 205.816406 247.238281 217.121094 249.910156 C 217.109375 249.972656 217.105469 250.039062 217.121094 250.113281 C 217.277344 250.914062 217.773438 251.402344 217.996094 252.140625 C 218.394531 253.472656 217.6875 254.457031 216.632812 255.355469 C 215.597656 256.234375 214.84375 257.1875 213.839844 258.085938 C 212.726562 259.078125 212.15625 259.074219 211.632812 260.6875 C 211.152344 262.167969 210.578125 263.878906 210.464844 265.441406 C 210.410156 266.265625 211.710938 266.335938 211.75 265.507812 C 211.960938 261.273438 215.277344 257.9375 218.378906 255.648438 C 220.902344 253.78125 218.714844 252.324219 218.078125 250.136719 C 223.292969 251.335938 227.5625 252.0625 229.628906 252.320312 C 229.941406 252.359375 230.253906 252.386719 230.570312 252.402344 C 236.453125 252.710938 243.351562 249.324219 247.460938 245.878906 C 249.359375 244.285156 250.351562 242.957031 250.402344 241.929688 C 250.480469 240.964844 253.550781 236.035156 256.265625 231.683594 C 259.914062 225.824219 264.460938 218.535156 266.734375 213.308594 C 270.503906 204.660156 281.375 165.351562 278.609375 161.5 " fill-opacity="1" fill-rule="nonzero"/><g clip-path="url(#6dd552a9ab)"><path fill="#000000" d="M 285.914062 177.203125 C 284.863281 177.707031 283.867188 177.878906 282.945312 177.832031 C 279.5625 177.652344 277.191406 174.519531 276.824219 174.003906 C 274.261719 186.933594 268.75 206.378906 265.890625 212.941406 C 261.660156 222.652344 249.613281 239.40625 249.484375 241.882812 C 249.417969 243.15625 245.035156 246.769531 245.035156 246.769531 L 256.191406 273.894531 L 252.257812 340.269531 L 257.421875 357.300781 C 257.421875 357.300781 129.773438 350.167969 101.886719 269.09375 L 116.320312 244.46875 L 118.773438 213.171875 L 117.125 197.625 C 117.28125 194.171875 117.378906 190.726562 117.933594 187.28125 C 118.824219 181.789062 120.425781 176.484375 122.152344 171.203125 C 122.203125 171.058594 121.980469 170.9375 121.898438 171.082031 C 118.519531 177.347656 116.070312 185.226562 115.652344 192.859375 C 112.066406 193.953125 99.007812 197.789062 93.316406 197.492188 C 92.875 197.46875 92.476562 197.417969 92.132812 197.34375 C 86.609375 196.125 79.105469 188.285156 77.023438 174.671875 C 74.941406 161.058594 94.238281 148.101562 94.238281 148.101562 C 80.039062 143.632812 81.871094 135.347656 83.652344 127.992188 C 84.734375 123.507812 88.296875 121.066406 90.921875 119.835938 C 90.96875 119.929688 91.042969 120.011719 91.164062 120.023438 C 98.167969 120.496094 104.34375 116.085938 110.839844 114.15625 C 118.003906 112.027344 125.460938 110.992188 132.863281 110.089844 C 133.589844 110 133.335938 108.90625 132.621094 108.984375 C 125.457031 109.742188 118.285156 110.621094 111.359375 112.679688 C 104.878906 114.601562 99.132812 117.988281 92.488281 119.183594 C 93.347656 118.875 93.910156 118.75 93.910156 118.75 C 97.117188 75.148438 120.734375 50.773438 120.734375 50.773438 C 120.734375 50.773438 147.160156 17.234375 200.648438 18.167969 C 202.78125 18.203125 204.839844 18.273438 206.835938 18.378906 C 254.921875 20.890625 264.382812 42.167969 270.835938 46.976562 C 277.554688 51.984375 279.449219 78.15625 284.09375 87.246094 C 288.742188 96.335938 282.269531 104.378906 287.988281 110.730469 C 293.707031 117.082031 290.878906 126.710938 290.878906 126.710938 C 290.878906 126.710938 286.191406 136.242188 289.441406 136.414062 C 292.691406 136.585938 295.699219 150.246094 297.488281 160.582031 C 299.277344 170.917969 291.164062 174.683594 285.914062 177.203125 Z M 301.125 159.953125 C 300.332031 155.382812 299.074219 148.84375 297.554688 143.648438 C 296.296875 139.355469 294.765625 135.292969 292.179688 133.578125 C 292.535156 132.199219 293.332031 130.082031 294.1875 128.339844 L 294.328125 128.054688 L 294.417969 127.753906 C 294.558594 127.277344 297.75 116.054688 290.730469 108.257812 C 288.917969 106.246094 289.011719 104.003906 289.351562 99.886719 C 289.683594 95.875 290.097656 90.878906 287.378906 85.566406 C 285.703125 82.289062 284.269531 75.757812 282.882812 69.441406 C 280.4375 58.316406 278.128906 47.808594 273.039062 44.015625 C 272.191406 43.382812 271.027344 42.097656 269.679688 40.613281 C 262.15625 32.304688 248.15625 16.84375 207.027344 14.695312 C 204.972656 14.585938 202.847656 14.515625 200.710938 14.476562 C 172.183594 13.980469 151.234375 23.179688 138.683594 30.988281 C 125.816406 38.992188 118.96875 47.097656 117.960938 48.339844 C 115.886719 50.53125 94.257812 74.300781 90.433594 116.023438 C 87.097656 117.382812 81.65625 120.550781 80.0625 127.121094 C 78.582031 133.25 76.234375 142.945312 87.039062 149.046875 C 80.910156 154.371094 71.710938 164.351562 73.375 175.230469 C 75.636719 190.007812 84.121094 199.355469 91.335938 200.949219 C 91.878906 201.066406 92.460938 201.144531 93.125 201.175781 C 98.21875 201.445312 107.757812 198.992188 113.386719 197.378906 L 115.066406 213.21875 L 112.710938 243.332031 L 98.703125 267.226562 L 98.03125 268.371094 C 97.914062 268.574219 97.890625 268.816406 97.964844 269.039062 L 98.394531 270.292969 C 105 289.488281 117.558594 306.21875 135.71875 320.019531 C 150.097656 330.941406 168 340.050781 188.933594 347.097656 C 224.394531 359.039062 255.890625 360.914062 257.214844 360.988281 L 261.097656 361.207031 C 261.769531 361.242188 262.277344 360.601562 262.082031 359.957031 L 260.953125 356.230469 L 255.980469 339.832031 L 259.917969 273.375 C 259.921875 273.304688 259.910156 273.238281 259.882812 273.175781 L 249.453125 247.8125 C 252.605469 244.867188 253.050781 243.339844 253.144531 242.425781 C 253.671875 241.074219 256.402344 236.695312 258.613281 233.148438 C 262.3125 227.214844 266.914062 219.824219 269.273438 214.414062 C 271.894531 208.402344 276.335938 193.089844 279.175781 180.640625 C 280.234375 181.113281 281.429688 181.445312 282.753906 181.515625 C 284.371094 181.601562 285.96875 181.269531 287.507812 180.53125 L 287.679688 180.449219 C 293.164062 177.820312 303.367188 172.925781 301.125 159.953125 " fill-opacity="1" fill-rule="nonzero"/></g><path fill="#f9895d" d="M 222.832031 210.691406 C 222.832031 210.691406 225.765625 216.898438 230.535156 219.125 C 235.308594 221.355469 241.082031 222.238281 243.996094 222.15625 C 246.910156 222.078125 253.167969 220.308594 253.90625 215.109375 L 252.789062 212.023438 L 254.371094 210.707031 C 254.371094 210.707031 249.683594 209.066406 248.71875 209.714844 C 247.753906 210.363281 242.628906 210.445312 241.597656 210.160156 C 240.566406 209.871094 235.914062 207.53125 232.128906 208.730469 C 228.339844 209.929688 222.832031 210.691406 222.832031 210.691406 " fill-opacity="1" fill-rule="nonzero"/><path fill="#000000" d="M 261.585938 131.328125 C 258.804688 132.484375 256.628906 134.496094 254.707031 136.785156 C 252.605469 139.289062 249.910156 142.578125 249.117188 145.789062 C 249.097656 145.867188 249.195312 145.953125 249.265625 145.882812 C 253.851562 141.167969 255.234375 134.59375 261.855469 131.847656 C 262.199219 131.703125 261.933594 131.1875 261.585938 131.328125 " fill-opacity="1" fill-rule="nonzero"/><path fill="#000000" d="M 264.960938 130.808594 C 263.148438 131.035156 261.3125 132.609375 259.921875 133.730469 C 258.296875 135.042969 256.773438 136.507812 255.675781 138.292969 C 255.546875 138.5 255.816406 138.746094 256.003906 138.574219 C 257.453125 137.253906 258.808594 135.84375 260.394531 134.671875 C 261.914062 133.546875 263.988281 132.8125 265.316406 131.496094 C 265.613281 131.203125 265.355469 130.761719 264.960938 130.808594 " fill-opacity="1" fill-rule="nonzero"/><path fill="#000000" d="M 272.027344 131.039062 C 270.730469 129.933594 268.105469 131.308594 266.761719 131.925781 C 264.667969 132.886719 262.824219 134.398438 261.242188 136.054688 C 260.921875 136.394531 261.359375 136.882812 261.730469 136.59375 C 263.574219 135.167969 265.554688 134.160156 267.738281 133.359375 C 269.085938 132.859375 271.371094 132.921875 272.144531 131.617188 C 272.273438 131.40625 272.203125 131.191406 272.027344 131.039062 " fill-opacity="1" fill-rule="nonzero"/><path fill="#ffffff" d="M 272.699219 148.851562 C 269.273438 145.777344 264.976562 144.015625 260.949219 144.878906 C 258.722656 145.355469 256.601562 147.050781 254.703125 148.785156 C 254.5 148.96875 254.367188 149.171875 254.28125 149.378906 C 253.65625 149.976562 253.070312 150.644531 252.554688 151.386719 C 252.042969 152.128906 252.578125 153.398438 253.554688 153.355469 C 253.65625 153.351562 253.757812 153.359375 253.859375 153.359375 C 254.023438 153.878906 254.460938 154.3125 255.160156 154.410156 C 255.972656 154.527344 256.777344 154.574219 257.578125 154.59375 C 258.660156 155.144531 259.75 155.683594 260.996094 155.746094 C 261.5 155.769531 261.941406 155.695312 262.355469 155.574219 C 262.597656 155.671875 262.890625 155.699219 263.210938 155.613281 C 264.441406 155.292969 265.613281 154.878906 266.738281 154.390625 C 268.550781 154.082031 270.480469 153.316406 271.234375 151.859375 C 271.691406 151.539062 272.148438 151.210938 272.59375 150.859375 C 273.15625 150.421875 273.246094 149.339844 272.699219 148.851562 " fill-opacity="1" fill-rule="nonzero"/><path fill="#79dbe8" d="M 261.707031 144.859375 C 261.707031 144.859375 263.082031 146.386719 263.6875 148.164062 C 264.292969 149.941406 263.4375 151.875 262.386719 153.042969 C 261.335938 154.210938 256.296875 154.820312 255.816406 154.039062 C 255.332031 153.257812 253.984375 151.207031 254.703125 149.730469 C 255.417969 148.257812 256.421875 145.804688 261.707031 144.859375 " fill-opacity="1" fill-rule="nonzero"/><path fill="#000000" d="M 275.90625 133.515625 C 274.789062 133.078125 273.632812 133.632812 272.5625 134.023438 C 271.113281 134.550781 269.753906 135.320312 268.429688 136.113281 C 268.265625 136.210938 268.390625 136.4375 268.5625 136.371094 C 269.992188 135.8125 271.449219 135.421875 272.929688 135.039062 C 274 134.765625 275.175781 134.746094 275.996094 133.949219 C 276.136719 133.808594 276.085938 133.589844 275.90625 133.515625 " fill-opacity="1" fill-rule="nonzero"/><path fill="#000000" d="M 261.566406 155.398438 C 259.804688 155.519531 258.386719 155.34375 257.097656 154.9375 C 259.683594 155.640625 262.285156 154.480469 263.535156 152.347656 C 265.558594 150.523438 264.605469 146.707031 262.660156 145.0625 C 264.171875 145.027344 265.675781 145.328125 267.109375 145.925781 C 268.695312 146.589844 271.734375 148.191406 271.886719 150.019531 C 272.234375 154.128906 264.472656 155.191406 261.566406 155.398438 Z M 254.945312 150.898438 C 255.253906 149.238281 256.207031 147.832031 255.992188 147.851562 C 256.941406 147.015625 257.964844 146.285156 259.113281 145.804688 C 259.898438 145.476562 260.695312 145.273438 261.496094 145.15625 C 261.460938 145.300781 261.488281 145.457031 261.632812 145.605469 C 263.613281 147.625 263.375 149.628906 262.816406 152.125 C 261.78125 153.179688 260.378906 153.917969 258.960938 154.035156 C 256.613281 154.234375 254.691406 152.828125 254.945312 150.898438 Z M 263.617188 141.320312 C 258.734375 140.566406 253.316406 144.074219 251.355469 148.449219 C 251.257812 148.675781 251.625 148.851562 251.746094 148.636719 C 253.488281 145.515625 257.09375 142.265625 260.863281 141.964844 C 264.441406 141.679688 272.644531 144.496094 273.03125 149.339844 C 270.019531 146.285156 266.058594 143.769531 261.570312 144.457031 C 257.511719 145.082031 254.820312 148.316406 252.457031 151.382812 C 252.417969 151.429688 252.496094 151.496094 252.539062 151.449219 C 253.214844 150.699219 253.90625 149.90625 254.640625 149.144531 C 254.496094 149.417969 254.394531 149.667969 254.351562 149.929688 C 254.085938 150.394531 253.96875 150.960938 253.984375 151.515625 C 254.023438 152.984375 255.078125 154.105469 256.359375 154.675781 C 254.78125 154.039062 253.359375 153.027344 251.695312 151.71875 C 251.488281 151.558594 251.214844 151.835938 251.328125 152.046875 C 253.175781 155.492188 257.976562 156.835938 261.675781 156.714844 C 266.71875 156.550781 270.433594 154.273438 273.175781 150.277344 C 273.320312 150.359375 273.523438 150.34375 273.566406 150.148438 C 274.675781 145.378906 267.460938 141.914062 263.617188 141.320312 " fill-opacity="1" fill-rule="nonzero"/><path fill="#000000" d="M 257.71875 181.9375 C 256.652344 179.582031 254.9375 177.609375 253.664062 175.375 C 251.644531 171.832031 252.316406 168.765625 252.253906 164.933594 C 252.148438 158.378906 245 154.789062 248.8125 147.691406 C 248.964844 147.40625 248.578125 147.136719 248.390625 147.410156 C 245.417969 151.742188 247.199219 155.699219 249.65625 159.652344 C 252.566406 164.34375 250.246094 168 251.484375 172.835938 C 252.132812 175.371094 253.785156 177.480469 255.101562 179.691406 C 257.539062 183.792969 258.375 188.472656 255.53125 192.632812 C 253.382812 195.765625 249.128906 198.203125 245.203125 196.859375 C 243.246094 196.191406 242.042969 194.59375 240.511719 193.34375 C 238.707031 191.867188 237.203125 190.9375 234.875 190.671875 C 231.167969 190.253906 229.050781 192.304688 226.253906 187.722656 C 225.390625 186.195312 224.996094 184.558594 225.066406 182.804688 C 226.273438 178.636719 228.425781 177.523438 231.527344 179.464844 C 232.023438 179.90625 232.808594 179.230469 232.308594 178.757812 C 230.550781 177.105469 228.125 176.882812 226.070312 178.292969 C 223.179688 180.273438 223.285156 184.140625 224.558594 187.054688 C 226.121094 190.628906 228.554688 192.964844 232.488281 192.777344 C 236.871094 192.5625 238.109375 194.265625 241.316406 196.605469 C 243.066406 197.882812 244.800781 198.835938 247.035156 198.820312 C 254.910156 198.773438 260.855469 188.871094 257.71875 181.9375 " fill-opacity="1" fill-rule="nonzero"/><path fill="#000000" d="M 253.292969 211.503906 C 252.960938 211.273438 252.453125 211.441406 252.339844 211.816406 C 249.898438 212.539062 247.246094 212.632812 244.777344 213.210938 C 242.558594 213.738281 240.804688 213.890625 238.566406 213.234375 C 237.289062 212.863281 236.207031 212.542969 234.894531 212.320312 C 232.070312 211.851562 229.308594 211.152344 226.539062 210.480469 C 228.671875 209.929688 230.824219 209.449219 233.015625 209.179688 C 235.074219 208.921875 236.949219 208.886719 238.953125 209.519531 C 240.3125 209.953125 241.417969 210.710938 242.882812 210.855469 C 245.855469 211.152344 247.929688 209.480469 251.09375 210.148438 C 252.390625 210.425781 253.28125 210.898438 254.296875 211.066406 C 253.96875 211.234375 253.632812 211.375 253.292969 211.503906 Z M 245.703125 221.605469 C 243.136719 222.089844 239.191406 221.4375 236.742188 220.816406 C 231.347656 219.4375 225.957031 216.023438 223.554688 210.882812 C 223.671875 210.917969 223.792969 210.949219 223.910156 210.984375 C 223.933594 211.078125 224.011719 211.160156 224.121094 211.128906 C 224.167969 211.117188 224.214844 211.105469 224.265625 211.089844 C 226.1875 211.679688 228.007812 212.3125 229.34375 212.507812 C 231.367188 212.808594 233.449219 212.792969 235.464844 213.136719 C 237.449219 213.476562 239.433594 214.816406 241.421875 214.9375 C 241.867188 214.964844 242.355469 214.84375 242.792969 214.769531 C 245.109375 214.367188 247.035156 213.421875 249.46875 213.191406 C 250.628906 213.082031 251.59375 212.988281 252.453125 212.691406 C 253.480469 217.558594 251.089844 220.585938 245.703125 221.605469 Z M 256.203125 210.433594 C 253.574219 210.605469 251.304688 209.082031 248.691406 208.964844 C 248.191406 208.941406 247.730469 209.414062 247.246094 209.488281 C 240.90625 210.433594 242.28125 209.378906 237.765625 208.4375 C 233.921875 207.632812 229.296875 208.871094 225.5 210.230469 C 224.144531 209.910156 222.785156 209.597656 221.410156 209.332031 C 219.144531 208.894531 217.269531 208.941406 215.515625 210.539062 C 215.445312 210.609375 215.53125 210.746094 215.621094 210.6875 C 217.265625 209.582031 219.761719 209.886719 222.292969 210.535156 C 224.78125 218.605469 234.695312 222.582031 242.585938 222.828125 C 248.417969 223.007812 256.945312 219.121094 253.648438 212.070312 C 253.996094 211.816406 254.332031 211.507812 254.65625 211.105469 C 255.132812 211.148438 255.644531 211.125 256.246094 210.972656 C 256.527344 210.902344 256.519531 210.414062 256.203125 210.433594 " fill-opacity="1" fill-rule="nonzero"/><path fill="#ffffff" d="M 197.261719 147.023438 C 197.261719 147.023438 202.320312 142.105469 210.460938 142.296875 C 218.59375 142.492188 227.101562 148.988281 228.1875 150.441406 C 229.277344 151.894531 227.089844 153.644531 218.011719 153.632812 C 208.9375 153.625 199.921875 151.238281 197.21875 147.863281 L 197.261719 147.023438 " fill-opacity="1" fill-rule="nonzero"/><path fill="#000000" d="M 194.507812 134.152344 C 193.640625 133.480469 192.265625 133.878906 191.25 134.027344 C 189.902344 134.226562 188.554688 134.421875 187.410156 135.199219 C 187.269531 135.296875 187.292969 135.527344 187.484375 135.542969 C 188.769531 135.652344 189.984375 135.328125 191.257812 135.203125 C 192.3125 135.101562 193.695312 135.355469 194.546875 134.640625 C 194.710938 134.503906 194.660156 134.265625 194.507812 134.152344 " fill-opacity="1" fill-rule="nonzero"/><path fill="#000000" d="M 198.804688 131.171875 C 197.382812 130.535156 195.570312 131.027344 194.09375 131.300781 C 192.324219 131.628906 190.730469 132.140625 189.179688 133.046875 C 189.011719 133.144531 189.109375 133.371094 189.289062 133.355469 C 191.003906 133.183594 192.679688 132.859375 194.386719 132.625 C 195.859375 132.425781 197.527344 132.632812 198.867188 131.941406 C 199.210938 131.761719 199.121094 131.3125 198.804688 131.171875 " fill-opacity="1" fill-rule="nonzero"/><path fill="#000000" d="M 205.117188 129.636719 C 203.746094 128.285156 201.644531 128.425781 199.792969 128.296875 C 197.394531 128.132812 195.058594 128.3125 192.6875 128.691406 C 192.300781 128.753906 192.359375 129.355469 192.746094 129.371094 C 195.066406 129.484375 197.394531 129.683594 199.707031 129.960938 C 201.492188 130.175781 203.292969 130.9375 205.003906 130.261719 C 205.238281 130.167969 205.289062 129.808594 205.117188 129.636719 " fill-opacity="1" fill-rule="nonzero"/><path fill="#000000" d="M 217.007812 133.902344 C 216.363281 132.113281 214.59375 131.082031 213.046875 130.097656 C 211.203125 128.921875 209.195312 128.128906 207.132812 127.429688 C 206.929688 127.359375 206.816406 127.632812 206.976562 127.753906 C 207.789062 128.367188 208.578125 129.003906 209.367188 129.644531 C 209.105469 129.5 208.851562 129.355469 208.617188 129.214844 C 206.515625 127.964844 204.4375 127.085938 202.121094 126.296875 C 201.765625 126.179688 201.527344 126.675781 201.835938 126.882812 C 203.882812 128.246094 205.910156 129.605469 207.96875 130.945312 C 209.589844 132 211.210938 133.730469 213.171875 133.945312 C 213.582031 133.992188 213.789062 133.535156 213.648438 133.203125 C 213.632812 133.167969 213.609375 133.136719 213.589844 133.101562 C 214.421875 133.769531 215.300781 134.359375 216.28125 134.558594 C 216.640625 134.628906 217.171875 134.355469 217.007812 133.902344 " fill-opacity="1" fill-rule="nonzero"/><path fill="#000000" d="M 222.707031 134.324219 C 221.96875 132.773438 219.980469 132 218.554688 131.15625 C 216.6875 130.050781 214.738281 129.085938 212.808594 128.09375 C 212.253906 127.808594 211.757812 128.527344 212.273438 128.914062 C 214.007812 130.203125 215.726562 131.527344 217.535156 132.710938 C 218.925781 133.621094 220.507812 135.085938 222.230469 135.066406 C 222.617188 135.0625 222.878906 134.6875 222.707031 134.324219 " fill-opacity="1" fill-rule="nonzero"/><path fill="#000000" d="M 232.078125 136.097656 C 230.617188 134.0625 228.132812 132.574219 226.101562 131.15625 C 225.652344 130.84375 225.152344 131.464844 225.492188 131.867188 C 225.816406 132.25 226.148438 132.652344 226.484375 133.0625 C 224.820312 131.585938 222.800781 130.457031 220.851562 129.492188 C 220.421875 129.28125 219.800781 129.8125 220.242188 130.203125 C 222.378906 132.097656 224.324219 134.296875 226.601562 136.023438 C 226.886719 136.242188 227.300781 136.222656 227.609375 136.078125 C 227.90625 135.9375 227.972656 135.796875 228.101562 135.503906 C 228.179688 135.332031 228.175781 135.140625 228.125 134.960938 C 228.996094 135.898438 229.9375 136.757812 230.988281 137.375 C 231.226562 137.515625 231.585938 137.589844 231.839844 137.417969 C 231.96875 137.328125 232.078125 137.269531 232.160156 137.128906 C 232.371094 136.773438 232.308594 136.421875 232.078125 136.097656 " fill-opacity="1" fill-rule="nonzero"/><path fill="#000000" d="M 234.066406 134.660156 C 233.199219 133.5 232.015625 132.519531 230.816406 131.730469 C 230.144531 131.292969 229.25 132.253906 229.875 132.824219 C 230.867188 133.730469 231.621094 134.726562 232.289062 135.890625 C 232.886719 136.925781 233.226562 138.214844 233.984375 139.128906 C 234.535156 139.789062 235.59375 139.335938 235.65625 138.535156 C 235.761719 137.191406 234.851562 135.703125 234.066406 134.660156 " fill-opacity="1" fill-rule="nonzero"/><path fill="#79dbe8" d="M 202.441406 144.285156 C 202.441406 144.285156 202.0625 145.585938 202.902344 147.335938 C 203.742188 149.085938 205.265625 151.105469 209.28125 151.472656 C 213.296875 151.835938 214.914062 149.050781 214.164062 147.148438 C 213.410156 145.246094 213.203125 143.042969 211.992188 142.613281 C 207.652344 141.066406 202.441406 144.285156 202.441406 144.285156 " fill-opacity="1" fill-rule="nonzero"/><path fill="#000000" d="M 225.996094 152.691406 C 225.898438 152.6875 225.847656 152.753906 225.835938 152.824219 C 220.996094 153.078125 216.109375 153.53125 211.277344 152.902344 C 208.320312 152.515625 205.480469 151.730469 202.816406 150.386719 C 201.585938 149.765625 200.242188 149.265625 199.636719 147.933594 C 198.890625 146.285156 199.988281 145.785156 201.777344 144.84375 C 201.316406 148.628906 206.292969 152.054688 209.765625 151.945312 C 211.765625 151.878906 213.789062 150.996094 214.4375 148.964844 C 215.109375 146.84375 214.113281 144.734375 212.792969 143.074219 C 214.328125 143.378906 215.84375 143.898438 217.300781 144.625 C 219.417969 145.679688 221.371094 147.039062 223.503906 148.058594 C 224.199219 148.390625 224.882812 148.675781 225.605469 148.933594 C 226.015625 149.085938 226.429688 149.21875 226.847656 149.332031 C 228.429688 149.585938 228.144531 150.707031 225.996094 152.691406 Z M 202.84375 144.304688 C 205.722656 142.929688 208.800781 142.5 211.820312 142.910156 C 212.921875 144.449219 214.105469 146.128906 213.722656 148.125 C 213.277344 150.460938 211.019531 151.265625 208.882812 151.074219 C 205.433594 150.765625 202.441406 147.738281 202.84375 144.304688 Z M 229.769531 150.425781 C 229.492188 149.484375 228.589844 149.097656 227.824219 148.65625 C 225.464844 147.300781 222.777344 146.386719 220.382812 144.996094 C 214.644531 141.664062 208.414062 140.574219 202.886719 143 C 202.785156 142.921875 202.644531 142.898438 202.527344 142.957031 C 208.21875 139.03125 216.566406 139.984375 222.734375 143.363281 C 222.882812 143.441406 223.023438 143.234375 222.878906 143.144531 C 215.4375 138.4375 203.035156 137.25 198.273438 146.042969 C 197.933594 146.355469 197.59375 146.675781 197.261719 147.023438 C 197.0625 147.234375 196.960938 147.640625 197.21875 147.863281 C 205.421875 154.960938 216.191406 154.796875 226.386719 153.421875 C 226.574219 153.398438 226.644531 153.21875 226.621094 153.058594 C 228.3125 153.105469 230.433594 152.671875 229.769531 150.425781 " fill-opacity="1" fill-rule="nonzero"/><path fill="#000000" d="M 209.121094 144.253906 C 208.8125 144.105469 208.484375 144.015625 208.152344 143.984375 C 208.15625 143.917969 208.105469 143.839844 208.03125 143.828125 C 207.738281 143.789062 207.464844 143.878906 207.238281 144.042969 C 206.105469 144.289062 205.195312 145.195312 205.488281 146.578125 C 205.664062 147.390625 206.214844 147.84375 206.871094 147.992188 C 206.957031 148.109375 207.0625 148.207031 207.183594 148.289062 C 207.734375 148.644531 208.515625 148.5 208.976562 148.0625 C 209.167969 147.882812 209.289062 147.671875 209.367188 147.445312 C 209.789062 147.085938 210.046875 146.585938 210.003906 145.992188 C 210.332031 145.253906 209.804688 144.589844 209.121094 144.253906 " fill-opacity="1" fill-rule="nonzero"/><path fill="#000000" d="M 260.519531 149.035156 C 260.105469 148.320312 259.117188 148.042969 258.417969 148.496094 C 258.355469 148.535156 258.308594 148.585938 258.257812 148.632812 C 256.984375 148.625 256.035156 149.933594 256.660156 151.136719 C 256.828125 151.460938 257.070312 151.695312 257.34375 151.851562 L 257.347656 151.855469 L 257.394531 151.878906 C 257.53125 151.96875 257.679688 152.050781 257.84375 152.101562 C 259.480469 152.621094 261.445312 150.628906 260.519531 149.035156 " fill-opacity="1" fill-rule="nonzero"/><path fill="#000000" d="M 149.097656 107.886719 C 146.125 109.648438 144.078125 113.101562 142.34375 115.988281 C 141.65625 117.128906 140.425781 118.789062 138.972656 119.929688 C 138.019531 120.339844 137.066406 120.757812 136.109375 121.183594 C 135.265625 121.230469 134.421875 120.953125 133.613281 120.191406 C 131.671875 118.367188 131.664062 115.699219 132.96875 113.582031 C 133.339844 113.105469 133.714844 112.632812 134.085938 112.15625 C 139.988281 114.320312 140.597656 115.210938 135.917969 114.832031 C 136.386719 114.269531 135.46875 113.496094 134.949219 114.003906 C 132.226562 116.667969 138.0625 118.769531 139.832031 115.941406 C 142.90625 111.023438 136.363281 107.765625 132.859375 111.53125 C 129.859375 114.757812 129.703125 120.695312 134.402344 121.957031 C 127.828125 124.980469 121.253906 128.421875 115.105469 131.929688 C 106.945312 136.585938 100.519531 143.464844 92.515625 148.339844 C 92.398438 148.414062 92.453125 148.632812 92.601562 148.585938 C 96.414062 147.339844 99.410156 145.011719 102.460938 142.46875 C 106.664062 138.964844 110.851562 135.664062 115.636719 132.957031 C 122.785156 128.910156 131.175781 126.253906 138.148438 121.796875 C 139.714844 121.214844 141.042969 120.023438 142.039062 118.601562 C 143.230469 116.898438 144.117188 115 145.3125 113.292969 C 146.5625 111.507812 148.175781 109.953125 149.269531 108.078125 C 149.332031 107.972656 149.21875 107.816406 149.097656 107.886719 " fill-opacity="1" fill-rule="nonzero"/><path fill="#000000" d="M 163.746094 138.820312 C 160.820312 141.207031 158.097656 143.753906 155.636719 146.625 C 154.628906 147.804688 151.363281 150.546875 151.832031 152.285156 C 151.921875 152.617188 152.300781 152.957031 152.675781 152.824219 C 152.738281 152.800781 152.800781 152.777344 152.863281 152.757812 C 153.117188 152.667969 153.382812 152.414062 153.277344 152.105469 C 153.265625 152.066406 153.25 152.027344 153.238281 151.984375 C 153.179688 151.824219 153.066406 151.695312 152.882812 151.6875 C 153.683594 151.730469 153.078125 152.125 153.90625 151.324219 C 154.4375 150.816406 154.882812 150.054688 155.347656 149.472656 C 156.382812 148.175781 157.457031 146.914062 158.546875 145.667969 C 160.40625 143.539062 162.316406 141.449219 164.300781 139.433594 C 164.671875 139.054688 164.160156 138.480469 163.746094 138.820312 " fill-opacity="1" fill-rule="nonzero"/><path fill="#000000" d="M 163.917969 142.433594 C 161.800781 144.488281 159.804688 146.640625 157.925781 148.917969 C 156.160156 151.0625 153.820312 153.464844 152.882812 156.105469 C 152.730469 156.53125 153.265625 156.832031 153.589844 156.566406 C 155.648438 154.867188 157.105469 152.179688 158.765625 150.078125 C 160.660156 147.683594 162.601562 145.328125 164.558594 142.984375 C 164.867188 142.613281 164.261719 142.101562 163.917969 142.433594 " fill-opacity="1" fill-rule="nonzero"/><path fill="#000000" d="M 163.457031 148.816406 C 161.582031 150.542969 159.761719 152.320312 158.085938 154.242188 C 156.703125 155.824219 155.023438 157.457031 154.175781 159.386719 C 153.910156 159.988281 154.742188 160.414062 155.179688 160.042969 C 156.746094 158.722656 157.875 156.765625 159.1875 155.191406 C 160.785156 153.269531 162.414062 151.375 164.113281 149.542969 C 164.535156 149.085938 163.929688 148.378906 163.457031 148.816406 " fill-opacity="1" fill-rule="nonzero"/><path fill="#000000" d="M 187.0625 197.296875 C 187.054688 196.644531 186.292969 196.214844 185.773438 196.683594 C 185.253906 197.148438 185.597656 197.957031 186.25 198.03125 C 186.289062 198.035156 186.328125 198.039062 186.363281 198.042969 C 186.707031 198.082031 187.066406 197.757812 187.0625 197.414062 C 187.0625 197.375 187.0625 197.335938 187.0625 197.296875 " fill-opacity="1" fill-rule="nonzero"/><path fill="#000000" d="M 226.96875 154.769531 C 224.769531 157.003906 222.804688 158.898438 220.007812 160.40625 C 217.972656 161.503906 215.574219 162.421875 214.007812 164.171875 C 213.84375 164.351562 214.019531 164.675781 214.265625 164.542969 C 218.972656 162.039062 224.167969 159.527344 227.296875 155.050781 C 227.433594 154.851562 227.144531 154.589844 226.96875 154.769531 " fill-opacity="1" fill-rule="nonzero"/><path fill="#000000" d="M 267.195312 164.15625 C 264.769531 163.03125 261.925781 163.136719 259.367188 162.3125 C 256.554688 161.40625 253.898438 159.890625 251.875 157.703125 C 251.804688 157.621094 251.664062 157.714844 251.71875 157.8125 C 254.382812 162.738281 261.671875 165.808594 267.164062 164.742188 C 267.488281 164.679688 267.449219 164.273438 267.195312 164.15625 " fill-opacity="1" fill-rule="nonzero"/></svg>