<?xml version="1.0"?>
<svg xmlns="http://www.w3.org/2000/svg" xmlns:xlink="http://www.w3.org/1999/xlink" xmlns:svgjs="http://svgjs.com/svgjs" version="1.1" width="512" height="512" x="0" y="0" viewBox="0 0 512 512" style="enable-background:new 0 0 512 512" xml:space="preserve" class=""><g><g xmlns="http://www.w3.org/2000/svg"><g><path clip-rule="evenodd" d="m344.911 204.995h-328.996c-8.732 0-15.886 7.104-15.915 15.844v.088 116.933.088c.029 8.741 7.184 15.844 15.915 15.844h343.538c17.224 0 126.651-74.103 126.651-74.103z" fill="#3c4ce5" fill-rule="evenodd" data-original="#c3ddff" style="" class=""/></g><g><path clip-rule="evenodd" d="m397.621 353.792h72.568c8.761 0 15.915-7.162 15.915-15.932v-116.933c0-.702-.029-1.403-.117-2.105l-16.061 15.932c-1.314 1.023-1.957 1.608-2.599 1.608-.672 0-1.314-.585-2.628-1.608l-29.991-29.759h-89.798c6.366 12.921 11.447 27.011 15.068 41.979 2.424 10.085 4.147 20.551 5.14 31.309.642 6.899.964 13.944.964 21.077 0 19.002-2.336 37.301-6.629 54.432h6.629v-11.255z" fill="#3c4ce5" fill-rule="evenodd" data-original="#9dc6fb" style="" class=""/></g><g><path clip-rule="evenodd" d="m504.356 200.581 3.737-33.502-27.539-9.418c-3.699 1.349-7.23 3.48-10.277 6.233-1.811 1.666-2.482 2.485-2.949 2.456-.496.029-1.139-.789-2.979-2.456-9.87-8.916-24.822-11.313-34.079-1.725-10.192 10.582-10.192 27.859 0 38.412l4.147 4.093.292.322 17.525 17.39z" fill="#ffcccf" fill-rule="evenodd" data-original="#ffcccf" style=""/></g><g><path clip-rule="evenodd" d="m420.925 52.983c-12.236-12.716-32.035-9.53-45.118 2.28-2.424 2.163-3.271 3.274-3.942 3.245-.642.029-1.489-1.082-3.913-3.245-13.083-11.81-32.882-14.997-45.118-2.28-13.492 13.973-13.492 36.863 0 50.866l5.461 5.408 40.124 39.815c1.723 1.374 2.599 2.134 3.446 2.163.876-.029 1.752-.789 3.475-2.163l40.124-39.815 5.461-5.408c13.491-14.003 13.491-36.892 0-50.866z" fill="#ff8086" fill-rule="evenodd" data-original="#ff8086" style=""/></g><g><path clip-rule="evenodd" d="m449.718 372.384-52.097-18.592-31.539-11.255v11.255l-.058 77.614 22.953-16.166 36.562 51.947 37.788-26.631-36.562-51.977z" fill="#eceaed" fill-rule="evenodd" data-original="#eceaed" style=""/></g><g><path d="m329.142 316.94c-3.124 0-6.064-1.907-7.23-5.003l-17.228-45.706-17.41 45.73c-1.517 3.988-5.981 5.992-9.97 4.471-3.988-1.518-5.99-5.982-4.471-9.97l23.361-61.36c.015-.04.031-.08.047-.121 1.393-3.483 4.719-5.733 8.473-5.733s7.079 2.251 8.473 5.733c.019.048.038.097.056.145l23.128 61.36c1.505 3.993-.511 8.45-4.504 9.955-.898.339-1.82.499-2.725.499z" fill="#ffffff" data-original="#576b74" style="" class=""/></g><g><path d="m321.987 301.649h-34.635c-4.268 0-7.726-3.459-7.726-7.726s3.459-7.726 7.726-7.726h34.635c4.268 0 7.726 3.459 7.726 7.726s-3.458 7.726-7.726 7.726z" fill="#ffffff" data-original="#576b74" style="" class=""/></g><g><path d="m206.987 316.938c-4.268 0-7.726-3.459-7.726-7.726v-62.12c0-3.382 2.199-6.37 5.428-7.376 3.231-1.005 6.737.205 8.658 2.988l29.271 42.412-.37-38.066c-.041-4.268 3.384-7.76 7.651-7.802h.077c4.231 0 7.683 3.409 7.724 7.651l.585 60.133c0 4.251-2.368 7.688-6.032 8.832-3.595 1.117-7.382-.284-9.656-3.574l-27.882-40.399v37.322c-.002 4.266-3.46 7.725-7.728 7.725z" fill="#ffffff" data-original="#576b74" style="" class=""/></g><g><path d="m435.088 316.938h-25.961c-4.268 0-7.726-3.459-7.726-7.726v-61.682c0-4.268 3.459-7.726 7.726-7.726h25.961c4.268 0 7.726 3.459 7.726 7.726s-3.459 7.726-7.726 7.726h-18.234v46.229h18.234c4.268 0 7.726 3.459 7.726 7.726s-3.459 7.727-7.726 7.727z" fill="#ffffff" data-original="#576b74" style="" class=""/></g><g><path d="m433.19 286.097h-24.063c-4.268 0-7.726-3.459-7.726-7.726 0-4.268 3.459-7.726 7.726-7.726h24.063c4.268 0 7.726 3.459 7.726 7.726.001 4.267-3.458 7.726-7.726 7.726z" fill="#ffffff" data-original="#576b74" style="" class=""/></g><g><path d="m43.395 316.938c-2.037 0-3.992-.805-5.44-2.239-1.456-1.443-2.279-3.405-2.287-5.456 0 0-.089-21.918-.089-30.317 0-6.864-.058-30.09-.058-30.091-.005-2.052.807-4.022 2.257-5.476 1.449-1.453 3.418-2.27 5.47-2.27h17.113c19.189 0 32.081 15.24 32.081 37.925 0 21.561-13.224 37.448-31.446 37.777-4.873.088-17.05.145-17.565.147-.011 0-.024 0-.036 0zm7.598-60.396c.017 7.416.04 18.093.04 22.383 0 5.147.033 15.38.059 22.513 3.53-.024 7.409-.058 9.627-.099 11.239-.202 16.271-11.359 16.271-22.326 0-3.753-.802-22.472-16.629-22.472h-9.368z" fill="#ffffff" data-original="#576b74" style="" class=""/></g><g><path d="m382.348 254.7h-34.313c-4.268 0-7.726-3.459-7.726-7.726s3.459-7.726 7.726-7.726h34.313c4.268 0 7.726 3.459 7.726 7.726s-3.458 7.726-7.726 7.726z" fill="#ffffff" data-original="#576b74" style="" class=""/></g><g><path d="m365.119 316.938c-4.268 0-7.726-3.459-7.726-7.726v-60.249c0-4.268 3.459-7.726 7.726-7.726s7.726 3.459 7.726 7.726v60.249c0 4.267-3.459 7.726-7.726 7.726z" fill="#ffffff" data-original="#576b74" style="" class=""/></g><g><path d="m142.947 315.944c-21.393 0-38.799-17.42-38.799-38.83 0-21.428 17.405-38.86 38.799-38.86 21.409 0 38.827 17.433 38.827 38.86 0 21.41-17.418 38.83-38.827 38.83zm0-62.238c-12.873 0-23.346 10.501-23.346 23.407 0 12.89 10.473 23.377 23.346 23.377 12.888 0 23.374-10.487 23.374-23.377 0-12.906-10.486-23.407-23.374-23.407z" fill="#ffffff" data-original="#576b74" style="" class=""/></g><g><path clip-rule="evenodd" d="m504.356 162.169c-6.395-6.636-15.536-7.513-23.8-4.502 9.316 10.641 9.024 27.216-.876 37.477l-4.118 4.093-23.333 23.153 12.469 12.366c1.314 1.023 1.957 1.608 2.628 1.608.642 0 1.285-.585 2.599-1.608l16.061-15.932 14.251-14.149 4.118-4.093c10.193-10.554 10.193-27.831.001-38.413z" fill="#e7b1b9" fill-rule="evenodd" data-original="#e7b1b9" style="" class=""/></g><g><path clip-rule="evenodd" d="m393.328 45.821c8.206 13.827 6.512 32.303-5.023 44.288l-5.461 5.408-34.196 33.94 19.77 19.615c1.723 1.374 2.599 2.134 3.446 2.163.876-.029 1.752-.789 3.475-2.163l40.124-39.815 5.461-5.408c13.492-14.003 13.492-36.892 0-50.866-7.475-7.747-17.754-9.588-27.596-7.162z" fill="#e5646e" fill-rule="evenodd" data-original="#e5646e" style="" class=""/></g></g></g></svg>
