<?xml version="1.0"?>
<svg xmlns="http://www.w3.org/2000/svg" xmlns:xlink="http://www.w3.org/1999/xlink" xmlns:svgjs="http://svgjs.com/svgjs" version="1.1" width="512" height="512" x="0" y="0" viewBox="0 0 24 24" style="enable-background:new 0 0 512 512" xml:space="preserve" class=""><g><path xmlns="http://www.w3.org/2000/svg" d="m14.924 16c.051-.327.076-.663.076-1 0-.335-.025-.667-.075-.992l1.653-1.297c.388-.305.495-.857.249-1.287l-1.067-1.848c-.248-.429-.781-.613-1.24-.428l-1.948.785c-.532-.429-1.109-.763-1.72-.995l-.296-2.08c-.07-.489-.495-.858-.99-.858h-2.132c-.495 0-.92.369-.99.859l-.296 2.081c-.612.235-1.195.573-1.712.993l-1.957-.785c-.459-.184-.991 0-1.239.428l-1.066 1.848c-.248.43-.14.984.251 1.288l1.651 1.288c-.051.327-.076.663-.076 1 0 .335.025.667.075.992l-1.653 1.297c-.388.305-.495.857-.249 1.287l1.066 1.848c.248.428.781.612 1.24.428l1.948-.785c.532.429 1.109.763 1.72.995l.296 2.08c.071.489.496.858.991.858h2.132c.495 0 .92-.369.99-.859l.296-2.081c.612-.235 1.195-.573 1.712-.993l1.957.785c.461.185.992.001 1.239-.428l1.066-1.848c.248-.43.14-.984-.251-1.288zm-6.424 2.5c-1.93 0-3.5-1.57-3.5-3.5s1.57-3.5 3.5-3.5 3.5 1.57 3.5 3.5-1.57 3.5-3.5 3.5z" fill="#3c4ce5" data-original="#000000" style=""/><path xmlns="http://www.w3.org/2000/svg" d="m22.703 5.469c.019-.155.047-.308.047-.469s-.028-.314-.047-.469l.901-.682c.201-.152.257-.43.131-.649l-.809-1.4c-.126-.218-.395-.309-.627-.211l-1.037.437c-.253-.193-.522-.363-.819-.487l-.138-1.101c-.032-.25-.244-.438-.496-.438h-1.617c-.252 0-.465.188-.496.438l-.138 1.101c-.297.124-.567.295-.819.487l-1.037-.437c-.233-.098-.502-.008-.628.211l-.808 1.4c-.126.218-.07.496.131.649l.901.682c-.02.155-.048.308-.048.469s.028.314.047.469l-.901.682c-.201.152-.257.43-.131.649l.809 1.4c.126.218.395.309.627.211l1.037-.438c.253.193.522.363.819.487l.138 1.101c.032.251.244.439.496.439h1.617c.252 0 .465-.188.496-.438l.138-1.101c.297-.124.567-.295.819-.487l1.037.437c.233.098.502.008.628-.211l.808-1.4c.126-.218.07-.496-.131-.649zm-3.703 1.531c-1.105 0-2-.895-2-2s.895-2 2-2 2 .895 2 2-.895 2-2 2z" fill="#3c4ce5" data-original="#000000" style=""/></g></svg>
