<svg id="Capa_1" enable-background="new 0 0 512 512" height="512" viewBox="0 0 512 512" width="512" xmlns="http://www.w3.org/2000/svg"><g><path d="m512 256c0 141.385-114.615 256-256 256-72.566 0-138.081-30.193-184.666-78.702-3.844-4.002 12.281-11.485 8.702-15.73-12.447-14.762-23.254-30.951-32.142-48.286-3.329-6.492-12.033-10.102-14.809-16.901-12.178-29.833-8.133-137.108-3.586-156.205.837-3.514-20.8-6.688-19.82-10.145 30.441-107.374 129.196-186.031 246.321-186.031 141.385 0 256 114.615 256 256z" fill="#ffb52d"/><path d="m490.27 215.339v52.417c0 5.523-4.477 10-10 10h-96.016c-5.523 0-10-4.477-10-10v-52.417c0-5.523 4.477-10 10-10h96.016c5.523 0 10 4.478 10 10zm-101.968 108.938h-360.536c-5.523 0-10 4.477-10 10v15.614c12.341 31.288 30.667 59.56 53.568 83.406h316.968c5.523 0 10-4.477 10-10v-89.021c0-5.521-4.477-9.999-10-9.999z" fill="#f29500"/><path d="m452 204.277v140c0 22.091-17.909 40-40 40h-51.522c-5.38 0-9.796 4.257-9.993 9.634l-1.891 51.586c-.29 7.92-9.24 12.371-15.731 7.824l-95.973-67.234c-1.681-1.178-3.685-1.81-5.738-1.81h-168.79c-22.091 0-40-17.909-40-40v-140c0-22.091 17.909-40 40-40h349.638c22.091 0 40 17.909 40 40z" fill="#e9f3fe"/><path d="m82.871 384.277h-42.871c-22.091 0-40-17.909-40-40v-140c0-22.091 17.909-40 40-40h42.871c-22.091 0-40 17.909-40 40v140c0 22.092 17.908 40 40 40z" fill="#c8e2fd"/><path d="m105.294 272.777c0-4.142 3.358-7.5 7.5-7.5h245c4.142 0 7.5 3.358 7.5 7.5s-3.358 7.5-7.5 7.5h-245c-4.142 0-7.5-3.358-7.5-7.5zm252.5 21.5h-245c-4.142 0-7.5 3.358-7.5 7.5s3.358 7.5 7.5 7.5h245c4.142 0 7.5-3.358 7.5-7.5s-3.358-7.5-7.5-7.5zm-114.706 30h-130.294c-4.142 0-7.5 3.358-7.5 7.5s3.358 7.5 7.5 7.5h130.294c4.142 0 7.5-3.358 7.5-7.5s-3.358-7.5-7.5-7.5z" fill="#a7d0fc"/><path d="m512 88.13v105.929c0 22.092-17.909 40-40 40h-281.723c-22.091 0-40-17.908-40-40v-105.929c0-22.091 17.909-40 40-40h281.723c22.091 0 40 17.909 40 40z" fill="#fb5858"/><path d="m213.697 234.059h-43.697c-22.091 0-40-17.908-40-40v-105.929c0-22.091 17.909-40 40-40h43.697c-22.091 0-40 17.909-40 40v105.929c0 22.092 17.908 40 40 40z" fill="#f44545"/><path d="m400.35 185.867c.023 4.142-3.316 7.519-7.458 7.542-9.689.054-16.311.076-20.857.076-9.411 0-9.951-.093-10.48-.184-3.601-.618-6.231-3.739-6.231-7.392v-85.678c0-4.142 3.357-7.5 7.5-7.5s7.5 3.358 7.5 7.5v78.25c5.884.01 14.494-.027 22.485-.072h.043c4.122 0 7.474 3.33 7.498 7.458zm-162.252-93.136c-4.143 0-7.5 3.358-7.5 7.5v33.905h-44.34v-33.905c0-4.142-3.357-7.5-7.5-7.5s-7.5 3.358-7.5 7.5v85.75c0 4.142 3.357 7.5 7.5 7.5s7.5-3.358 7.5-7.5v-36.846h44.34v36.846c0 4.142 3.357 7.5 7.5 7.5s7.5-3.358 7.5-7.5v-85.75c0-4.142-3.358-7.5-7.5-7.5zm81.377 15.783c4.143 0 7.5-3.358 7.5-7.5s-3.357-7.5-7.5-7.5h-35.802c-4.143 0-7.5 3.358-7.5 7.5v84.967c0 4.142 3.357 7.5 7.5 7.5h35.802c4.143 0 7.5-3.358 7.5-7.5s-3.357-7.5-7.5-7.5h-28.302v-27.484h25.662c4.143 0 7.5-3.358 7.5-7.5s-3.357-7.5-7.5-7.5h-25.662v-27.484h28.302zm161.314 15.916c0 17.479-14.433 31.699-32.173 31.699-3.741 0-10.906.035-16.377.064v29.788c0 4.142-3.357 7.5-7.5 7.5s-7.5-3.358-7.5-7.5v-85.75c0-.024.001-.048.001-.073 0-.034 0-.069.001-.103.001-.042.003-.084.004-.126.001-.019.001-.037.002-.055.002-.056.006-.112.01-.168 0-.004 0-.007.001-.011.271-3.83 3.416-6.866 7.293-6.961.063-.002.125-.002.188-.002h23.877c17.74-.001 32.173 14.219 32.173 31.698zm-15 0c0-9.052-7.864-16.699-17.173-16.699h-16.354c.017 5.847.037 13.485.037 16.699 0 3.8.035 11.145.064 16.762 5.463-.03 12.53-.064 16.253-.064 9.309 0 17.173-7.647 17.173-16.698z" fill="#fff"/></g></svg>