<svg xmlns="http://www.w3.org/2000/svg" viewBox="0 0 1024 1024">
            <g transform="scale(1,-1) translate(0 -960)">
              <path d="M813.733 685.734c-80.667 80.533-187.733 124.933-301.733 124.933s-221.067-44.4-301.733-124.933c-80.533-80.667-124.933-187.733-124.933-301.733 0-109.733 41.2-213.2 116.267-292.8l-114.4-114.4 60.4-60.4 118.667 118.667c71.333-50.533 156.4-77.733 245.733-77.733s174.4 27.2 245.867 77.867l118.667-118.667 60.4 60.4-114.4 114.4c74.933 79.467 116.133 182.933 116.133 292.667 0 114-44.4 221.067-124.933 301.733zM170.667 384c0 188.267 153.067 341.333 341.333 341.333s341.333-153.067 341.333-341.333c0-188.267-153.067-341.333-341.333-341.333s-341.333 153.067-341.333 341.333zM335.067 851.067c4 4 6.267 9.467 6.267 15.067s-2.267 11.067-6.267 15.067c-76.533 76.4-201.067 76.4-277.467 0-37.067-37.067-57.6-86.4-57.6-138.8s20.4-101.733 57.6-138.8c4-4 9.467-6.267 15.067-6.267s11.067 2.267 15.067 6.267l247.333 247.467zM87.733 851.067c29.867 29.867 69.2 44.8 108.533 44.8 32.667 0 65.2-10.267 92.533-30.8l-215.067-215.2c-45.467 60.133-40.8 146.4 14 201.2zM966.533 881.067c-37.067 37.067-86.4 57.6-138.8 57.6s-101.733-20.4-138.8-57.6c-4-4-6.267-9.467-6.267-15.067s2.267-11.067 6.267-15.067l247.467-247.333c4-4 9.467-6.267 15.067-6.267v0c5.6 0 11.067 2.267 15.067 6.267 37.067 37.067 57.467 86.4 57.467 138.8 0.133 52.4-20.4 101.6-57.467 138.667zM950.4 649.867l-215.2 215.067c26.533 20.133 58.667 30.933 92.533 30.933 41.067 0 79.6-16 108.667-45.067 29.067-28.933 45.067-67.467 44.933-108.533 0-33.733-10.8-65.867-30.933-92.4zM508.133 387.734l-198.933 88.4-17.333-38.933 211.467-94c2.8-1.2 5.733-1.867 8.667-1.867 5.067 0 10.133 1.867 14.133 5.333l208 184.8-28.4 31.867-197.6-175.6z"/>
            </g></svg>