<svg xmlns="http://www.w3.org/2000/svg" viewBox="0 0 1024 1024">
            <g transform="scale(1,-1) translate(0 -960)">
              <path d="M938.667 725.334h-152.933l-103.067 103.067c-16.133 16-37.6 24.933-60.4 24.933h-220.533c-22.8 0-44.267-8.933-60.4-24.933l-103.067-103.067h-152.933c-47.067 0-85.333-38.267-85.333-85.333v-554.667c0-47.067 38.267-85.333 85.333-85.333h853.333c47.067 0 85.333 38.267 85.333 85.333v554.667c0 47.067-38.267 85.333-85.333 85.333zM938.667 85.334h-853.333v554.667h152.933c22.8 0 44.267 8.933 60.4 24.933l103.067 103.067h220.667l103.067-103.067c16.133-16.133 37.6-24.933 60.4-24.933h152.8v-554.667zM512 640c-141.2 0-256-114.8-256-256s114.8-256 256-256 256 114.8 256 256-114.8 256-256 256zM512 213.334c-94.133 0-170.667 76.533-170.667 170.667s76.533 170.667 170.667 170.667c94.133 0 170.667-76.533 170.667-170.667s-76.533-170.667-170.667-170.667zM426.667 384h-42.667c0-70.533 57.467-128 128-128v42.667c-47.067 0-85.333 38.267-85.333 85.333zM128 597.334h85.333v-42.667h-85.333v42.667z"/>
            </g></svg>