<svg xmlns="http://www.w3.org/2000/svg" viewBox="0 0 1024 1024">
            <g transform="scale(1,-1) translate(0 -960)">
              <path d="M341.333 85.334c0-47.067 38.267-85.333 85.333-85.333s85.333 38.267 85.333 85.333-38.267 85.333-85.333 85.333-85.333-38.267-85.333-85.333zM426.667 128c23.467 0 42.667-19.2 42.667-42.667s-19.2-42.667-42.667-42.667-42.667 19.2-42.667 42.667 19.2 42.667 42.667 42.667zM725.333 85.334c0-47.067 38.267-85.333 85.333-85.333s85.333 38.267 85.333 85.333-38.267 85.333-85.333 85.333-85.333-38.267-85.333-85.333zM810.667 128c23.467 0 42.667-19.2 42.667-42.667s-19.2-42.667-42.667-42.667-42.667 19.2-42.667 42.667 19.2 42.667 42.667 42.667zM779.867 341.334c36 0 68 22.533 80.267 56.133l117.6 268c5.733 13.2 4.533 28.4-3.333 40.533s-21.333 19.333-35.733 19.333h-97.867l-164.4 164.4c-8.267 8.267-21.867 8.267-30.133 0l-91.6-91.6-48.933 48.933c-8.267 8.267-21.867 8.267-30.133 0l-121.733-121.733h-92.8l-40.4 80.8c-14.533 29.067-43.733 47.2-76.4 47.2h-144.267v-85.333h144.267c0 0 0 0 0 0l187.867-375.6-97.333-97.333c-20.933-20.933-27.2-52.133-15.867-79.467s37.733-44.933 67.333-44.933h652.4v85.333h-622.267l85.333 85.333h378.133zM661.333 844.534l119.2-119.2h-238.4l119.2 119.2zM490.667 801.867l33.867-33.867-42.667-42.667h-67.6l76.4 76.533zM892.133 682.667l-110.8-252.267c-0.533-1.2-0.933-2.4-1.333-3.6 0-0.133 0-0.133-0.133-0.133h-369.467l-128 256h609.733z"/>
            </g></svg>