<svg xmlns="http://www.w3.org/2000/svg" viewBox="0 0 1024 1024">
            <g transform="scale(1,-1) translate(0 -960)">
              <path d="M938.667 938.667h-853.333c-47.067 0-85.333-38.267-85.333-85.333v-917.333c0-11.733 9.6-21.333 21.333-21.333h768c11.733 0 21.333 9.6 21.333 21.333v618.667h128c47.067 0 85.333 38.267 85.333 85.333v213.333c0 47.067-38.267 85.333-85.333 85.333zM85.333 853.334h512v-213.333h-512v213.333zM768-42.666h-725.333v597.333h725.333v-597.333zM938.667 640h-298.667v213.333h298.667v-213.333c0.133 0 0 0 0 0zM789.333 734.134l-85.333 85.333-30.133-30.133 100.4-100.4c4.133-4.133 9.6-6.267 15.067-6.267s10.933 2.133 15.067 6.267l100.4 100.4-30.133 30.133-85.333-85.333zM128 469.334h384v-42.667h-384v42.667zM554.667 469.334h128v-42.667h-128v42.667zM128 341.334h384v-42.667h-384v42.667zM554.667 341.334h128v-42.667h-128v42.667zM128 213.334h384v-42.667h-384v42.667zM554.667 213.334h128v-42.667h-128v42.667zM128 85.334h384v-42.667h-384v42.667zM554.667 85.334h128v-42.667h-128v42.667zM170.667 768h341.333v-42.667h-341.333v42.667z"/>
            </g></svg>