<svg xmlns="http://www.w3.org/2000/svg" viewBox="0 0 1024 1024">
            <g transform="scale(1,-1) translate(0 -960)">
              <path d="M1012.8 455.467c-81.067 88.4-163.733 155.867-245.733 200.667-84.133 45.867-170 69.2-255.067 69.2s-170.933-23.333-255.067-69.2c-82-44.667-164.667-112.267-245.733-200.667-14.933-16.267-14.933-41.333 0-57.6 81.067-88.4 163.733-155.867 245.733-200.667 84.133-45.867 170-69.2 255.067-69.2s170.933 23.333 255.067 69.2c82 44.667 164.667 112.267 245.733 200.667 14.933 16.267 14.933 41.333 0 57.6zM682.667 469.334c0-94.133-76.533-170.667-170.667-170.667s-170.667 76.533-170.667 170.667c0 94.133 76.533 170.667 170.667 170.667v0c94.133 0 170.667-76.533 170.667-170.667zM512 213.334c-134.4 0-272.4 71.733-410.667 213.333 82.267 84.4 164.533 143.867 246 178.267-30.4-36.933-48.667-84.133-48.667-135.6 0-117.6 95.733-213.333 213.333-213.333s213.333 95.733 213.333 213.333c0 51.467-18.267 98.667-48.8 135.6 81.467-34.4 163.733-93.867 246.133-178.267-138.267-141.6-276.267-213.333-410.667-213.333z"/>
            </g></svg>