<svg xmlns="http://www.w3.org/2000/svg" viewBox="0 0 1024 1024">
            <g transform="scale(1,-1) translate(0 -960)">
              <path d="M384 640c-47.067 0-85.333-38.267-85.333-85.333s38.267-85.333 85.333-85.333 85.333 38.267 85.333 85.333-38.267 85.333-85.333 85.333zM384 512c-23.467 0-42.667 19.2-42.667 42.667s19.2 42.667 42.667 42.667 42.667-19.2 42.667-42.667-19.2-42.667-42.667-42.667zM597.333 938.667h-384c-47.067 0-85.333-38.267-85.333-85.333v-853.333c0-47.067 38.267-85.333 85.333-85.333h597.333c47.067 0 85.333 38.267 85.333 85.333v640c0 164.667-134 298.667-298.667 298.667zM806.4 682.667h-166.4v166.4c83.467-17.067 149.333-82.933 166.4-166.4zM213.333 145.734l183.2 183.2c16.533 16.533 43.733 16.533 60.4 0l39.067-39.067 30.133 30.133-39.067 39.067c-33.333 33.2-87.467 33.2-120.667 0l-153.067-153.067v647.333h384v-192c0-11.733 9.6-21.333 21.333-21.333h192v-263.2l-24.933 24.933c-33.333 33.2-87.467 33.2-120.667 0l-401.733-401.733h-50v145.733zM810.667-0h-487.067l371.6 371.6c16.533 16.533 43.733 16.533 60.4 0l55.067-55.067v-316.533c0.133 0 0 0 0 0z"/>
            </g></svg>