<svg xmlns="http://www.w3.org/2000/svg" viewBox="0 0 1024 1024">
            <g transform="scale(1,-1) translate(0 -960)">
              <path d="M896.001 434.667v290.667c0 117.6-95.733 213.333-213.333 213.333h-298.667c-47.067 0-85.333-38.267-85.333-85.333v-85.333h-170.667c-47.067 0-85.333-38.267-85.333-85.333v-682.667c0-47.067 38.267-85.333 85.333-85.333h426.667c35.2 0 65.467 21.333 78.533 51.867 22.667-6 46.4-9.2 70.8-9.2 152.933 0 277.333 124.4 277.333 277.333 0 78.533-32.8 149.467-85.333 200zM810.667 725.334h-128v128c70.533 0 128-57.467 128-128zM384.001 853.334h256v-149.333c0-11.733 9.6-21.333 21.333-21.333h149.333v-192c-32.8 13.733-68.933 21.333-106.667 21.333-22 0-43.467-2.533-64-7.467v50.133c0 117.6-95.733 213.333-213.333 213.333h-42.667v85.333zM426.667 682.667c70.533 0 128-57.467 128-128h-128v128zM554.667-0h-426.667v682.667h256v-149.333c0-11.733 9.6-21.333 21.333-21.333h149.333v-43.733c-76.933-49.333-128-135.6-128-233.6s51.067-184.267 128-233.6v-1.067zM704.001-0c-129.333 0-234.667 105.333-234.667 234.667s105.333 234.667 234.667 234.667 234.667-105.333 234.667-234.667-105.333-234.667-234.667-234.667zM746.667 392.8l-30.133-30.133 21.333-21.333h-140.533v-42.667h140.533l-21.333-21.333 30.133-30.133 57.733 57.733c8.267 8.267 8.267 21.867 0 30.133l-57.733 57.733zM691.467 192l-30.133 30.133-57.733-57.733c-8.267-8.267-8.267-21.867 0-30.133l57.733-57.733 30.133 30.133-21.333 21.333h140.533v42.667h-140.533l21.333 21.333z"/>
            </g></svg>