<svg xmlns="http://www.w3.org/2000/svg" viewBox="0 0 1024 1024">
            <g transform="scale(1,-1) translate(0 -960)">
              <path d="M848.933 333.467c-16.8 118.933-76.933 237.067-178.933 350.933-102.267 114.267-223.2 198-306.667 248.133-14.8 8.933-33.467 8-47.333-2.267s-20.133-27.867-16-44.667c38.533-154.133-6.8-250.133-54.667-351.733-23.2-49.2-47.067-100-61.333-157.333-16.267-66-17.2-131.867-2.667-201.2 0.133-0.533 0.267-1.067 0.4-1.6 22-88.533 77.2-163.067 155.333-210 53.733-32.267 114-48.933 175.2-48.933 27.733 0 55.6 3.333 83.2 10.267 44.667 11.067 85.333 30.533 120.933 57.733 34 26 62.533 58.267 84.933 96.133 43.333 73.733 60.267 164 47.6 254.533zM574.8 7.867c-66.4-16.533-135.2-6.267-193.733 28.933-58.4 35.067-99.733 90.8-116.4 156.8-26.133 125.867 12.8 208.4 57.733 304 25.333 53.867 51.6 109.467 66.133 175.067 9.867 44.4 13.2 89.333 10 135.6 137.2-95.2 335.067-267.867 365.867-486.667 20.933-149.2-58.8-281.2-189.6-313.733zM637.733 254.534c-21.733 140-129.733 208.667-134.267 211.6-6.533 4.133-14.8 4.267-21.6 0.533s-10.933-10.933-10.933-18.667c0-67.467-23.867-102.4-46.933-136.267-23.333-34.133-47.333-69.467-37.6-129.2 0-0.267 0.133-0.533 0.133-0.8 6.4-31.467 25.333-58.533 53.2-76.133 21.2-13.333 46-20.4 71.6-20.4 7.467 0 15.067 0.533 22.667 1.733 0.133 0 0.133 0 0.267 0 33.467 5.733 62.267 23.733 81.067 50.533 21.2 30.133 28.933 70.4 22.667 116.4-0.133 0.4-0.267 0.533-0.267 0.667zM527.067 129.2c-46.8-7.333-90 19.2-98.8 60.667-6.8 42.667 8.933 65.733 30.8 97.733 19.6 28.8 43.2 63.2 51.333 118.267 6.533-6.133 13.867-13.467 21.2-22 34.667-40 56.133-85.733 63.867-135.733 10.667-76.933-28.267-111.867-68.4-118.933z"/>
            </g></svg>