<svg xmlns="http://www.w3.org/2000/svg" viewBox="0 0 1024 1024">
            <g transform="scale(1,-1) translate(0 -960)">
              <path d="M733.6 311.867c-52.667 39.733-106.4 80.4-158.8 123.867 17.333 20.133 34.933 39.6 52.933 58.533l61.2-61.2c4.133-4.133 9.6-6.267 15.067-6.267s10.933 2.133 15.067 6.267l213.333 213.333c105.067 105.067 120.267 206.533 42.8 286-4 4.133-9.467 6.4-15.2 6.4-5.733 0.133-11.2-2.267-15.2-6.267l-357.6-357.867c-26.533-26.533-54.267-52.4-82.933-77.867-13.067 12-26 24.267-38.8 36.8 2.267 7.333 3.867 15.867 4 25.733 0.4 44.8-30.4 98.533-91.6 159.733 0 0 0 0 0 0v0l-185.867 185.733-30.133-30.133 185.733-185.733c9.333-9.333 9.333-24.533 0-33.867-4.533-4.533-10.533-7.067-16.933-7.067s-12.4 2.533-16.933 7.067l-207.067 207.067-30.133-30.133 207.067-207.067c4.533-4.533 7.067-10.533 7.067-16.933s-2.533-12.4-7.067-16.933c-9.333-9.333-24.533-9.333-33.867 0v0l-185.733 185.733-30.133-30.133 185.733-185.733c0 0 0 0 0 0 60.8-60.8 114.267-91.6 158.933-91.6 0.267 0 0.533 0 0.933 0 9.733 0.133 18.267 1.6 25.733 4 11.067-11.2 21.733-22.533 32.4-34-45.6-38.267-92.267-75.6-138.267-112.4-97.6-78.133-189.733-151.733-268-230.133-41.467-41.467-41.467-109.067 0-150.933 20.8-20.8 48-31.067 75.333-31.067s54.667 10.4 75.467 31.2c78.8 78.8 149.6 174 224.533 274.8 33.6 45.067 67.6 90.8 102.667 135.333 41.067-50 79.6-100.933 117.467-151.067 70.133-92.8 136.267-180.4 215.067-259.2 20.8-20.8 48.133-31.2 75.467-31.2s54.667 10.4 75.467 31.2c41.6 41.6 41.6 109.2 0 150.8-78.8 78.933-166.4 145.067-259.2 215.2zM958.8 886c42.933-58.533 24-128.933-56.533-209.467l-198.267-198.4-76.533 76.533 331.333 331.333zM378.933 511.867c-16.533-0.133-42.933 7.067-81.733 36.933 6 3.067 11.6 7.067 16.533 12.133 12.4 12.4 18.8 28.4 19.467 44.533 16.267 0.667 32.267 7.067 44.533 19.467 4.933 4.933 9.067 10.533 12.133 16.533 29.867-38.8 37.067-65.2 36.933-81.733-0.133-18.133-9.467-27.067-13.867-31.333-0.533-0.533-0.933-0.933-1.333-1.333s-0.8-0.8-1.333-1.333c-4.267-4.4-13.2-13.6-31.333-13.867zM121.867 6.4c-8.4-8.4-22-8.4-30.133-0.133-8.4 8.4-8.4 22-0.133 30.267 60 60 129.6 118.133 204 178.133-57.733-76.933-114-148.533-173.733-208.267zM932.4 6.267c-8.267-8.267-21.867-8.267-30.133 0-59.867 59.867-113.2 126.667-167.2 197.333 70.667-54 137.467-107.333 197.333-167.2 8.4-8.267 8.4-21.867 0-30.133z"/>
            </g></svg>