<svg xmlns="http://www.w3.org/2000/svg" viewBox="0 0 1024 1024">
            <g transform="scale(1,-1) translate(0 -960)">
              <path d="M938.667 938.667h-853.333c-47.067 0-85.333-38.267-85.333-85.333v-853.333c0-47.067 38.267-85.333 85.333-85.333h853.333c47.067 0 85.333 38.267 85.333 85.333v853.333c0 47.067-38.267 85.333-85.333 85.333zM938.667 597.334h-256v256h256v-256zM384 298.667v256h256v-256h-256zM640 256v-256h-256v256h256zM341.333 298.667h-256v256h256v-256zM384 597.334v256h256v-256h-256zM682.667 554.667h256v-256h-256v256zM341.333 853.334v-256h-256v256h256zM85.333 256h256v-256h-256v256zM938.667-0h-256v256h256v-256c0 0 0 0 0 0z"/>
            </g></svg>