<svg xmlns="http://www.w3.org/2000/svg" viewBox="0 0 1024 1024">
            <g transform="scale(1,-1) translate(0 -960)">
              <path d="M143.067 496.934l302.267 302.267c31.867 31.867 31.867 83.6 0 115.467s-83.6 31.867-115.467 0l-302.267-302.267c-2.933-2.933-5.067-6.8-5.867-10.933l-21.333-106.667c-1.333-6.933 0.8-14.267 5.867-19.333 4-4 9.467-6.267 15.067-6.267 1.333 0 2.8 0.133 4.133 0.4l106.667 21.333c4.133 0.933 8 3.067 10.933 6zM415.2 884.534c15.2-15.2 15.2-40 0-55.2l-9.867-9.867-55.2 55.2 9.867 9.867c15.2 15.2 40 15.2 55.2 0zM48.533 517.867l13.733 68.933 257.733 257.733 55.2-55.2-257.733-257.733-68.933-13.733zM957.733 121.467c-86.667-104.8-167.333-144.667-215.867-106.667-48 37.6-69.067 140.533-53.867 262.133 2.4 19.2 5.6 38.533 9.6 58 111.333 6.133 196.267 6.267 198.267 6.267v85.333c-7.6 0-78.8-0.133-175.467-4.8 34.4 108.533 91.6 218.8 167.067 320.8 11.2 15.067 11.2 35.6 0.133 50.667s-30.667 21.2-48.4 15.067c-212.4-73.867-350.133-246.4-464.933-421.6-68.667-12.267-131.467-28.133-178.267-48.933l34.667-78c22.533 10 49.6 18.8 79.733 26.4-3.067-5.067-6.267-10-9.333-14.933-70.667-113.2-137.333-220.133-212.267-287.467l57.067-63.467c83.867 75.333 153.6 187.2 227.6 305.733 17.067 27.2 34.4 55.067 52.133 82.8 59.733 9.2 123.6 15.733 184.267 20.4-2.533-14-4.533-27.867-6.267-41.6-9.333-74.267-6.933-144 6.8-201.733 14.533-61.333 42-109.067 79.2-138.267 27.467-21.467 59.733-32.4 94.267-32.4 20.933 0 42.8 4 64.933 12.133 56.667 20.8 115.467 67.867 174.933 139.733l-66 54.4zM488.667 403.334c68.667 97.6 146.8 189.6 243.067 255.333-44.667-79.467-79.067-161.333-101.867-242.267-45.467-3.2-93.467-7.467-141.2-13.067z"/>
            </g></svg>