<svg xmlns="http://www.w3.org/2000/svg" viewBox="0 0 1024 1024">
            <g transform="scale(1,-1) translate(0 -960)">
              <path d="M723.2 849.867c-56.4 57.067-131.067 88.533-210.267 88.8-0.267 0-0.533 0-0.8 0-79.6 0-154.4-30.933-210.933-87.2-56.667-56.533-87.867-131.6-87.867-211.467 0-132.933 46.267-191.333 83.6-238.267 25.733-32.533 44.4-56 44.4-103.067v-128c0-47.067 38.267-85.333 85.333-85.333h170.667c47.067 0 85.333 38.267 85.333 85.333v128c0 46.933 18.667 70.533 44.4 102.933 36.667 46.133 82.4 103.467 83.6 232.933 0.4 40.8-7.333 80.667-22.933 118.267-15.2 36.4-36.8 69.067-64.533 97.067zM725.333 635.334c-0.933-100-32.133-139.2-65.067-180.533 0 0 0 0 0 0-29.467-37.2-62.933-79.333-62.933-156v-128h-170.667v128c0 76.667-33.467 118.933-62.933 156.133-33.467 42-65.067 81.867-65.067 185.067 0 57.067 22.267 110.667 62.8 150.933 40.267 40.267 93.733 62.4 150.533 62.4 0.267 0 0.4 0 0.667 0 56.267-0.133 109.467-22.667 149.733-63.467 41.2-41.6 63.467-96.4 62.933-154.533zM384 42.667h256v-42.667h-256v42.667zM469.333-42.666h85.333v-42.667h-85.333v42.667zM896 640h128v-42.667h-128v42.667zM845.991 841.523l123.546 61.773 19.081-38.161-123.546-61.773-19.081 38.161zM845.992 395.789l19.081 38.161 123.546-61.773-19.081-38.161-123.546 61.773zM0 640h128v-42.667h-128v42.667zM35.349 865.138l19.081 38.161 123.546-61.773-19.081-38.161-123.546 61.773zM35.337 372.203l123.546 61.773 19.081-38.161-123.546-61.773-19.081 38.161z"/>
            </g></svg>