<svg xmlns="http://www.w3.org/2000/svg" viewBox="0 0 1024 1024">
            <g transform="scale(1,-1) translate(0 -960)">
              <path d="M886.267 725.334l-352.667 207.467c-13.333 7.867-29.867 7.867-43.2 0l-352.667-207.467h-137.733v-85.333h149.333c7.6 0 15.067 2 21.6 5.867l341.067 200.667 341.067-200.667c6.533-3.867 14-5.867 21.6-5.867h149.333v85.333h-137.733zM0 597.334h1024v-42.667h-1024v42.667zM42.667 128v-42.667h170.667v42.667h-42.667v341.333h42.667v42.667h-170.667v-42.667h42.667v-341.333zM298.667 128v-42.667h170.667v42.667h-42.667v341.333h42.667v42.667h-170.667v-42.667h42.667v-341.333zM554.667 128v-42.667h170.667v42.667h-42.667v341.333h42.667v42.667h-170.667v-42.667h42.667v-341.333zM810.667 128v-42.667h170.667v42.667h-42.667v341.333h42.667v42.667h-170.667v-42.667h42.667v-341.333zM0 42.667h1024v-42.667h-1024v42.667zM0-42.666h1024v-42.667h-1024v42.667z"/>
            </g></svg>