<svg xmlns="http://www.w3.org/2000/svg" viewBox="0 0 1024 1024">
            <g transform="scale(1,-1) translate(0 -960)">
              <path d="M512 288c0-36.933-14.4-71.733-40.533-98l-64.133-64.133c-54-54-142-54-196 0s-54 142 0 196l64.133 64.133c26.133 26.133 60.933 40.533 98 40.533h10.533v85.333h-10.533c-59.867 0-116-23.333-158.4-65.6l-64.133-64.133c-87.333-87.333-87.333-229.333 0-316.667 43.6-43.6 100.933-65.467 158.4-65.467 57.333 0 114.667 21.867 158.4 65.467l64.133 64.133c42.133 42.4 65.467 98.667 65.467 158.4v10.667h-85.333v-10.667zM873.067 787.734c-87.333 87.333-229.333 87.333-316.667 0l-64.133-64.133c-42.267-42.267-65.6-98.533-65.6-158.267v-10.667h85.333v10.667c0 36.933 14.4 71.733 40.533 98l64.133 64.133c54 54 142 54 196 0s54-142 0-196l-64.133-64.133c-26.133-26.133-60.933-40.533-98-40.533h-10.533v-85.333h10.533c59.867 0 116 23.333 158.4 65.6l64.133 64.133c87.333 87.2 87.333 229.2 0 316.533zM343.138 318.151l277.372 277.372 60.339-60.339-277.372-277.372-60.339 60.339z"/>
            </g></svg>