<svg xmlns="http://www.w3.org/2000/svg" viewBox="0 0 1024 1024">
            <g transform="scale(1,-1) translate(0 -960)">
              <path d="M768 512v85.333c0 68.4-26.667 132.667-74.933 181.067s-112.667 74.933-181.067 74.933-132.667-26.667-181.067-74.933-74.933-112.667-74.933-181.067v-85.333c-47.067 0-85.333-38.267-85.333-85.333v-341.333c0-47.067 38.267-85.333 85.333-85.333h512c47.067 0 85.333 38.267 85.333 85.333v341.333c0 47.067-38.267 85.333-85.333 85.333zM341.333 597.334c0 94.133 76.533 170.667 170.667 170.667s170.667-76.533 170.667-170.667v-85.333h-341.333v85.333zM768 85.334h-512v341.333h512v-341.333c0.133 0 0 0 0 0zM384 298.667c-23.467 0-42.667-19.2-42.667-42.667s19.2-42.667 42.667-42.667 42.667 19.2 42.667 42.667-19.2 42.667-42.667 42.667zM384 256c0 0 0 0 0 0v0zM512 298.667c-23.467 0-42.667-19.2-42.667-42.667s19.2-42.667 42.667-42.667c23.467 0 42.667 19.2 42.667 42.667s-19.2 42.667-42.667 42.667zM512 256c0 0 0 0 0 0v0zM640 298.667c-23.467 0-42.667-19.2-42.667-42.667s19.2-42.667 42.667-42.667 42.667 19.2 42.667 42.667-19.2 42.667-42.667 42.667zM640 256c0 0 0 0 0 0v0z"/>
            </g></svg>