<svg xmlns="http://www.w3.org/2000/svg" viewBox="0 0 1024 1024">
            <g transform="scale(1,-1) translate(0 -960)">
              <path d="M789.333 725.334h-405.333v42.667h64c11.733 0 21.333 9.6 21.333 21.333v128c0 11.733-9.6 21.333-21.333 21.333h-170.667c-11.733 0-21.333-9.6-21.333-21.333v-192h-131.6c-8.8 24.8-32.533 42.667-60.4 42.667-35.333 0-64-28.667-64-64v-597.333c0-11.733 9.6-21.333 21.333-21.333h85.333c11.733 0 21.333 9.6 21.333 21.333v21.333h256v-192c0-11.733 9.6-21.333 21.333-21.333h213.333c11.733 0 21.333 9.6 21.333 21.333v192h298.667c47.067 0 85.333 38.267 85.333 85.333v277.333c0 129.333-105.333 234.667-234.667 234.667zM85.333 128h-42.667v576c0 11.733 9.6 21.333 21.333 21.333s21.333-9.6 21.333-21.333v-576zM384 469.334v-128h-128v128h128zM426.667 896v-85.333h-64c-11.733 0-21.333-9.6-21.333-21.333v-277.333h-42.667v384h128zM554.667-42.666h-85.333v170.667h85.333v-170.667zM938.667 213.334h-810.667v426.667h128v-128h-21.333c-11.733 0-21.333-9.6-21.333-21.333v-170.667c0-11.733 9.6-21.333 21.333-21.333h170.667c11.733 0 21.333 9.6 21.333 21.333v170.667c0 11.733-9.6 21.333-21.333 21.333h-21.333v128h405.333c82.4 0 149.333-66.933 149.333-149.333v-277.333z"/>
            </g></svg>