<svg xmlns="http://www.w3.org/2000/svg" viewBox="0 0 1024 1024">
            <g transform="scale(1,-1) translate(0 -960)">
              <path d="M753.333 838.667c-64.4 64.533-150.133 100-241.333 100s-176.933-35.467-241.333-100c-64.533-64.533-100-150.133-100-241.333 0-113.867 52.133-261.067 155.2-437.467 75.2-128.933 149.333-224.667 152.533-228.667 8.133-10.4 20.533-16.533 33.733-16.533s25.6 6.133 33.733 16.533c3.067 4 77.333 99.733 152.533 228.667 102.8 176.4 154.933 323.6 154.933 437.467 0 91.2-35.467 176.933-100 241.333zM512 29.334c-76.4 107.2-256 379.333-256 568 0 141.2 114.8 256 256 256s256-114.8 256-256c0-188.667-179.6-460.8-256-568zM512 768c-94.133 0-170.667-76.533-170.667-170.667s76.533-170.667 170.667-170.667c94.133 0 170.667 76.533 170.667 170.667s-76.533 170.667-170.667 170.667zM512 469.334c-70.533 0-128 57.467-128 128s57.467 128 128 128 128-57.467 128-128-57.467-128-128-128z"/>
            </g></svg>