<svg xmlns="http://www.w3.org/2000/svg" viewBox="0 0 1024 1024">
            <g transform="scale(1,-1) translate(0 -960)">
              <path d="M512 554.667c-70.533 0-128-57.467-128-128s57.467-128 128-128 128 57.467 128 128-57.467 128-128 128zM512 384c-23.467 0-42.667 19.2-42.667 42.667s19.2 42.667 42.667 42.667c23.467 0 42.667-19.2 42.667-42.667s-19.2-42.667-42.667-42.667zM512 213.334c-70.533 0-128-57.467-128-128s57.467-128 128-128 128 57.467 128 128-57.467 128-128 128zM512 42.667c-23.467 0-42.667 19.2-42.667 42.667s19.2 42.667 42.667 42.667c23.467 0 42.667-19.2 42.667-42.667s-19.2-42.667-42.667-42.667zM512 640c70.533 0 128 57.467 128 128s-57.467 128-128 128-128-57.467-128-128 57.467-128 128-128zM512 810.667c23.467 0 42.667-19.2 42.667-42.667s-19.2-42.667-42.667-42.667c-23.467 0-42.667 19.2-42.667 42.667s19.2 42.667 42.667 42.667z"/>
            </g></svg>