<svg xmlns="http://www.w3.org/2000/svg" viewBox="0 0 1024 1024">
            <g transform="scale(1,-1) translate(0 -960)">
              <path d="M512 426.667h-42.667v-85.333h-21.333c-35.333 0-64-28.667-64-64s28.667-64 64-64h85.333c11.733 0 21.333-9.6 21.333-21.333s-9.6-21.333-21.333-21.333h-149.333v-42.667h85.333v-85.333h42.667v85.333h21.333c35.333 0 64 28.667 64 64s-28.667 64-64 64h-85.333c-11.733 0-21.333 9.6-21.333 21.333s9.6 21.333 21.333 21.333h149.333v42.667h-85.333v85.333zM888.933 719.867c-41.067 37.067-89.2 53.467-139.2 47.2-49.733-6.267-94.267-33.733-124.8-64.533-6.8 8-15.467 14.4-25.333 18.267 4.4 16.933 15.067 37.067 30.8 58.133 18.667 24.933 37.867 42.533 38 42.667 9.733 8.667 14.8 21.467 14 34.4-0.8 13.067-7.6 24.933-18.267 32.267-48.667 33.733-85.867 49.067-120.8 49.733-35.467 0.667-60.8-14.533-81.2-26.8-27.333-16.4-51.067-30.533-111.333-16.533-18.533 4.267-37.733-4.133-46.933-20.8-9.333-16.667-6.4-37.467 7.067-50.933 25.467-25.6 59.867-70.267 70-102.667-23.2-9.333-39.6-32.267-39.6-58.933 0-24 13.333-44.933 32.933-55.867-24.4-48.667-64.133-99.867-102.667-149.6-70.667-91.333-143.6-185.6-143.6-285.2 0-39.067 9.2-75.333 27.2-108 17.6-31.867 43.333-59.467 76.533-82 63.6-43.2 153.2-66 258.933-66s195.333 22.8 258.933 66c33.067 22.533 58.8 50 76.533 82 18 32.667 27.2 68.933 27.2 108 0 99.6-72.933 193.867-143.6 285.067-38.533 49.867-78.267 101.067-102.667 149.6 14 7.867 24.8 20.667 29.867 36.133 65.2 3.867 108.667-20.533 133.067-74.4l8.8-19.467 38.933 17.6-8.8 19.467c-20.133 44.8-51.6 74.933-93.467 89.6-14.667 5.2-30.4 8.4-47.333 9.6 23.333 19.733 54.133 36.4 87.067 40.533 37.867 4.8 73.333-7.467 105.333-36.4l15.867-14.267 28.667 31.6-16.133 14.533zM576 640h-170.667c-11.733 0-21.333 9.6-21.333 21.333s9.6 21.333 21.333 21.333h170.667c11.733 0 21.333-9.6 21.333-21.333 0 0 0 0 0 0s0 0 0 0c0-11.733-9.6-21.333-21.333-21.333zM506.133 838.134c16.667 10 25.2 14.8 35.733 14.667 8.267-0.133 18.533-3.2 30.933-8.933-24.4-29.867-52.133-72.667-59.2-118.533h-46.267c-4.267 24.933-16 52.4-34.8 81.867 32.267 6.133 54.933 19.733 73.6 30.933zM768 170.667c0-105.333-106.267-170.667-277.333-170.667s-277.333 65.333-277.333 170.667c0 70.4 63.867 152.933 125.733 232.8 48.533 62.667 98.533 127.333 125.067 193.867h53.067c26.533-66.533 76.667-131.2 125.067-193.867 61.867-79.867 125.733-162.4 125.733-232.8z"/>
            </g></svg>