<svg xmlns="http://www.w3.org/2000/svg" viewBox="0 0 1024 1024">
            <g transform="scale(1,-1) translate(0 -960)">
              <path d="M725.333 768h-42.667v170.667h42.667v-170.667zM853.333 640v-42.667h170.667v42.667h-170.667zM917.333 862.134l-115.467-115.467 30.133-30.133 115.467 115.467-30.133 30.133zM341.333 768h-42.667v170.667h42.667v-170.667zM0 597.334h170.667v42.667h-170.667v-42.667zM106.667 862.134l-30.133-30.133 115.467-115.467 30.133 30.133-115.467 115.467zM576 725.334h-127.333c-62.533 0-121.467-24.4-165.733-68.533-44.267-44.267-68.8-103.067-68.933-165.6l-0.667-277.733v-0.133c0-79.6 31.067-154.533 87.333-210.933s131.067-87.467 210.8-87.733c0.133 0 0.4 0 0.533 0 78.8 0 153.2 31.067 209.733 87.467 27.733 27.733 49.6 60 64.933 96 15.867 37.333 24 76.8 24 117.333v275.2c0 129.333-105.333 234.667-234.667 234.667zM725.333 215.467c0-57.467-22.667-111.733-63.867-152.933-40.4-40.267-93.467-62.533-149.467-62.533-0.133 0-0.267 0-0.4 0-117.333 0.267-212.933 95.867-212.933 213.333l0.667 277.6c0.267 82.133 67.2 149.067 149.333 149.067h127.333c82.4 0 149.333-66.933 149.333-149.333v-275.2zM512 597.334c-47.067 0-85.333-38.267-85.333-85.333v-85.333c0-47.067 38.267-85.333 85.333-85.333s85.333 38.267 85.333 85.333v85.333c0 47.067-38.267 85.333-85.333 85.333zM554.667 426.667c0-23.467-19.2-42.667-42.667-42.667s-42.667 19.2-42.667 42.667v85.333c0 23.467 19.2 42.667 42.667 42.667s42.667-19.2 42.667-42.667v-85.333z"/>
            </g></svg>