<?xml version="1.0" encoding="iso-8859-1"?>
<!-- Uploaded to: SVG Repo, www.svgrepo.com, Generator: SVG Repo Mixer Tools -->
<svg fill="#000000" height="800px" width="800px" version="1.1" id="Layer_1" xmlns="http://www.w3.org/2000/svg" xmlns:xlink="http://www.w3.org/1999/xlink" 
	 viewBox="0 0 512 512" xml:space="preserve">
<g>
	<g>
		<path d="M476.262,338.401V50.742c0-33.328-31.776-57.695-64.01-48.95L193.56,61.161c-33.638,9.132-57.133,39.853-57.133,74.71
			V364.11c-6.691,0.711-13.407,1.927-20.085,3.637c-54.398,13.938-89.142,55.576-79.095,94.789
			C44.946,492.585,76.665,512,118.056,512c60.678,0,118.948-42.17,114.703-90.452V186.056l147.172-39.95v134.856
			c-6.691,0.711-13.407,1.927-20.085,3.637c-53.887,13.806-89.144,55.584-79.095,94.788c7.697,30.047,39.417,49.462,80.808,49.464
			c0.002,0,0.005,0,0.007,0C422.113,428.851,480.51,386.764,476.262,338.401z M361.565,395.309c-0.001,0-0.003,0-0.004,0
			c-24.792-0.001-44.661-9.971-48.318-24.247c-4.968-19.388,19.271-44.832,54.928-53.97c9.44-2.417,18.96-3.531,28.116-3.31
			c9.538,0.195,17.187-7.424,17.187-16.766V124.174c0-5.224-2.434-10.149-6.583-13.322c-4.149-3.174-9.54-4.233-14.582-2.865
			l-180.715,49.056c-7.306,1.985-12.378,8.616-12.378,16.187c0,263.771-0.048,249.563,0.093,250.882
			c2.464,23.322-34.808,54.344-81.252,54.344c-24.79,0-44.659-9.97-48.317-24.246c-4.537-17.708,16.906-44.228,54.928-53.97
			c9.075-2.325,18.548-3.541,28.115-3.311c9.347,0.252,17.187-7.293,17.187-16.766V135.871c0-19.754,13.313-37.163,32.377-42.339
			L421.04,34.166c10.748-2.924,21.679,5.146,21.679,16.577c0,305.388-0.051,288.866,0.093,290.223
			C445.276,364.307,407.97,395.309,361.565,395.309z"/>
	</g>
</g>
</svg>