<svg xmlns="http://www.w3.org/2000/svg" viewBox="0 0 1024 1024">
            <g transform="scale(1,-1) translate(0 -960)">
              <path d="M256 768h128v-42.667h-128v42.667zM256 682.667h128v-42.667h-128v42.667zM256 426.667h341.333v-42.667h-341.333v42.667zM256 341.334h298.667v-42.667h-298.667v42.667zM256 597.334h128v-42.667h-128v42.667zM576 768h-128c-11.733 0-21.333-9.6-21.333-21.333v-170.667c0-11.733 9.6-21.333 21.333-21.333h128c11.733 0 21.333 9.6 21.333 21.333v170.667c0 11.733-9.6 21.333-21.333 21.333zM554.667 597.334h-85.333v128h85.333v-128zM256 512h341.333v-42.667h-341.333v42.667zM853.333 725.334c0 47.067-38.267 85.333-85.333 85.333v42.667c0 47.067-38.267 85.333-85.333 85.333h-512c-47.067 0-85.333-38.267-85.333-85.333v-682.667c0-47.067 38.267-85.333 85.333-85.333h42.667c0-47.067 38.267-85.333 85.333-85.333 0-47.067 38.267-85.333 85.333-85.333h469.333c47.067 0 85.333 38.267 85.333 85.333v640c0 47.067-38.267 85.333-85.333 85.333zM170.667 170.667v682.667h512l0.133-682.667c0 0 0 0-0.133 0h-512zM256 85.334h426.667c47.067 0 85.333 38.267 85.333 85.333v597.333c23.467 0 42.667-19.2 42.667-42.667v-640c0-23.467-19.2-42.667-42.667-42.667h-469.333c-23.467 0-42.667 19.2-42.667 42.667zM896-0c0-23.467-19.2-42.667-42.667-42.667h-469.333c-23.467 0-42.667 19.2-42.667 42.667h426.667c47.067 0 85.333 38.267 85.333 85.333v597.333c23.467 0 42.667-19.2 42.667-42.667v-640z"/>
            </g></svg>