<svg xmlns="http://www.w3.org/2000/svg" viewBox="0 0 1024 1024">
            <g transform="scale(1,-1) translate(0 -960)">
              <path d="M810.667 938.667h-597.333c-47.067 0-85.333-38.267-85.333-85.333v-853.333c0-47.067 38.267-85.333 85.333-85.333h597.333c47.067 0 85.333 38.267 85.333 85.333v853.333c0 47.067-38.267 85.333-85.333 85.333zM810.667-0h-597.333v853.333h597.333v-853.333c0 0 0 0 0 0zM298.667 768h426.667v-42.667h-426.667v42.667zM298.667 682.667h170.667v-42.667h-170.667v42.667zM298.667 512h170.667v-42.667h-170.667v42.667zM298.667 426.667h170.667v-42.667h-170.667v42.667zM298.667 597.334h170.667v-42.667h-170.667v42.667zM298.667 298.667h426.667v-42.667h-426.667v42.667zM298.667 213.334h341.333v-42.667h-341.333v42.667zM298.667 128h426.667v-42.667h-426.667v42.667zM554.667 682.667h170.667v-42.667h-170.667v42.667zM554.667 512h170.667v-42.667h-170.667v42.667zM554.667 426.667h170.667v-42.667h-170.667v42.667zM554.667 597.334h170.667v-42.667h-170.667v42.667z"/>
            </g></svg>