<svg xmlns="http://www.w3.org/2000/svg" viewBox="0 0 1024 1024">
            <g transform="scale(1,-1) translate(0 -960)">
              <path d="M1011.467 584.8l-170.667 170.667c-14.533 14.533-37.2 16.667-54.133 5.067-59.867-40.667-159.733-97.067-244.267-122.4-16.533-4.933-28.533-19.333-30.267-36.533-10-98.267-60.133-283.733-123.733-412-4.533-9.2-5.6-19.333-3.333-28.8-34.933-32.8-82.4-56.8-134.667-68.133-52-11.2-103.867-8.533-142.267 7.333-29.867 12.4-65.467 38.533-65.467 93.2 0 64 53.733 153.067 105.733 239.067 70.533 116.8 137.067 227.067 94 303.333-14.267 25.333-40 44.4-76.4 56.667-36.4 12.4-83.733 18.4-144.667 18.4h-21.333v-42.667h21.333c102.133 0 164-18 184-53.333 30.8-54.667-32.267-159.2-93.467-260.267-54.933-91.2-111.867-185.333-111.867-261.2 0-60.933 32.667-108.133 91.867-132.667 28.133-11.733 60.933-17.6 95.733-17.6 23.2 0 47.467 2.667 71.867 8 59.733 12.933 114.533 40.8 154.933 78.8 4-1.2 8.133-1.733 12.267-1.733 6.4 0 12.933 1.467 18.933 4.4 128.267 63.733 313.733 113.867 412 123.733 17.2 1.733 31.6 13.733 36.533 30.267 25.333 84.533 81.733 184.4 122.4 244.267 11.6 16.933 9.467 39.733-5.067 54.133zM821.2 337.6c-52.267-7.6-117.867-22.4-184.8-42.133-27.333-8-54.267-16.667-80.267-25.6l163.067 163.067c8.4-4 17.733-6.267 27.6-6.267 35.333 0 64 28.667 64 64s-28.667 64-64 64-64-28.667-64-64c0-9.867 2.267-19.2 6.267-27.6l-163.2-162.933c9.067 26 17.6 52.933 25.6 80.267 19.6 66.933 34.533 132.533 42.133 184.8 73.733 26 153.067 68.667 211.333 105.467l121.733-121.733c-36.8-58.267-79.467-137.6-105.467-211.333zM725.333 490.667c0 11.733 9.6 21.333 21.333 21.333s21.333-9.6 21.333-21.333-9.6-21.333-21.333-21.333-21.333 9.6-21.333 21.333z"/>
            </g></svg>