<svg xmlns="http://www.w3.org/2000/svg" viewBox="0 0 1024 1024">
            <g transform="scale(1,-1) translate(0 -960)">
              <path d="M853.333 725.334c0 47.067-38.267 85.333-85.333 85.333 0 47.067-38.267 85.333-85.333 85.333h-341.333c-47.067 0-85.333-38.267-85.333-85.333-47.067 0-85.333-38.267-85.333-85.333-47.067 0-85.333-38.267-85.333-85.333v-597.333c0-47.067 38.267-85.333 85.333-85.333h682.667c47.067 0 85.333 38.267 85.333 85.333v597.333c0 47.067-38.267 85.333-85.333 85.333zM341.333 853.334h341.333c23.467 0 42.667-19.2 42.667-42.667h-426.667c0 23.467 19.2 42.667 42.667 42.667zM256 768h512c23.467 0 42.667-19.2 42.667-42.667h-597.333c0 23.467 19.2 42.667 42.667 42.667zM853.333 42.667h-682.667v597.333h682.667v-597.333c0.133 0 0 0 0 0zM746.667 554.667h-469.333c-11.733 0-21.333-9.6-21.333-21.333v-384c0-11.733 9.6-21.333 21.333-21.333h469.333c11.733 0 21.333 9.6 21.333 21.333v384c0 11.733-9.6 21.333-21.333 21.333zM298.667 512h426.667v-220.533l-24.933 24.933c-33.333 33.2-87.467 33.2-120.667 0l-145.733-145.733h-135.333v341.333zM494.267 170.667l115.6 115.6c16.533 16.533 43.733 16.533 60.4 0l55.067-55.067v-60.533h-231.067zM469.333 405.334c0 35.333-28.667 64-64 64s-64-28.667-64-64c0-35.333 28.667-64 64-64s64 28.667 64 64zM384 405.334c0 11.733 9.6 21.333 21.333 21.333s21.333-9.6 21.333-21.333-9.6-21.333-21.333-21.333-21.333 9.6-21.333 21.333z"/>
            </g></svg>