<svg xmlns="http://www.w3.org/2000/svg" viewBox="0 0 1024 1024">
            <g transform="scale(1,-1) translate(0 -960)">
              <path d="M938.667 938.667h-853.333c-47.067 0-85.333-38.267-85.333-85.333v-853.333c0-47.067 38.267-85.333 85.333-85.333h853.333c47.067 0 85.333 38.267 85.333 85.333v853.333c0 47.067-38.267 85.333-85.333 85.333zM938.667-0h-853.333l-0.133 853.333c0 0 0 0 0.133 0h853.333v-853.333zM149.333 213.334h725.333c11.733 0 21.333 9.6 21.333 21.333v554.667c0 11.733-9.6 21.333-21.333 21.333h-725.333c-11.733 0-21.333-9.6-21.333-21.333v-554.667c0-11.733 9.6-21.333 21.333-21.333zM451.6 256l286.267 286.267c16.533 16.533 43.733 16.533 60.4 0l55.067-55.067v-231.2h-401.733zM853.333 768v-220.533l-24.933 24.933c-33.333 33.2-87.467 33.2-120.667 0l-316.4-316.4h-195.733l200.933 200.933c16.533 16.533 43.733 16.533 60.4 0l39.067-39.067 30.133 30.133-39.067 39.067c-33.333 33.2-87.467 33.2-120.667 0l-195.733-195.733v476.667h682.667zM298.667 554.667c47.067 0 85.333 38.267 85.333 85.333s-38.267 85.333-85.333 85.333-85.333-38.267-85.333-85.333 38.267-85.333 85.333-85.333zM298.667 682.667c23.467 0 42.667-19.2 42.667-42.667s-19.2-42.667-42.667-42.667-42.667 19.2-42.667 42.667 19.2 42.667 42.667 42.667zM341.333 128h341.333v-42.667h-341.333v42.667z"/>
            </g></svg>