<svg xmlns="http://www.w3.org/2000/svg" viewBox="0 0 1024 1024">
            <g transform="scale(1,-1) translate(0 -960)">
              <path d="M1011.467 712.8l-213.333 213.333c-12.933 12.933-32.8 16.267-49.2 8l-85.333-42.667c-14.533-7.2-23.6-22-23.6-38.133v-61.2l-172.533-103.467-64.4 32.133c-16.4 8.267-36.267 4.933-49.2-8l-85.333-85.333c-16.667-16.667-16.667-43.733 0-60.4l135.733-135.733-398.667-438.267c-3.6-4-5.6-9.067-5.6-14.4v-42.667c0-11.733 9.6-21.333 21.333-21.333h42.667c5.333 0 10.4 2 14.4 5.6l438.533 398.667 135.733-135.733c8.267-8.267 19.2-12.533 30.133-12.533s21.867 4.133 30.133 12.533l85.333 85.333c12.933 12.933 16.267 32.8 8 49.2l-32.133 64.4 103.333 172.533h61.2c16.133 0 30.933 9.067 38.133 23.6l42.667 85.333c8.267 16.4 5.067 36.267-8 49.2zM55.733-42.666h-13.067v13.067l391.733 430.933 52.267-52.267-430.933-391.733zM912.267 640h-58.933c-14.933 0-28.933-7.867-36.533-20.667l-128-213.333c-7.467-12.533-8.133-28-1.6-41.067l28.933-57.867-33.467-33.333-323.6 323.6 33.467 33.467 57.867-28.933c13.067-6.533 28.533-5.867 41.067 1.6l213.333 128c12.8 7.733 20.667 21.6 20.667 36.533v58.933l34.267 17.067 169.867-169.867-17.333-34.133zM548.448 578.205l156.98 116.027 25.361-34.313-156.98-116.027-25.361 34.313z"/>
            </g></svg>