<svg xmlns="http://www.w3.org/2000/svg" viewBox="0 0 1024 1024">
            <g transform="scale(1,-1) translate(0 -960)">
              <path d="M930.267 844.934c-60.4 60.4-140.8 93.733-226.267 93.733s-165.867-33.333-226.267-93.733c-60.4-60.4-93.733-140.8-93.733-226.267 0-71.067 23.067-138.667 65.6-194.133l-48-48c-38.267 14.933-83.6 7.067-114.4-23.733l-256.133-256c-41.467-41.6-41.467-109.333 0.133-150.933 20.8-20.667 48.133-31.067 75.467-31.067s54.667 10.4 75.333 31.2l256.133 256.133c30.667 30.8 38.667 76 23.733 114.133l48 48c55.467-42.533 123.067-65.6 194.133-65.6 85.467 0 165.867 33.333 226.267 93.733s93.733 140.8 93.733 226.267-33.333 165.867-93.733 226.267zM377.733 262.267l-256-256c-8.267-8.267-21.867-8.267-30.133 0s-8.267 21.867 0 30.133l256 256c4.133 4.133 9.6 6.267 15.067 6.267s10.933-2.133 15.067-6.267c8.267-8.267 8.267-21.733 0-30.133zM704 384c-129.333 0-234.667 105.333-234.667 234.667s105.333 234.667 234.667 234.667 234.667-105.333 234.667-234.667-105.333-234.667-234.667-234.667zM853.333 640v-21.333c0-82.4-66.933-149.333-149.333-149.333h-21.333v-42.667h21.333c105.867 0 192 86.133 192 192v21.333h-42.667z"/>
            </g></svg>