<svg xmlns="http://www.w3.org/2000/svg" viewBox="0 0 1024 1024">
            <g transform="scale(1,-1) translate(0 -960)">
              <path d="M938.667 597.334h-384c-47.067 0-85.333-38.267-85.333-85.333v-170.667c0-47.067 38.267-85.333 85.333-85.333h384c47.067 0 85.333 38.267 85.333 85.333v170.667c0 47.067-38.267 85.333-85.333 85.333zM938.667 341.334h-384v170.667h384v-170.667c0 0 0 0 0 0zM1002.667 170.667h-512c-11.733 0-21.333-9.6-21.333-21.333v-213.333c0-11.733 9.6-21.333 21.333-21.333h512c11.733 0 21.333 9.6 21.333 21.333v213.333c0 11.733-9.6 21.333-21.333 21.333zM981.333-42.666h-469.333v170.667h469.333v-170.667zM1002.667 938.667h-512c-11.733 0-21.333-9.6-21.333-21.333v-213.333c0-11.733 9.6-21.333 21.333-21.333h512c11.733 0 21.333 9.6 21.333 21.333v213.333c0 11.733-9.6 21.333-21.333 21.333zM981.333 725.334h-469.333v170.667h469.333v-170.667zM213.333 487.067v451.6h-85.333v-451.6l-65.867 65.867-60.267-60.4 138.667-138.667c8.267-8.267 19.2-12.533 30.133-12.533s21.867 4.133 30.133 12.533l138.667 138.667-60.4 60.4-65.733-65.867z"/>
            </g></svg>