<svg xmlns="http://www.w3.org/2000/svg" viewBox="0 0 1024 1024">
            <g transform="scale(1,-1) translate(0 -960)">
              <path d="M938.667 768h-85.333c-23.6 0-42.667-19.067-42.667-42.667v-789.333c0-11.733 9.6-21.333 21.333-21.333h128c11.733 0 21.333 9.6 21.333 21.333v789.333c0 23.6-19.067 42.667-42.667 42.667zM853.333-42.666v725.333h42.667v-725.333h-42.667zM682.667 426.667h-85.333c-23.6 0-42.667-19.067-42.667-42.667v-448c0-11.733 9.6-21.333 21.333-21.333h128c11.733 0 21.333 9.6 21.333 21.333v448c0 23.6-19.067 42.667-42.667 42.667zM597.333-42.666v384h42.667v-384h-42.667zM426.667 213.334h-85.333c-23.6 0-42.667-19.067-42.667-42.667v-234.667c0-11.733 9.6-21.333 21.333-21.333h128c11.733 0 21.333 9.6 21.333 21.333v234.667c0 23.6-19.067 42.667-42.667 42.667zM341.333-42.666v170.667h42.667v-170.667h-42.667zM170.667 85.334h-85.333c-23.6 0-42.667-19.067-42.667-42.667v-106.667c0-11.733 9.6-21.333 21.333-21.333h128c11.733 0 21.333 9.6 21.333 21.333v106.667c0 23.6-19.067 42.667-42.667 42.667zM85.333-42.666v42.667h42.667v-42.667h-42.667z"/>
            </g></svg>