<svg xmlns="http://www.w3.org/2000/svg" viewBox="0 0 1024 1024">
            <g transform="scale(1,-1) translate(0 -960)">
              <path d="M983.733 626c-25.733 60.933-62.667 115.733-109.733 162.8s-101.733 83.867-162.8 109.733c-63.067 26.533-130.133 40.133-199.2 40.133s-136.133-13.6-199.333-40.267c-60.933-25.733-115.733-62.667-162.8-109.733s-83.867-101.733-109.733-162.8c-26.533-63.067-40.133-130.133-40.133-199.2s13.6-136.133 40.267-199.333c25.733-60.933 62.667-115.733 109.733-162.8s101.733-83.867 162.8-109.733c63.2-26.667 130.133-40.267 199.333-40.267 69.067 0 136.133 13.6 199.333 40.267 60.933 25.733 115.733 62.667 162.8 109.733s83.867 101.733 109.733 162.8c26.667 63.2 40.267 130.133 40.267 199.333-0.267 69.067-13.867 136.133-40.533 199.333zM512-42.666c-258.8 0-469.333 210.533-469.333 469.333s210.533 469.333 469.333 469.333c258.8 0 469.333-210.533 469.333-469.333s-210.533-469.333-469.333-469.333zM512 768v85.333c-114 0-221.2-44.4-301.733-124.933s-124.933-187.733-124.933-301.733h85.333c0 188.267 153.067 341.333 341.333 341.333zM512 725.334c-79.733 0-154.8-31.067-211.2-87.467s-87.467-131.467-87.467-211.2c0-79.733 31.067-154.8 87.467-211.2s131.467-87.467 211.2-87.467c79.733 0 154.8 31.067 211.2 87.467s87.467 131.467 87.467 211.2c0 79.733-31.067 154.8-87.467 211.2s-131.467 87.467-211.2 87.467zM512 170.667c-141.2 0-256 114.8-256 256s114.8 256 256 256 256-114.8 256-256-114.8-256-256-256z"/>
            </g></svg>