<svg xmlns="http://www.w3.org/2000/svg" viewBox="0 0 1024 1024">
            <g transform="scale(1,-1) translate(0 -960)">
              <path d="M1022.667 522.667c-4.133 16-17.067 28.133-33.333 31.2l-308.133 59.067-130 300c-6.8 15.6-22.133 25.733-39.2 25.733s-32.4-10.133-39.2-25.733l-130-300-308.133-59.067c-16.267-3.067-29.2-15.2-33.333-31.2s1.333-32.933 14-43.467l235.467-196.133-78.8-315.333c-4.133-16.533 2-34 15.6-44.4 13.6-10.267 32.133-11.467 46.933-3.067l277.467 158.533 277.467-158.533c6.533-3.733 13.867-5.6 21.2-5.6 9.067 0 18.133 2.933 25.733 8.667 13.6 10.267 19.733 27.733 15.6 44.4l-78.8 315.333 235.467 196.133c12.667 10.533 18.133 27.467 14 43.467zM698 331.467c-12.533-10.533-18-27.2-14.133-43.067l61.2-244.4-211.867 121.067c-6.533 3.733-13.867 5.6-21.2 5.6s-14.667-1.867-21.2-5.6l-211.867-121.067 61.067 244.267c4 15.867-1.467 32.667-14.133 43.067l-186.667 155.733 241.733 46.4c13.867 2.667 25.467 12 31.067 24.933l100 230.267 99.867-230.4c5.6-12.933 17.2-22.267 31.067-24.933l241.733-46.4-186.667-155.467z"/>
            </g></svg>