<svg xmlns="http://www.w3.org/2000/svg" viewBox="0 0 1024 1024">
            <g transform="scale(1,-1) translate(0 -960)">
              <path d="M868 576.8c1.067 0.933 2 1.867 3.067 2.933 33.333 33.333 33.333 87.467 0 120.667-16.133 16-37.6 24.933-60.4 24.933s-44.267-8.933-60.4-24.933c-0.933-0.933-2-2-2.933-3.067-57.6 38.267-123.333 61.733-192.8 68.533v44.8h21.333c35.333 0 64 28.667 64 64s-28.533 64-63.867 64h-128c-35.333 0-64-28.667-64-64s28.667-64 64-64h21.333v-44.8c-97.867-9.6-188.533-52.4-259.067-122.933-80.533-80.533-124.933-187.6-124.933-301.6s44.4-221.067 124.933-301.733c80.667-80.533 187.733-124.933 301.733-124.933s221.067 44.4 301.733 124.933c80.533 80.667 124.933 187.733 124.933 301.733 0 85.067-24.667 166.267-70.667 235.467zM426.667 874.667c0 11.733 9.6 21.333 21.333 21.333h128c11.733 0 21.333-9.6 21.333-21.333s-9.6-21.333-21.333-21.333h-128c-11.733 0-21.333 9.6-21.333 21.333zM810.667 682.667c11.333 0 22.133-4.4 30.133-12.533 16.133-16.133 16.667-42 1.467-58.8-8.933 10.933-18.533 21.467-28.667 31.6s-20.667 19.733-31.6 28.667c8 7.2 18 11.067 28.667 11.067zM512-0c-188.267 0-341.333 153.067-341.333 341.333s153.067 341.333 341.333 341.333c188.267 0 341.333-153.067 341.333-341.333s-153.067-341.333-341.333-341.333zM596 356.934l-42 247.733v0.4c-3.733 20.267-21.467 35.067-42 35.067s-38.133-14.533-41.867-34.667l-42.133-248.533c-0.933-5.333-1.333-10.533-1.333-15.6 0-47.067 38.267-85.333 85.333-85.333s85.333 38.267 85.333 85.333c0 4.933-0.533 10.133-1.333 15.6v0zM512 298.667c-23.467 0-42.667 19.2-42.667 42.667 0 2.667 0.267 5.467 0.8 8.4l41.733 247.6c0 0 0 0 0-0.133l41.867-246.933h-0.133c0.667-3.2 0.933-6.267 0.933-8.933 0.133-23.467-19.067-42.667-42.533-42.667z"/>
            </g></svg>