<svg xmlns="http://www.w3.org/2000/svg" viewBox="0 0 1024 1024">
            <g transform="scale(1,-1) translate(0 -960)">
              <path d="M810.667 640h-302.933c-56.133 55.067-130.267 85.333-209.067 85.333-79.733 0-154.8-31.067-211.2-87.467s-87.467-131.467-87.467-211.2c0-79.733 31.067-154.8 87.467-211.2s131.467-87.467 211.2-87.467c78.8 0 152.933 30.267 209.067 85.333h302.933c117.6 0 213.333 95.733 213.333 213.333s-95.733 213.333-213.333 213.333zM298.667 213.334c-117.6 0-213.333 95.733-213.333 213.333s95.733 213.333 213.333 213.333 213.333-95.733 213.333-213.333c0-117.6-95.733-213.333-213.333-213.333zM810.667 256h-266.8c34.8 49.733 53.467 108.8 53.467 170.667s-18.667 120.933-53.467 170.667h266.8c94.133 0 170.667-76.533 170.667-170.667s-76.533-170.667-170.667-170.667zM128 426.667h42.667c0 70.533 57.467 128 128 128v42.667c-94.133 0-170.667-76.533-170.667-170.667z"/>
            </g></svg>