<svg xmlns="http://www.w3.org/2000/svg" viewBox="0 0 1024 1024">
            <g transform="scale(1,-1) translate(0 -960)">
              <path d="M298.667 725.334h682.667v-85.333h-682.667v85.333zM298.667 469.334h682.667v-85.333h-682.667v85.333zM298.667 213.334h682.667v-85.333h-682.667v85.333zM128 768c-47.067 0-85.333-38.267-85.333-85.333s38.267-85.333 85.333-85.333 85.333 38.267 85.333 85.333-38.267 85.333-85.333 85.333zM128 640c-23.467 0-42.667 19.2-42.667 42.667s19.2 42.667 42.667 42.667 42.667-19.2 42.667-42.667-19.2-42.667-42.667-42.667zM128 512c-47.067 0-85.333-38.267-85.333-85.333s38.267-85.333 85.333-85.333 85.333 38.267 85.333 85.333c0 47.067-38.267 85.333-85.333 85.333zM128 384c-23.467 0-42.667 19.2-42.667 42.667s19.2 42.667 42.667 42.667 42.667-19.2 42.667-42.667c0-23.467-19.2-42.667-42.667-42.667zM128 256c-47.067 0-85.333-38.267-85.333-85.333s38.267-85.333 85.333-85.333 85.333 38.267 85.333 85.333-38.267 85.333-85.333 85.333zM128 128c-23.467 0-42.667 19.2-42.667 42.667s19.2 42.667 42.667 42.667 42.667-19.2 42.667-42.667-19.2-42.667-42.667-42.667z"/>
            </g></svg>