<svg xmlns="http://www.w3.org/2000/svg" viewBox="0 0 1024 1024">
            <g transform="scale(1,-1) translate(0 -960)">
              <path d="M512 341.334c141.2 0 256 114.8 256 256s-114.8 256-256 256-256-114.8-256-256 114.8-256 256-256zM512 768c94.133 0 170.667-76.533 170.667-170.667s-76.533-170.667-170.667-170.667c-94.133 0-170.667 76.533-170.667 170.667s76.533 170.667 170.667 170.667zM840.933 210.4c-58.933 59.467-166.533 88.267-328.933 88.267s-270-28.8-328.933-88.267c-55.067-55.467-55.067-123.067-55.067-167.733v-21.333c0-11.733 9.6-21.333 21.333-21.333h725.333c11.733 0 21.333 9.6 21.333 21.333v21.333c0 44.667 0 112.267-55.067 167.733zM213.333 42.667c0 37.867 0 77.2 30.267 107.6 18 18.133 45.733 32.533 82.667 42.933 47.2 13.333 109.733 20.133 185.733 20.133s138.533-6.8 185.733-20.133c36.933-10.4 64.667-24.8 82.667-42.933 30.267-30.4 30.267-69.733 30.267-107.6h-597.333z"/>
            </g></svg>