<svg xmlns="http://www.w3.org/2000/svg" viewBox="0 0 1024 1024">
            <g transform="scale(1,-1) translate(0 -960)">
              <path d="M983.733 626c-25.733 60.933-62.667 115.733-109.733 162.667-47.067 47.067-101.733 83.867-162.667 109.733-63.2 26.667-130.267 40.267-199.333 40.267s-136.133-13.6-199.333-40.267c-60.933-25.733-115.733-62.667-162.667-109.733-47.067-47.067-83.867-101.733-109.733-162.667-26.667-63.2-40.267-130.267-40.267-199.333s13.6-136.133 40.267-199.333c25.733-60.933 62.667-115.733 109.733-162.667 47.067-47.067 101.733-83.867 162.667-109.733 63.2-26.667 130.267-40.267 199.333-40.267s136.133 13.6 199.333 40.267c60.933 25.733 115.733 62.667 162.667 109.733 47.067 47.067 83.867 101.733 109.733 162.667 26.667 63.2 40.267 130.267 40.267 199.333s-13.6 136.133-40.267 199.333zM512-0c-235.2 0-426.667 191.467-426.667 426.667s191.467 426.667 426.667 426.667c235.2 0 426.667-191.467 426.667-426.667s-191.467-426.667-426.667-426.667zM512 810.667c-102.533 0-199.067-40-271.467-112.533s-112.533-168.933-112.533-271.467 40-199.067 112.533-271.467c72.4-72.533 168.933-112.533 271.467-112.533s199.067 40 271.467 112.533c72.533 72.4 112.533 168.933 112.533 271.467s-40 199.067-112.533 271.467c-72.4 72.533-168.933 112.533-271.467 112.533zM512 85.334c-188.267 0-341.333 153.067-341.333 341.333s153.067 341.333 341.333 341.333c188.267 0 341.333-153.067 341.333-341.333s-153.067-341.333-341.333-341.333zM469.333 682.667h85.333v-341.333h-85.333v341.333zM469.333 256h85.333v-85.333h-85.333v85.333z"/>
            </g></svg>