<svg xmlns="http://www.w3.org/2000/svg" viewBox="0 0 1024 1024">
            <g transform="scale(1,-1) translate(0 -960)">
              <path d="M938.667 896h-853.333c-47.067 0-85.333-38.267-85.333-85.333v-768c0-47.067 38.267-85.333 85.333-85.333h853.333c47.067 0 85.333 38.267 85.333 85.333v768c0 47.067-38.267 85.333-85.333 85.333zM938.667 810.667v-170.667h-48.667l-37.867 113.467c-2.933 8.667-11.067 14.533-20.267 14.533h-255.867c-9.2 0-17.333-5.867-20.267-14.533l-37.733-113.467h-432.667v170.667h853.333zM938.667 597.334v-469.333h-853.333v469.333h448c9.2 0 17.333 5.867 20.267 14.533l37.867 113.467h225.2l37.867-113.467c2.933-8.667 11.067-14.533 20.267-14.533h63.867zM938.667 42.667h-853.333v42.667h853.467l-0.133-42.667c0.133 0 0 0 0 0zM213.333 725.334c0-23.564-19.103-42.667-42.667-42.667s-42.667 19.103-42.667 42.667c0 23.564 19.103 42.667 42.667 42.667s42.667-19.103 42.667-42.667zM341.333 725.334c0-23.564-19.103-42.667-42.667-42.667s-42.667 19.103-42.667 42.667c0 23.564 19.103 42.667 42.667 42.667s42.667-19.103 42.667-42.667zM469.333 725.334c0-23.564-19.103-42.667-42.667-42.667s-42.667 19.103-42.667 42.667c0 23.564 19.103 42.667 42.667 42.667s42.667-19.103 42.667-42.667z"/>
            </g></svg>